<svg width="80" height="80" viewBox="0 0 80 80" fill="none" xmlns="http://www.w3.org/2000/svg">
<circle cx="40" cy="40" r="40" fill="#FF4646" fill-opacity="0.29"/>
<path d="M50.105 30.0631C50.062 30.0196 50.0303 29.9744 49.9797 29.9379C47.4119 27.4015 43.8859 25.8331 40.0001 25.8331C36.1142 25.8331 32.5883 27.4015 30.0204 29.9379C29.9769 29.9808 29.9318 30.0126 29.8953 30.0631C27.3589 32.6309 25.7905 36.157 25.7905 40.0428C25.7905 43.9287 27.3589 47.4547 29.8953 50.0226C29.9383 50.066 29.9701 50.1112 30.0205 50.1477C32.5883 52.684 36.1143 54.2524 40.0002 54.2524C43.886 54.2524 47.412 52.684 49.9798 50.1478C50.0231 50.105 50.069 50.0724 50.1051 50.0225C52.6414 47.4547 54.2098 43.9286 54.2098 40.0428C54.2097 36.1571 52.6413 32.6311 50.105 30.0631ZM49.6411 48.8963L48.3038 47.559C48.0863 47.3416 47.7338 47.3416 47.5164 47.559C47.299 47.7765 47.299 48.129 47.5164 48.3465L48.8536 49.6837C46.6484 51.7104 43.7486 52.992 40.557 53.1261V51.2291C40.557 50.9216 40.3077 50.6723 40.0002 50.6723C39.6927 50.6723 39.4434 50.9216 39.4434 51.2291V53.1261C36.2517 52.9919 33.352 51.7104 31.1467 49.6837L32.4839 48.3465C32.7014 48.129 32.7014 47.7765 32.4839 47.559C32.2665 47.3416 31.9139 47.3416 31.6965 47.559L30.3593 48.8962C28.3326 46.6911 27.0511 43.7914 26.9169 40.5996H28.8139C29.1214 40.5996 29.3707 40.3503 29.3707 40.0428C29.3707 39.7354 29.1214 39.4861 28.8139 39.4861H26.9168C27.0511 36.2944 28.3326 33.3947 30.3593 31.1894C30.3593 31.1894 31.6965 32.5266 31.6965 32.5267C31.9125 32.7426 32.2684 32.7421 32.4839 32.5267C32.7014 32.3092 32.7014 31.9567 32.4839 31.7393L31.1467 30.402C33.352 28.3753 36.2517 27.0938 39.4434 26.9595V28.8566C39.4434 29.1641 39.6927 29.4134 40.0002 29.4134C40.3077 29.4134 40.557 29.1641 40.557 28.8566V26.9594C43.7486 27.0937 46.6484 28.3752 48.8536 30.4019L47.5164 31.7391C47.299 31.9565 47.299 32.3091 47.5164 32.5265C47.7312 32.7413 48.089 32.7413 48.3038 32.5265L49.641 31.1893C51.6677 33.3946 52.9493 36.2943 53.0835 39.486H51.1864C50.8789 39.486 50.6296 39.7353 50.6296 40.0428C50.6296 40.3503 50.8789 40.5996 51.1864 40.5996H53.0835C52.9493 43.7912 51.6678 46.691 49.6411 48.8963Z" fill="#F85C5C"/>
<path d="M47.8341 39.1515L46.3424 38.4057C46.202 38.3355 46.0522 38.2999 45.8969 38.2999C45.3473 38.2999 44.9001 38.7472 44.9001 39.2971V39.4861H41.6622C41.4877 38.967 41.0767 38.5559 40.5576 38.3815V35.1436H40.7466C41.0945 35.1436 41.4115 34.9669 41.5943 34.671C41.7773 34.3751 41.7936 34.0125 41.638 33.7013L40.8921 32.2096C40.7222 31.8698 40.3806 31.6587 40.0007 31.6587C39.6208 31.6587 39.2792 31.8698 39.1093 32.2096L38.3635 33.7013C38.2078 34.0125 38.2242 34.375 38.4071 34.6709C38.59 34.9668 38.9069 35.1435 39.2548 35.1435H39.4439V38.3814C38.7497 38.6148 38.248 39.2712 38.248 40.043C38.248 41.0095 39.0342 41.7957 40.0007 41.7957C40.7725 41.7957 41.429 41.294 41.6622 40.5998H44.9001V40.7888C44.9001 41.3386 45.3472 41.786 45.8968 41.786C46.0521 41.786 46.2019 41.7505 46.3424 41.6803L47.834 40.9344C48.1738 40.7645 48.3849 40.423 48.3849 40.043C48.385 39.6629 48.1739 39.3213 47.8341 39.1515ZM40.0009 32.9169L40.5574 34.03H39.4444L40.0009 32.9169ZM40.0009 40.682C39.6485 40.682 39.3618 40.3952 39.3618 40.0429C39.3618 39.6905 39.6484 39.4038 40.0009 39.4038C40.3532 39.4038 40.64 39.6905 40.64 40.0429C40.6399 40.3953 40.3532 40.682 40.0009 40.682ZM46.0138 40.5994V39.4864L47.1269 40.0429L46.0138 40.5994Z" fill="#F85C5C"/>
<path d="M34.0714 43.722C33.7639 43.722 33.5146 43.9713 33.5146 44.2788V45.3518C33.5146 45.6593 33.7639 45.9086 34.0714 45.9086C34.3789 45.9086 34.6282 45.6593 34.6282 45.3518V44.2788C34.6282 43.9713 34.3789 43.722 34.0714 43.722Z" fill="#F85C5C"/>
<path d="M45.9284 43.722C45.6209 43.722 45.3716 43.9713 45.3716 44.2788V45.3518C45.3716 45.6593 45.6209 45.9086 45.9284 45.9086C46.2359 45.9086 46.4852 45.6593 46.4852 45.3518V44.2788C46.4852 43.9713 46.2359 43.722 45.9284 43.722Z" fill="#F85C5C"/>
<path d="M41.8293 44.8577C41.5977 44.6553 41.246 44.6789 41.0436 44.9105C40.7897 45.2009 40.4091 45.3675 39.9996 45.3675C39.59 45.3675 39.2094 45.2009 38.9555 44.9105C38.7531 44.679 38.4014 44.6553 38.1699 44.8578C37.9383 45.0602 37.9147 45.4119 38.1171 45.6435C38.5826 46.1758 39.2687 46.4811 39.9996 46.4811C40.7306 46.4811 41.4168 46.1758 41.8822 45.6434C42.0844 45.4119 42.0608 45.0601 41.8293 44.8577Z" fill="#F85C5C"/>
<path d="M53.4379 50.899C55.9229 47.8348 57.274 44.043 57.274 40.043C57.2741 37.6812 56.8022 35.3921 55.9051 33.2823C56.3544 32.3214 56.5914 31.2593 56.5914 30.1925C56.5914 26.1723 53.3207 22.9016 49.3004 22.9016C48.0887 22.9016 46.8977 23.2033 45.8381 23.7758C44.6959 23.3668 43.5077 23.0798 42.2896 22.9196C42.0968 21.8302 41.1439 21 40.0001 21C38.8563 21 37.9035 21.8302 37.7107 22.9195C36.4926 23.0798 35.3043 23.3667 34.1622 23.7757C33.1026 23.2032 31.9116 22.9015 30.6999 22.9015C26.6796 22.9015 23.4089 26.1722 23.4089 30.1925C23.4089 31.2592 23.6459 32.3214 24.0953 33.2822C23.198 35.3921 22.7261 37.6811 22.7261 40.043C22.7261 41.9342 23.03 43.7937 23.6295 45.5699C23.7278 45.8613 24.044 46.0177 24.3351 45.9194C24.6264 45.821 24.783 45.5051 24.6846 45.2137C24.1239 43.5525 23.8396 41.8127 23.8396 40.0429C23.8396 37.7738 24.3048 35.5763 25.1888 33.5586C25.2 33.5397 25.2108 33.5205 25.2199 33.5001C26.9579 29.58 30.3011 26.4208 34.3153 24.9117C37.9445 23.5474 42.0561 23.5453 45.6847 24.9117C49.7171 26.4274 53.0322 29.5578 54.7801 33.5001C54.7891 33.5204 54.7999 33.5397 54.8111 33.5585C55.6952 35.5763 56.1603 37.7737 56.1603 40.0429C56.1603 43.8752 54.8343 47.5033 52.4011 50.4051C52.3968 50.4099 52.3922 50.4143 52.3881 50.4192C51.7289 51.2054 50.9956 51.9303 50.2001 52.5785C49.295 53.3158 48.3055 53.9201 47.2824 54.4782C45.052 55.6064 42.5718 56.2034 39.9998 56.2034C37.4241 56.2034 34.9046 55.594 32.6359 54.4313C30.7249 53.4512 29.0163 52.0875 27.6333 50.4446C26.8384 49.5003 26.1495 48.4657 25.5856 47.3566C25.4463 47.0825 25.111 46.9733 24.8369 47.1127C24.5628 47.252 24.4535 47.5873 24.593 47.8614C25.1434 48.9439 25.8047 49.9608 26.5623 50.8978L25.1181 55.5062C24.8584 56.3344 25.0044 57.2107 25.5182 57.9103C26.4444 59.1714 28.3259 59.3736 29.4982 58.3179L32.5052 55.6095C34.8314 56.7306 37.3887 57.317 40 57.317C42.6402 57.317 45.1894 56.7277 47.4989 55.6132C47.4989 55.6132 50.5009 58.3171 50.5018 58.3179C51.6735 59.3732 53.5506 59.1783 54.4819 57.9104C54.9957 57.2108 55.1416 56.3346 54.882 55.5062L53.4379 50.899ZM27.7855 27.8283C26.5662 29.0477 25.5518 30.4173 24.7592 31.8953C24.6019 31.3469 24.5225 30.7775 24.5225 30.1924C24.5225 26.7861 27.2936 24.015 30.6999 24.015C31.3975 24.015 32.0868 24.1328 32.7384 24.3604C30.9201 25.2037 29.245 26.3689 27.7855 27.8283ZM40.9992 22.7982C40.3337 22.7599 39.6668 22.7597 39.0013 22.7982C38.9697 22.8001 38.9381 22.8015 38.9064 22.8034C39.1019 22.3958 39.5187 22.1136 40.0001 22.1136C40.4816 22.1136 40.8985 22.3958 41.0938 22.8034C41.0623 22.8014 41.0307 22.8 40.9992 22.7982ZM55.2411 31.8954C54.4485 30.4174 53.4341 29.0478 52.2147 27.8284C50.7552 26.3689 49.0801 25.2038 47.2618 24.3605C47.9135 24.1331 48.6028 24.0151 49.3004 24.0151C52.7066 24.0151 55.4778 26.7863 55.4778 30.1925C55.4778 30.7775 55.3984 31.3469 55.2411 31.8954ZM28.7529 57.4904C28.0652 58.1097 26.9621 57.9949 26.4157 57.2511C26.114 56.8402 26.0283 56.3257 26.1807 55.8393L27.4211 51.8819C27.5679 52.0378 27.7173 52.1911 27.8698 52.3414C28.9388 53.3957 30.1488 54.3147 31.4536 55.058C31.4536 55.058 28.7548 57.4888 28.7529 57.4904ZM53.5846 57.251C53.0376 57.9958 51.9339 58.1089 51.2473 57.4904L48.5499 55.0608C49.1858 54.6974 49.8 54.2917 50.3897 53.8458C51.1684 53.2571 51.8982 52.6023 52.5684 51.8925C52.5718 51.8888 52.5754 51.8852 52.579 51.8814L53.8195 55.8393C53.9718 56.3257 53.8862 56.8402 53.5846 57.251Z" fill="#F85C5C"/>
</svg>
