<svg width="112" height="112" viewBox="0 0 112 112" fill="none" xmlns="http://www.w3.org/2000/svg">
<path d="M56 112C86.9279 112 112 86.9279 112 56C112 25.0721 86.9279 0 56 0C25.0721 0 0 25.0721 0 56C0 86.9279 25.0721 112 56 112Z" fill="#6483F6"/>
<path fill-rule="evenodd" clip-rule="evenodd" d="M38.8822 44.3169L47.175 47.1151C47.8579 47.4153 51.1008 48.6055 56.8511 47.1752C64.1149 45.367 79.8416 42.2356 80 42.2026L79.4145 39.2373C79.4087 39.2384 79.3653 39.2467 79.3101 39.2584L64.3214 37.1383C62.6729 36.9052 60.0119 36.9735 58.3775 37.2925L38.339 41.1926C35.732 41.0572 33.2528 42.6641 32.4221 45.2693C31.9434 46.7726 32.0772 48.3748 32.7976 49.7745C33.166 50.4902 33.6682 51.1082 34.2677 51.6097C33.3655 52.3161 32.6568 53.2884 32.2825 54.4609C31.805 55.9642 31.9387 57.5664 32.658 58.9673C33.0487 59.7254 33.5931 60.3646 34.2384 60.8767C33.3502 61.5807 32.6521 62.5484 32.2813 63.7079C31.8038 65.2112 31.9376 66.8122 32.6568 68.2131C33.3784 69.6151 34.5997 70.6511 36.0969 71.1314L50.5435 75.7661C51.3367 76.0203 52.6367 76.0769 53.4486 75.8885L78.8091 70.059C78.8091 70.059 78.6578 69.3997 78.4724 68.5863C78.287 67.7728 77.4786 67.2631 76.6667 67.4503L53.5788 72.7548C52.7681 72.9419 51.4681 72.8854 50.6737 72.6323L37.0155 68.2519C36.2846 68.0188 35.6874 67.5103 35.3366 66.8275C34.9846 66.1447 34.9189 65.3631 35.1535 64.6308C35.6358 63.1158 37.2561 62.2858 38.7661 62.7603C38.7696 62.7461 47.1234 65.4243 50.5447 66.5179C51.3378 66.7722 52.6378 66.8287 53.4497 66.6403L78.8103 60.812C78.8103 60.812 78.6589 60.1516 78.4736 59.3381C78.2882 58.5247 77.4798 58.0149 76.6679 58.2021L53.58 63.5078C52.7692 63.6938 51.4692 63.6373 50.6749 63.3854L37.0155 59.0038C36.2846 58.7707 35.6874 58.2621 35.3366 57.5794C34.9846 56.8966 34.9189 56.1149 35.1535 55.3827C35.6358 53.8676 37.2561 53.0365 38.7661 53.5121C38.7673 53.5074 47.236 56.2232 50.6843 57.3274C51.4763 57.5817 52.7774 57.6382 53.5882 57.4499L78.9487 51.6203C78.9487 51.6203 78.7974 50.9623 78.612 50.1465C78.4254 49.3342 77.6171 48.8233 76.8063 49.0116L53.7184 54.315C52.9077 54.5033 51.6077 54.4468 50.8134 54.1925L37.154 49.8121C36.423 49.5779 35.8258 49.0705 35.475 48.3865C35.123 47.7037 35.0573 46.9221 35.292 46.1899C35.7742 44.6771 37.3933 43.8343 38.8822 44.3169Z" fill="white"/>
</svg>
