<svg width="13" height="8" viewBox="0 0 13 8" fill="none" xmlns="http://www.w3.org/2000/svg">
<path fill-rule="evenodd" clip-rule="evenodd" d="M11.3833 3.50049C11.3833 3.6331 11.3239 3.76027 11.2182 3.85404C11.1124 3.94781 10.969 4.00049 10.8195 4.00049L0.670536 4.00049C0.520999 4.00049 0.377586 3.94781 0.271847 3.85404C0.166109 3.76027 0.106705 3.6331 0.106705 3.50049C0.106705 3.36788 0.166109 3.2407 0.271847 3.14693C0.377586 3.05317 0.520999 3.00049 0.670536 3.00049L10.8195 3.00049C10.969 3.00049 11.1124 3.05317 11.2182 3.14693C11.3239 3.2407 11.3833 3.36788 11.3833 3.50049Z" fill="#298FFD"/>
<path fill-rule="evenodd" clip-rule="evenodd" d="M12.3461 3.14663C12.3986 3.19308 12.4402 3.24825 12.4687 3.309C12.4971 3.36974 12.5117 3.43486 12.5117 3.50063C12.5117 3.5664 12.4971 3.63152 12.4687 3.69226C12.4402 3.75301 12.3986 3.80819 12.3461 3.85463L8.96309 6.85463C8.85722 6.94852 8.71363 7.00126 8.5639 7.00126C8.41418 7.00126 8.27058 6.94852 8.16471 6.85463C8.05884 6.76074 7.99936 6.63341 7.99936 6.50063C7.99936 6.36786 8.05884 6.24052 8.16471 6.14663L11.1496 3.50063L8.16471 0.854632C8.05884 0.760745 7.99936 0.633407 7.99936 0.500632C7.99936 0.367856 8.05884 0.240518 8.16471 0.146632C8.27058 0.0527449 8.41418 -1.80045e-07 8.5639 -1.73466e-07C8.71363 -1.66887e-07 8.85722 0.0527449 8.96309 0.146632L12.3461 3.14663Z" fill="#298FFD"/>
</svg>
