<svg width="24" height="22" viewBox="0 0 24 22" fill="none" xmlns="http://www.w3.org/2000/svg">
<path fill-rule="evenodd" clip-rule="evenodd" d="M22.703 1.49494C23.2317 2.02095 23.2317 2.87379 22.703 3.3998L12.143 13.9059C11.6143 14.4319 10.7571 14.4319 10.2284 13.9059L5.89604 9.59572C5.36733 9.06971 5.36733 8.21687 5.89604 7.69086C6.42475 7.16485 7.28196 7.16485 7.81067 7.69086L11.1857 11.0486L20.7884 1.49494C21.3171 0.96893 22.1743 0.96893 22.703 1.49494Z" fill="#3F78F3"/>
<path fill-rule="evenodd" clip-rule="evenodd" d="M12.029 2.68247C10.3404 2.47355 8.62809 2.78358 7.11988 3.57135C5.61167 4.35912 4.37897 5.5873 3.58566 7.0926C2.79236 8.59791 2.47603 10.309 2.67874 11.9985C2.88145 13.6879 3.5936 15.2756 4.72049 16.5505C5.84739 17.8254 7.33565 18.7271 8.98741 19.1357C10.6392 19.5443 12.3762 19.4405 13.9675 18.838C15.5588 18.2355 16.9291 17.163 17.896 15.7629C18.863 14.3628 19.381 12.7016 19.381 11C19.381 10.2768 19.9672 9.69048 20.6905 9.69048C21.4137 9.69048 22 10.2768 22 11C22 13.2333 21.3202 15.4137 20.0511 17.2513C18.7819 19.0889 16.9834 20.4966 14.8948 21.2874C12.8062 22.0781 10.5264 22.2144 8.35848 21.6781C6.19054 21.1418 4.2372 19.9583 2.75815 18.285C1.2791 16.6117 0.344407 14.5279 0.0783487 12.3105C-0.18771 10.0931 0.227466 7.84725 1.26868 5.87154L2.42717 6.48207L1.26868 5.87154C2.30989 3.89582 3.92781 2.28384 5.90734 1.2499C7.88686 0.215951 10.1342 -0.190968 12.3506 0.0832387C13.0684 0.172038 13.5782 0.825882 13.4894 1.54364C13.4006 2.2614 12.7468 2.77127 12.029 2.68247Z" fill="#3F78F3"/>
</svg>
