<svg width="135" height="135" viewBox="0 0 135 135" fill="none" xmlns="http://www.w3.org/2000/svg">
<circle cx="67.5" cy="67.5" r="67.5" fill="url(#paint0_linear)" fill-opacity="0.77"/>
<path d="M64.0012 82.0007C64.0012 78.8367 62.0392 78.0007 61.0012 78.0007H55.0012C54.7342 78.0177 54.4666 77.9777 54.2162 77.8832C53.9658 77.7887 53.7385 77.642 53.5492 77.4527C53.36 77.2635 53.2133 77.0361 53.1188 76.7858C53.0243 76.5354 52.9842 76.2678 53.0012 76.0007V72.2727C53.0013 72.1311 52.9713 71.9912 52.9132 71.862C52.8551 71.7329 52.7702 71.6176 52.6642 71.5237C51.6613 70.5996 50.3637 70.0601 49.0012 70.0007C48.8856 70.0148 48.7683 70.0056 48.6562 69.9739C48.5441 69.9422 48.4395 69.8884 48.3483 69.8158C48.2572 69.7432 48.1815 69.6532 48.1255 69.5511C48.0695 69.4489 48.0344 69.3366 48.0222 69.2207L52.8772 60.4207C52.9583 60.273 53.0009 60.1072 53.0012 59.9387V58.0007C53.0052 54.5541 54.3761 51.2498 56.8132 48.8127C59.2504 46.3756 62.5546 45.0047 66.0012 45.0007V43.0007C62.0244 43.0052 58.2117 44.587 55.3996 47.3991C52.5875 50.2112 51.0057 54.0239 51.0012 58.0007V59.6817L46.1252 68.5177C46.044 68.6658 46.0014 68.8319 46.0012 69.0007C45.9896 69.3979 46.0593 69.7932 46.2059 70.1624C46.3526 70.5316 46.5732 70.867 46.8541 71.1479C47.135 71.4288 47.4704 71.6494 47.8396 71.796C48.2088 71.9427 48.6041 72.0123 49.0012 72.0007C49.7286 72.0412 50.4263 72.3025 51.0012 72.7497V76.0007C50.9856 76.5303 51.0784 77.0574 51.2739 77.5498C51.4694 78.0421 51.7634 78.4894 52.138 78.8639C52.5126 79.2385 52.9598 79.5326 53.4522 79.7281C53.9446 79.9236 54.4717 80.0164 55.0012 80.0007H60.9732C61.1442 80.0117 62.0012 80.1607 62.0012 82.0007V90.0007C62.0012 90.2659 62.1066 90.5203 62.2941 90.7078C62.4817 90.8954 62.736 91.0007 63.0012 91.0007H71.0012V89.0007H64.0012V82.0007Z" fill="white"/>
<path d="M88.001 77.8907C87.857 78.4907 86.893 82.0007 84.001 82.0007C83.7358 82.0007 83.4814 82.1061 83.2939 82.2936C83.1063 82.4812 83.001 82.7355 83.001 83.0007V89.0007H81.001V91.0007H84.001C84.2662 91.0007 84.5205 90.8954 84.7081 90.7078C84.8956 90.5203 85.001 90.2659 85.001 90.0007V83.9087C88.127 83.3177 89.617 80.0197 89.981 78.1967C89.9941 78.1322 90.0008 78.0666 90.001 78.0007V68.0007H88.001V77.8907Z" fill="white"/>
<path d="M77.001 75.1847V70.9497C79.7189 70.7536 82.3204 69.7682 84.4862 68.1145C86.652 66.4607 88.2877 64.2105 89.1927 61.6402C90.0977 59.0699 90.2326 56.2913 89.5807 53.6455C88.9288 50.9996 87.5185 48.6017 85.523 46.746C83.5275 44.8903 81.0336 43.6577 78.3475 43.1993C75.6613 42.741 72.8998 43.077 70.4019 44.166C67.904 45.255 65.7784 47.0496 64.286 49.3296C62.7936 51.6096 61.9995 54.2757 62.001 57.0007H64.001C64.0033 54.4293 64.8324 51.9268 66.3657 49.8626C67.8991 47.7984 70.0555 46.2818 72.5166 45.5369C74.9777 44.7919 77.6131 44.8579 80.0339 45.7253C82.4546 46.5926 84.5323 48.2153 85.9603 50.3537C87.3883 52.4921 88.0909 55.0331 87.9645 57.6014C87.838 60.1697 86.8891 62.6292 85.2579 64.617C83.6267 66.6048 81.3996 68.0155 78.9054 68.6408C76.4112 69.2661 73.782 69.0729 71.406 68.0897L70.641 69.9377C72.0299 70.5096 73.5023 70.8524 75.001 70.9527V75.1847C74.4181 75.3908 73.9131 75.772 73.5551 76.276C73.1971 76.7801 73.0035 77.3825 73.001 78.0007V88.0007C73.001 88.7964 73.317 89.5594 73.8797 90.122C74.4423 90.6847 75.2053 91.0007 76.001 91.0007C76.7966 91.0007 77.5597 90.6847 78.1223 90.122C78.6849 89.5594 79.001 88.7964 79.001 88.0007V78.0007C78.9984 77.3825 78.8049 76.7801 78.4469 76.276C78.0889 75.772 77.5839 75.3908 77.001 75.1847ZM77.001 88.0007C77.001 88.2659 76.8956 88.5203 76.7081 88.7078C76.5205 88.8954 76.2662 89.0007 76.001 89.0007C75.7358 89.0007 75.4814 88.8954 75.2939 88.7078C75.1063 88.5203 75.001 88.2659 75.001 88.0007V78.0007C75.001 77.7355 75.1063 77.4812 75.2939 77.2936C75.4814 77.1061 75.7358 77.0007 76.001 77.0007C76.2662 77.0007 76.5205 77.1061 76.7081 77.2936C76.8956 77.4812 77.001 77.7355 77.001 78.0007V88.0007Z" fill="white"/>
<path d="M69.0014 60.0007C68.7362 60.0008 68.4819 60.1062 68.2944 60.2937L61.2944 67.2937L62.7084 68.7077L69.4154 62.0007H74.0814C74.3466 62.0007 74.6009 61.8953 74.7884 61.7077L81.0014 55.4947V59.0007H83.0014V53.0007C83.0014 52.7355 82.8961 52.4812 82.7085 52.2936C82.521 52.1061 82.2667 52.0007 82.0014 52.0007H75.0014V54.0007H79.6674L73.6674 60.0007H69.0014Z" fill="white"/>
<defs>
<linearGradient id="paint0_linear" x1="67.5" y1="0" x2="67.5" y2="135" gradientUnits="userSpaceOnUse">
<stop stop-color="#6382F5"/>
<stop offset="1" stop-color="#6382F5" stop-opacity="0.93"/>
</linearGradient>
</defs>
</svg>
