<svg width="189" height="53" viewBox="0 0 189 53" fill="none" xmlns="http://www.w3.org/2000/svg">
<path fill-rule="evenodd" clip-rule="evenodd" d="M108.526 2.44312C108.526 3.54768 107.631 4.44312 106.526 4.44312C105.422 4.44312 104.526 3.54768 104.526 2.44312C104.526 1.33855 105.422 0.443115 106.526 0.443115C107.631 0.443115 108.526 1.33855 108.526 2.44312ZM106.526 20.4431C107.631 20.4431 108.526 19.5477 108.526 18.4431C108.526 17.3385 107.631 16.4431 106.526 16.4431C105.422 16.4431 104.526 17.3385 104.526 18.4431C104.526 19.5477 105.422 20.4431 106.526 20.4431ZM122.526 20.4431C123.631 20.4431 124.526 19.5477 124.526 18.4431C124.526 17.3385 123.631 16.4431 122.526 16.4431C121.422 16.4431 120.526 17.3385 120.526 18.4431C120.526 19.5477 121.422 20.4431 122.526 20.4431ZM140.526 18.4431C140.526 19.5477 139.631 20.4431 138.526 20.4431C137.422 20.4431 136.526 19.5477 136.526 18.4431C136.526 17.3385 137.422 16.4431 138.526 16.4431C139.631 16.4431 140.526 17.3385 140.526 18.4431ZM154.526 20.4431C155.631 20.4431 156.526 19.5477 156.526 18.4431C156.526 17.3385 155.631 16.4431 154.526 16.4431C153.422 16.4431 152.526 17.3385 152.526 18.4431C152.526 19.5477 153.422 20.4431 154.526 20.4431ZM172.526 18.4431C172.526 19.5477 171.631 20.4431 170.526 20.4431C169.422 20.4431 168.526 19.5477 168.526 18.4431C168.526 17.3385 169.422 16.4431 170.526 16.4431C171.631 16.4431 172.526 17.3385 172.526 18.4431ZM186.526 20.4431C187.631 20.4431 188.526 19.5477 188.526 18.4431C188.526 17.3385 187.631 16.4431 186.526 16.4431C185.422 16.4431 184.526 17.3385 184.526 18.4431C184.526 19.5477 185.422 20.4431 186.526 20.4431ZM122.526 4.44312C123.631 4.44312 124.526 3.54768 124.526 2.44312C124.526 1.33855 123.631 0.443115 122.526 0.443115C121.422 0.443115 120.526 1.33855 120.526 2.44312C120.526 3.54768 121.422 4.44312 122.526 4.44312ZM140.526 2.44312C140.526 3.54768 139.631 4.44312 138.526 4.44312C137.422 4.44312 136.526 3.54768 136.526 2.44312C136.526 1.33855 137.422 0.443115 138.526 0.443115C139.631 0.443115 140.526 1.33855 140.526 2.44312ZM154.526 4.44312C155.631 4.44312 156.526 3.54768 156.526 2.44312C156.526 1.33855 155.631 0.443115 154.526 0.443115C153.422 0.443115 152.526 1.33855 152.526 2.44312C152.526 3.54768 153.422 4.44312 154.526 4.44312ZM172.526 2.44312C172.526 3.54768 171.631 4.44312 170.526 4.44312C169.422 4.44312 168.526 3.54768 168.526 2.44312C168.526 1.33855 169.422 0.443115 170.526 0.443115C171.631 0.443115 172.526 1.33855 172.526 2.44312ZM186.526 4.44312C187.631 4.44312 188.526 3.54768 188.526 2.44312C188.526 1.33855 187.631 0.443115 186.526 0.443115C185.422 0.443115 184.526 1.33855 184.526 2.44312C184.526 3.54768 185.422 4.44312 186.526 4.44312ZM2.52637 20.4431C3.63094 20.4431 4.52637 19.5477 4.52637 18.4431C4.52637 17.3385 3.63094 16.4431 2.52637 16.4431C1.4218 16.4431 0.526367 17.3385 0.526367 18.4431C0.526367 19.5477 1.4218 20.4431 2.52637 20.4431ZM18.5264 20.4431C19.6309 20.4431 20.5264 19.5477 20.5264 18.4431C20.5264 17.3385 19.6309 16.4431 18.5264 16.4431C17.4218 16.4431 16.5264 17.3385 16.5264 18.4431C16.5264 19.5477 17.4218 20.4431 18.5264 20.4431ZM36.5264 18.4431C36.5264 19.5477 35.6309 20.4431 34.5264 20.4431C33.4218 20.4431 32.5264 19.5477 32.5264 18.4431C32.5264 17.3385 33.4218 16.4431 34.5264 16.4431C35.6309 16.4431 36.5264 17.3385 36.5264 18.4431ZM50.5264 20.4431C51.6309 20.4431 52.5264 19.5477 52.5264 18.4431C52.5264 17.3385 51.6309 16.4431 50.5264 16.4431C49.4218 16.4431 48.5264 17.3385 48.5264 18.4431C48.5264 19.5477 49.4218 20.4431 50.5264 20.4431ZM68.5264 18.4431C68.5264 19.5477 67.6309 20.4431 66.5264 20.4431C65.4218 20.4431 64.5264 19.5477 64.5264 18.4431C64.5264 17.3385 65.4218 16.4431 66.5264 16.4431C67.6309 16.4431 68.5264 17.3385 68.5264 18.4431ZM82.5264 20.4431C83.6309 20.4431 84.5264 19.5477 84.5264 18.4431C84.5264 17.3385 83.6309 16.4431 82.5264 16.4431C81.4218 16.4431 80.5264 17.3385 80.5264 18.4431C80.5264 19.5477 81.4218 20.4431 82.5264 20.4431ZM2.52637 4.44312C3.63094 4.44312 4.52637 3.54768 4.52637 2.44312C4.52637 1.33855 3.63094 0.443115 2.52637 0.443115C1.4218 0.443115 0.526367 1.33855 0.526367 2.44312C0.526367 3.54768 1.4218 4.44312 2.52637 4.44312ZM12.5264 34.4431C12.5264 35.5477 11.6309 36.4431 10.5264 36.4431C9.4218 36.4431 8.52637 35.5477 8.52637 34.4431C8.52637 33.3385 9.4218 32.4431 10.5264 32.4431C11.6309 32.4431 12.5264 33.3385 12.5264 34.4431ZM10.5264 52.4431C11.6309 52.4431 12.5264 51.5477 12.5264 50.4431C12.5264 49.3385 11.6309 48.4431 10.5264 48.4431C9.4218 48.4431 8.52637 49.3385 8.52637 50.4431C8.52637 51.5477 9.4218 52.4431 10.5264 52.4431ZM26.5264 52.4431C27.6309 52.4431 28.5264 51.5477 28.5264 50.4431C28.5264 49.3385 27.6309 48.4431 26.5264 48.4431C25.4218 48.4431 24.5264 49.3385 24.5264 50.4431C24.5264 51.5477 25.4218 52.4431 26.5264 52.4431ZM44.5264 50.4431C44.5264 51.5477 43.6309 52.4431 42.5264 52.4431C41.4218 52.4431 40.5264 51.5477 40.5264 50.4431C40.5264 49.3385 41.4218 48.4431 42.5264 48.4431C43.6309 48.4431 44.5264 49.3385 44.5264 50.4431ZM58.5264 52.4431C59.6309 52.4431 60.5264 51.5477 60.5264 50.4431C60.5264 49.3385 59.6309 48.4431 58.5264 48.4431C57.4218 48.4431 56.5264 49.3385 56.5264 50.4431C56.5264 51.5477 57.4218 52.4431 58.5264 52.4431ZM76.5264 50.4431C76.5264 51.5477 75.6309 52.4431 74.5264 52.4431C73.4218 52.4431 72.5264 51.5477 72.5264 50.4431C72.5264 49.3385 73.4218 48.4431 74.5264 48.4431C75.6309 48.4431 76.5264 49.3385 76.5264 50.4431ZM90.5264 52.4431C91.6309 52.4431 92.5264 51.5477 92.5264 50.4431C92.5264 49.3385 91.6309 48.4431 90.5264 48.4431C89.4218 48.4431 88.5264 49.3385 88.5264 50.4431C88.5264 51.5477 89.4218 52.4431 90.5264 52.4431ZM26.5264 36.4431C27.6309 36.4431 28.5264 35.5477 28.5264 34.4431C28.5264 33.3385 27.6309 32.4431 26.5264 32.4431C25.4218 32.4431 24.5264 33.3385 24.5264 34.4431C24.5264 35.5477 25.4218 36.4431 26.5264 36.4431ZM44.5264 34.4431C44.5264 35.5477 43.6309 36.4431 42.5264 36.4431C41.4218 36.4431 40.5264 35.5477 40.5264 34.4431C40.5264 33.3385 41.4218 32.4431 42.5264 32.4431C43.6309 32.4431 44.5264 33.3385 44.5264 34.4431ZM58.5264 36.4431C59.6309 36.4431 60.5264 35.5477 60.5264 34.4431C60.5264 33.3385 59.6309 32.4431 58.5264 32.4431C57.4218 32.4431 56.5264 33.3385 56.5264 34.4431C56.5264 35.5477 57.4218 36.4431 58.5264 36.4431ZM76.5264 34.4431C76.5264 35.5477 75.6309 36.4431 74.5264 36.4431C73.4218 36.4431 72.5264 35.5477 72.5264 34.4431C72.5264 33.3385 73.4218 32.4431 74.5264 32.4431C75.6309 32.4431 76.5264 33.3385 76.5264 34.4431ZM90.5264 36.4431C91.6309 36.4431 92.5264 35.5477 92.5264 34.4431C92.5264 33.3385 91.6309 32.4431 90.5264 32.4431C89.4218 32.4431 88.5264 33.3385 88.5264 34.4431C88.5264 35.5477 89.4218 36.4431 90.5264 36.4431ZM18.5264 4.44312C19.6309 4.44312 20.5264 3.54768 20.5264 2.44312C20.5264 1.33855 19.6309 0.443115 18.5264 0.443115C17.4218 0.443115 16.5264 1.33855 16.5264 2.44312C16.5264 3.54768 17.4218 4.44312 18.5264 4.44312ZM108.526 34.4431C108.526 35.5477 107.631 36.4431 106.526 36.4431C105.422 36.4431 104.526 35.5477 104.526 34.4431C104.526 33.3385 105.422 32.4431 106.526 32.4431C107.631 32.4431 108.526 33.3385 108.526 34.4431ZM106.526 52.4431C107.631 52.4431 108.526 51.5477 108.526 50.4431C108.526 49.3385 107.631 48.4431 106.526 48.4431C105.422 48.4431 104.526 49.3385 104.526 50.4431C104.526 51.5477 105.422 52.4431 106.526 52.4431ZM122.526 52.4431C123.631 52.4431 124.526 51.5477 124.526 50.4431C124.526 49.3385 123.631 48.4431 122.526 48.4431C121.422 48.4431 120.526 49.3385 120.526 50.4431C120.526 51.5477 121.422 52.4431 122.526 52.4431ZM140.526 50.4431C140.526 51.5477 139.631 52.4431 138.526 52.4431C137.422 52.4431 136.526 51.5477 136.526 50.4431C136.526 49.3385 137.422 48.4431 138.526 48.4431C139.631 48.4431 140.526 49.3385 140.526 50.4431ZM154.526 52.4431C155.631 52.4431 156.526 51.5477 156.526 50.4431C156.526 49.3385 155.631 48.4431 154.526 48.4431C153.422 48.4431 152.526 49.3385 152.526 50.4431C152.526 51.5477 153.422 52.4431 154.526 52.4431ZM172.526 50.4431C172.526 51.5477 171.631 52.4431 170.526 52.4431C169.422 52.4431 168.526 51.5477 168.526 50.4431C168.526 49.3385 169.422 48.4431 170.526 48.4431C171.631 48.4431 172.526 49.3385 172.526 50.4431ZM186.526 52.4431C187.631 52.4431 188.526 51.5477 188.526 50.4431C188.526 49.3385 187.631 48.4431 186.526 48.4431C185.422 48.4431 184.526 49.3385 184.526 50.4431C184.526 51.5477 185.422 52.4431 186.526 52.4431ZM122.526 36.4431C123.631 36.4431 124.526 35.5477 124.526 34.4431C124.526 33.3385 123.631 32.4431 122.526 32.4431C121.422 32.4431 120.526 33.3385 120.526 34.4431C120.526 35.5477 121.422 36.4431 122.526 36.4431ZM140.526 34.4431C140.526 35.5477 139.631 36.4431 138.526 36.4431C137.422 36.4431 136.526 35.5477 136.526 34.4431C136.526 33.3385 137.422 32.4431 138.526 32.4431C139.631 32.4431 140.526 33.3385 140.526 34.4431ZM154.526 36.4431C155.631 36.4431 156.526 35.5477 156.526 34.4431C156.526 33.3385 155.631 32.4431 154.526 32.4431C153.422 32.4431 152.526 33.3385 152.526 34.4431C152.526 35.5477 153.422 36.4431 154.526 36.4431ZM172.526 34.4431C172.526 35.5477 171.631 36.4431 170.526 36.4431C169.422 36.4431 168.526 35.5477 168.526 34.4431C168.526 33.3385 169.422 32.4431 170.526 32.4431C171.631 32.4431 172.526 33.3385 172.526 34.4431ZM186.526 36.4431C187.631 36.4431 188.526 35.5477 188.526 34.4431C188.526 33.3385 187.631 32.4431 186.526 32.4431C185.422 32.4431 184.526 33.3385 184.526 34.4431C184.526 35.5477 185.422 36.4431 186.526 36.4431ZM34.5264 4.44312C35.6309 4.44312 36.5264 3.54768 36.5264 2.44312C36.5264 1.33855 35.6309 0.443115 34.5264 0.443115C33.4218 0.443115 32.5264 1.33855 32.5264 2.44312C32.5264 3.54768 33.4218 4.44312 34.5264 4.44312ZM52.5264 2.44312C52.5264 3.54768 51.6309 4.44312 50.5264 4.44312C49.4218 4.44312 48.5264 3.54768 48.5264 2.44312C48.5264 1.33855 49.4218 0.443115 50.5264 0.443115C51.6309 0.443115 52.5264 1.33855 52.5264 2.44312ZM66.5264 4.44312C67.6309 4.44312 68.5264 3.54768 68.5264 2.44312C68.5264 1.33855 67.6309 0.443115 66.5264 0.443115C65.4218 0.443115 64.5264 1.33855 64.5264 2.44312C64.5264 3.54768 65.4218 4.44312 66.5264 4.44312ZM84.5264 2.44312C84.5264 3.54768 83.6309 4.44312 82.5264 4.44312C81.4218 4.44312 80.5264 3.54768 80.5264 2.44312C80.5264 1.33855 81.4218 0.443115 82.5264 0.443115C83.6309 0.443115 84.5264 1.33855 84.5264 2.44312Z" fill="#333333"/>
</svg>
