<svg width="26" height="22" viewBox="0 0 26 22" fill="none" xmlns="http://www.w3.org/2000/svg">
<g clip-path="url(#clip0)">
<path d="M18.1594 14.8191L19.6038 13.4441C19.8295 13.2292 20.2222 13.3796 20.2222 13.689V19.9366C20.2222 21.0753 19.2517 21.9991 18.0556 21.9991H2.16667C0.970486 21.9991 0 21.0753 0 19.9366V4.81163C0 3.67296 0.970486 2.74913 2.16667 2.74913H14.5122C14.8326 2.74913 14.9951 3.11867 14.7694 3.33781L13.325 4.71281C13.2573 4.77726 13.167 4.81163 13.0677 4.81163H2.16667V19.9366H18.0556V15.0597C18.0556 14.9694 18.0917 14.8835 18.1594 14.8191ZM25.2281 6.14796L13.3747 17.4316L9.2941 17.8612C8.11146 17.9859 7.10486 17.0362 7.23576 15.9019L7.68715 12.0175L19.5406 0.733899C20.5743 -0.250086 22.2444 -0.250086 23.2736 0.733899L25.2236 2.59015C26.2573 3.57413 26.2573 5.16828 25.2281 6.14796ZM20.7684 7.4757L18.1458 4.97921L9.75903 12.9671L9.42951 15.773L12.3771 15.4593L20.7684 7.4757ZM23.6934 4.05109L21.7434 2.19484C21.5583 2.01867 21.2559 2.01867 21.0753 2.19484L19.6806 3.52257L22.3031 6.01906L23.6979 4.69132C23.8785 4.51085 23.8785 4.22726 23.6934 4.05109Z" fill="white"/>
</g>
<defs>
<clipPath id="clip0">
<rect width="26" height="22" fill="white"/>
</clipPath>
</defs>
</svg>
