<svg width="19" height="15" viewBox="0 0 19 15" fill="none" xmlns="http://www.w3.org/2000/svg">
<path d="M11.8428 9.41049L12.6206 8.72309C12.7421 8.61568 12.9536 8.69087 12.9536 8.84553V11.9689C12.9536 12.5382 12.431 13 11.7869 13H3.23115C2.58703 13 2.06445 12.5382 2.06445 11.9689V4.40751C2.06445 3.83826 2.58703 3.37641 3.23115 3.37641H9.87886C10.0514 3.37641 10.1389 3.56115 10.0174 3.6707L9.23961 4.3581C9.20315 4.39032 9.15454 4.40751 9.10106 4.40751H3.23115V11.9689H11.7869V9.53078C11.7869 9.48567 11.8063 9.44271 11.8428 9.41049ZM15.6491 5.07557L9.26634 10.7165L7.06908 10.9314C6.43226 10.9937 5.89023 10.5189 5.96072 9.95181L6.20378 8.00991L12.5866 2.36894C13.1432 1.87702 14.0425 1.87702 14.5967 2.36894L15.6467 3.29693C16.2033 3.78885 16.2033 4.5858 15.6491 5.07557ZM13.2477 5.73934L11.8355 4.49129L7.31943 8.48465L7.14199 9.88737L8.72918 9.73056L13.2477 5.73934ZM14.8227 4.02729L13.7727 3.0993C13.673 3.01123 13.5102 3.01123 13.413 3.0993L12.6619 3.76307L14.0741 5.01113L14.8251 4.34736C14.9224 4.25714 14.9224 4.11536 14.8227 4.02729Z" fill="#34B194" fill-opacity="0.9"/>
</svg>
