<svg width="80" height="80" viewBox="0 0 80 80" fill="none" xmlns="http://www.w3.org/2000/svg">
<circle cx="40" cy="40" r="40" fill="#0090D0" fill-opacity="0.19"/>
<g clip-path="url(#clip0)">
<path d="M40 26.3438C40.1575 26.3438 40.3085 26.2812 40.4198 26.1698C40.5312 26.0585 40.5938 25.9075 40.5938 25.75V21.5938C40.5938 21.4363 40.5312 21.2853 40.4198 21.1739C40.3085 21.0626 40.1575 21 40 21C39.8425 21 39.6915 21.0626 39.5802 21.1739C39.4688 21.2853 39.4062 21.4363 39.4062 21.5938V25.75C39.4062 25.9075 39.4688 26.0585 39.5802 26.1698C39.6915 26.2812 39.8425 26.3438 40 26.3438Z" fill="#078CC8"/>
<path d="M34.5687 26.8128C34.6104 26.9273 34.6863 27.0262 34.7861 27.0962C34.886 27.1661 35.0049 27.2036 35.1268 27.2036C35.1961 27.2036 35.2648 27.1913 35.3297 27.1673C35.4031 27.1407 35.4704 27.0999 35.5279 27.0472C35.5855 26.9946 35.632 26.9311 35.665 26.8604C35.6979 26.7897 35.7166 26.7132 35.72 26.6353C35.7234 26.5574 35.7113 26.4796 35.6846 26.4063L34.9734 24.4535C34.9177 24.308 34.8071 24.1902 34.6653 24.1255C34.5235 24.0609 34.3621 24.0546 34.2157 24.1079C34.0693 24.1612 33.9497 24.27 33.8828 24.4107C33.8159 24.5513 33.8069 24.7127 33.8578 24.8599L34.5687 26.8128Z" fill="#078CC8"/>
<path d="M25.5626 32.3502L27.3624 33.3893C27.4988 33.468 27.6609 33.4893 27.813 33.4486C27.9651 33.4078 28.0948 33.3082 28.1735 33.1718C28.2523 33.0354 28.2736 32.8733 28.2328 32.7212C28.1921 32.5691 28.0925 32.4394 27.9561 32.3607L26.1563 31.3216C26.0888 31.2826 26.0142 31.2573 25.9369 31.2471C25.8596 31.237 25.781 31.2421 25.7057 31.2623C25.6304 31.2825 25.5598 31.3173 25.4979 31.3648C25.4361 31.4123 25.3841 31.4715 25.3452 31.539C25.3062 31.6066 25.2809 31.6811 25.2707 31.7584C25.2605 31.8358 25.2657 31.9143 25.2859 31.9897C25.3061 32.065 25.3409 32.1356 25.3884 32.1975C25.4359 32.2593 25.4951 32.3112 25.5626 32.3502Z" fill="#078CC8"/>
<path d="M23.9198 43.4292C23.9546 43.4292 23.9893 43.4262 24.0236 43.4202L26.0698 43.0592C26.2249 43.0319 26.3628 42.944 26.4531 42.8149C26.5435 42.6859 26.5788 42.5263 26.5514 42.3712C26.5241 42.216 26.4362 42.0782 26.3072 41.9878C26.1781 41.8975 26.0185 41.8622 25.8634 41.8895L23.8171 42.2505C23.6708 42.2762 23.5395 42.3558 23.449 42.4736C23.3586 42.5914 23.3155 42.7388 23.3284 42.8868C23.3413 43.0348 23.4092 43.1725 23.5187 43.2729C23.6281 43.3733 23.7713 43.429 23.9198 43.429V43.4292Z" fill="#078CC8"/>
<path d="M30.3856 50.5344L29.0497 52.1261C28.998 52.1856 28.9587 52.2548 28.9341 52.3296C28.9094 52.4044 28.8999 52.4834 28.9061 52.562C28.9123 52.6405 28.9341 52.7171 28.9701 52.7871C29.0062 52.8572 29.0559 52.9193 29.1162 52.97C29.1765 53.0207 29.2463 53.0588 29.3216 53.0822C29.3968 53.1057 29.4759 53.1139 29.5544 53.1064C29.6328 53.0989 29.709 53.0759 29.7784 53.0387C29.8479 53.0015 29.9092 52.9509 29.9589 52.8897L31.2948 51.2981C31.3465 51.2386 31.3858 51.1694 31.4104 51.0945C31.4351 51.0197 31.4446 50.9407 31.4384 50.8622C31.4322 50.7836 31.4104 50.7071 31.3744 50.637C31.3383 50.567 31.2887 50.5048 31.2283 50.4541C31.168 50.4035 31.0982 50.3653 31.0229 50.3419C30.9477 50.3185 30.8686 50.3103 30.7901 50.3177C30.7117 50.3252 30.6356 50.3482 30.5661 50.3854C30.4967 50.4226 30.4353 50.4733 30.3856 50.5344Z" fill="#078CC8"/>
<path d="M30.3856 29.4656C30.4353 29.5267 30.4966 29.5774 30.5661 29.6146C30.6356 29.6518 30.7117 29.6748 30.7901 29.6822C30.8686 29.6897 30.9477 29.6815 31.0229 29.6581C31.0982 29.6347 31.168 29.5965 31.2283 29.5458C31.2887 29.4952 31.3383 29.433 31.3744 29.3629C31.4104 29.2929 31.4322 29.2164 31.4384 29.1378C31.4446 29.0593 31.4351 28.9803 31.4104 28.9055C31.3858 28.8306 31.3465 28.7614 31.2948 28.7019L28.623 25.5181C28.5733 25.4569 28.5119 25.4063 28.4425 25.3691C28.373 25.3319 28.2969 25.3089 28.2184 25.3014C28.14 25.2939 28.0608 25.3021 27.9856 25.3255C27.9104 25.349 27.8406 25.3871 27.7802 25.4378C27.7199 25.4885 27.6703 25.5506 27.6342 25.6207C27.5981 25.6907 27.5764 25.7673 27.5702 25.8458C27.564 25.9244 27.5735 26.0033 27.5982 26.0782C27.6228 26.153 27.6621 26.2222 27.7137 26.2817L30.3856 29.4656Z" fill="#078CC8"/>
<path d="M25.9668 38.1194C26.1153 38.1193 26.2583 38.0636 26.3677 37.9632C26.4771 37.8628 26.5449 37.7251 26.5578 37.5772C26.5707 37.4293 26.5277 37.2819 26.4373 37.1641C26.3469 37.0464 26.2157 36.9667 26.0694 36.9409L21.9764 36.219C21.8213 36.1916 21.6616 36.227 21.5326 36.3173C21.4036 36.4077 21.3157 36.5455 21.2883 36.7006C21.261 36.8558 21.2963 37.0154 21.3867 37.1444C21.477 37.2734 21.6149 37.3613 21.77 37.3887L25.8628 38.1104C25.8971 38.1164 25.9319 38.1194 25.9668 38.1194Z" fill="#078CC8"/>
<path d="M27.3624 46.6107L23.7628 48.6888C23.6264 48.7675 23.5268 48.8972 23.4861 49.0493C23.4453 49.2015 23.4666 49.3636 23.5454 49.5C23.6241 49.6364 23.7538 49.7359 23.9059 49.7767C24.058 49.8175 24.2201 49.7961 24.3565 49.7174L27.9561 47.6393C28.0237 47.6003 28.0829 47.5484 28.1304 47.4865C28.1778 47.4247 28.2127 47.354 28.2329 47.2787C28.2531 47.2034 28.2582 47.1248 28.248 47.0475C28.2379 46.9702 28.2126 46.8956 28.1736 46.8281C28.1346 46.7606 28.0827 46.7014 28.0208 46.6539C27.959 46.6064 27.8883 46.5716 27.813 46.5514C27.7377 46.5312 27.6591 46.526 27.5818 46.5362C27.5045 46.5464 27.4299 46.5717 27.3624 46.6107Z" fill="#078CC8"/>
<path d="M44.6706 27.1671C44.7356 27.1911 44.8043 27.2033 44.8735 27.2034C44.9954 27.2033 45.1143 27.1658 45.2142 27.0959C45.314 27.026 45.39 26.9271 45.4317 26.8125L46.1422 24.8599C46.1931 24.7127 46.1842 24.5513 46.1172 24.4107C46.0503 24.27 45.9307 24.1612 45.7844 24.1079C45.638 24.0546 45.4765 24.0609 45.3347 24.1255C45.193 24.1902 45.0823 24.308 45.0266 24.4535L44.3158 26.4061C44.289 26.4793 44.277 26.5571 44.2803 26.6351C44.2837 26.713 44.3024 26.7895 44.3353 26.8602C44.3683 26.9308 44.4149 26.9943 44.4724 27.047C44.5299 27.0997 44.5973 27.1405 44.6706 27.1671Z" fill="#078CC8"/>
<path d="M51.8266 33.1718C51.9054 33.3082 52.0351 33.4077 52.1872 33.4484C52.3393 33.4892 52.5014 33.4679 52.6378 33.3893L54.4376 32.3502C54.5051 32.3112 54.5643 32.2593 54.6118 32.1975C54.6593 32.1356 54.6941 32.065 54.7143 31.9897C54.7345 31.9143 54.7396 31.8358 54.7295 31.7584C54.7193 31.6811 54.694 31.6066 54.655 31.539C54.616 31.4715 54.5641 31.4123 54.5023 31.3648C54.4404 31.3173 54.3698 31.2825 54.2945 31.2623C54.2191 31.2421 54.1406 31.237 54.0633 31.2471C53.9859 31.2573 53.9114 31.2826 53.8438 31.3216L52.0441 32.3607C51.9765 32.3996 51.9173 32.4515 51.8698 32.5134C51.8223 32.5753 51.7875 32.6459 51.7673 32.7212C51.7471 32.7965 51.742 32.8751 51.7521 32.9524C51.7623 33.0297 51.7876 33.1043 51.8266 33.1718Z" fill="#078CC8"/>
<path d="M56.183 42.2506L54.137 41.8897C53.9819 41.8623 53.8223 41.8976 53.6933 41.988C53.5642 42.0783 53.4764 42.2162 53.449 42.3713C53.4216 42.5264 53.457 42.686 53.5473 42.8151C53.6376 42.9441 53.7755 43.032 53.9306 43.0593L55.9768 43.4204C56.0111 43.4263 56.0458 43.4293 56.0806 43.4293C56.2292 43.4293 56.3723 43.3736 56.4817 43.2732C56.5912 43.1728 56.6591 43.0351 56.672 42.8871C56.6849 42.7391 56.6418 42.5917 56.5514 42.4739C56.4609 42.3561 56.3296 42.2765 56.1833 42.2508L56.183 42.2506Z" fill="#078CC8"/>
<path d="M49.6142 50.5344C49.5645 50.4733 49.5031 50.4226 49.4337 50.3854C49.3642 50.3482 49.2881 50.3252 49.2096 50.3177C49.1312 50.3103 49.0521 50.3185 48.9768 50.3419C48.9016 50.3653 48.8318 50.4035 48.7715 50.4541C48.7111 50.5048 48.6615 50.567 48.6254 50.637C48.5894 50.7071 48.5676 50.7836 48.5614 50.8622C48.5552 50.9407 48.5647 51.0197 48.5894 51.0945C48.614 51.1694 48.6533 51.2386 48.705 51.2981L50.0409 52.8897C50.143 53.0074 50.2873 53.0802 50.4426 53.0924C50.5979 53.1046 50.7518 53.0553 50.8711 52.9551C50.9904 52.855 51.0656 52.7119 51.0803 52.5568C51.0951 52.4017 51.0483 52.247 50.9501 52.1261L49.6142 50.5344Z" fill="#078CC8"/>
<path d="M49.159 29.6775C49.2457 29.6777 49.3315 29.6588 49.4101 29.6222C49.4888 29.5856 49.5584 29.5321 49.6141 29.4656L52.286 26.2817C52.3377 26.2222 52.377 26.153 52.4016 26.0782C52.4263 26.0033 52.4358 25.9244 52.4296 25.8458C52.4234 25.7673 52.4016 25.6907 52.3656 25.6207C52.3295 25.5506 52.2798 25.4885 52.2195 25.4378C52.1592 25.3871 52.0894 25.349 52.0141 25.3255C51.9389 25.3021 51.8598 25.2939 51.7813 25.3014C51.7029 25.3089 51.6267 25.3319 51.5573 25.3691C51.4878 25.4063 51.4265 25.4569 51.3768 25.5181L48.7049 28.7019C48.6323 28.7885 48.5858 28.8939 48.571 29.0059C48.5562 29.1179 48.5737 29.2318 48.6214 29.3343C48.669 29.4367 48.7449 29.5234 48.8402 29.5842C48.9354 29.645 49.046 29.6773 49.159 29.6775Z" fill="#078CC8"/>
<path d="M58.0232 36.2189L53.9301 36.9408C53.7839 36.9666 53.6526 37.0462 53.5622 37.164C53.4718 37.2818 53.4288 37.4291 53.4417 37.5771C53.4546 37.725 53.5224 37.8627 53.6318 37.9631C53.7412 38.0634 53.8843 38.1192 54.0327 38.1193C54.0675 38.1193 54.1022 38.1163 54.1365 38.1103L58.2295 37.3884C58.3846 37.3611 58.5225 37.2732 58.6129 37.1442C58.7032 37.0151 58.7386 36.8555 58.7112 36.7004C58.6838 36.5453 58.596 36.4074 58.4669 36.3171C58.3379 36.2268 58.1783 36.1914 58.0232 36.2188V36.2189Z" fill="#078CC8"/>
<path d="M56.2369 48.6888L52.6373 46.6107C52.5698 46.5717 52.4952 46.5464 52.4179 46.5362C52.3406 46.526 52.262 46.5312 52.1867 46.5514C52.1113 46.5716 52.0407 46.6064 51.9789 46.6539C51.917 46.7014 51.8651 46.7606 51.8261 46.8281C51.7871 46.8956 51.7618 46.9702 51.7517 47.0475C51.7415 47.1248 51.7466 47.2034 51.7668 47.2787C51.787 47.354 51.8218 47.4247 51.8693 47.4865C51.9168 47.5484 51.976 47.6003 52.0435 47.6393L55.6431 49.7174C55.7796 49.7961 55.9416 49.8175 56.0938 49.7767C56.2459 49.7359 56.3756 49.6364 56.4543 49.5C56.5331 49.3636 56.5544 49.2015 56.5136 49.0493C56.4728 48.8972 56.3733 48.7675 56.2369 48.6888Z" fill="#078CC8"/>
<path d="M40.0001 27.5312C36.8517 27.5348 33.8333 28.7871 31.6071 31.0133C29.3809 33.2395 28.1286 36.2579 28.1251 39.4063C28.1201 40.9993 28.4391 42.5767 29.0626 44.0427C29.686 45.5087 30.601 46.8327 31.7519 47.9342C32.2887 48.4375 32.7177 49.0447 33.0128 49.7188C33.308 50.393 33.4631 51.12 33.4688 51.8559V54.8438C33.4688 55.0012 33.5314 55.1523 33.6427 55.2636C33.7541 55.375 33.9051 55.4375 34.0626 55.4375H35.8913C36.033 56.4262 36.5265 57.3307 37.2812 57.985C38.0359 58.6392 39.0012 58.9994 40.0001 58.9994C40.9989 58.9994 41.9642 58.6392 42.7189 57.985C43.4736 57.3307 43.9671 56.4262 44.1088 55.4375H45.9376C46.095 55.4375 46.2461 55.375 46.3574 55.2636C46.4688 55.1523 46.5313 55.0012 46.5313 54.8438V51.8559C46.537 51.12 46.6922 50.393 46.9873 49.7188C47.2824 49.0447 47.7114 48.4375 48.2482 47.9342C49.3991 46.8327 50.3141 45.5087 50.9376 44.0427C51.561 42.5767 51.88 40.9993 51.8751 39.4063C51.8715 36.2579 50.6193 33.2395 48.393 31.0133C46.1668 28.7871 43.1484 27.5348 40.0001 27.5312ZM40.0001 57.8125C39.316 57.8116 38.6531 57.5749 38.1232 57.1423C37.5933 56.7097 37.2288 56.1076 37.091 55.4375H42.9091C42.7713 56.1076 42.4068 56.7097 41.8769 57.1423C41.347 57.5749 40.6841 57.8116 40.0001 57.8125ZM34.6563 54.25V52.4688H45.3438V54.25H34.6563ZM37.6251 42.9688H36.1407C35.8471 42.9688 35.5601 42.8817 35.316 42.7186C35.0719 42.5555 34.8816 42.3237 34.7693 42.0524C34.6569 41.7812 34.6276 41.4827 34.6848 41.1948C34.7421 40.9069 34.8835 40.6424 35.0911 40.4348C35.2987 40.2272 35.5632 40.0858 35.8511 40.0285C36.139 39.9713 36.4375 40.0006 36.7087 40.113C36.98 40.2253 37.2118 40.4156 37.3749 40.6597C37.538 40.9038 37.6251 41.1908 37.6251 41.4844V42.9688ZM41.1876 51.2813H38.8126V44.1563H41.1876V51.2813ZM47.4237 47.0795C46.2542 48.1857 45.5257 49.6787 45.3735 51.2813H42.3751V44.1563H43.8594C44.3879 44.1563 44.9045 43.9995 45.3438 43.706C45.7832 43.4124 46.1257 42.9951 46.3279 42.5069C46.5302 42.0186 46.5831 41.4814 46.48 40.9631C46.3769 40.4448 46.1224 39.9687 45.7487 39.5951C45.3751 39.2214 44.899 38.9669 44.3807 38.8638C43.8624 38.7607 43.3252 38.8137 42.8369 39.0159C42.3487 39.2181 41.9314 39.5606 41.6378 40C41.3443 40.4394 41.1876 40.9559 41.1876 41.4844V42.9688H38.8126V41.4844C38.8126 40.9559 38.6559 40.4394 38.3623 40C38.0687 39.5606 37.6514 39.2181 37.1632 39.0159C36.6749 38.8137 36.1377 38.7607 35.6194 38.8638C35.1011 38.9669 34.625 39.2214 34.2514 39.5951C33.8777 39.9687 33.6232 40.4448 33.5201 40.9631C33.4171 41.4814 33.47 42.0186 33.6722 42.5069C33.8744 42.9951 34.2169 43.4124 34.6563 43.706C35.0957 43.9995 35.6122 44.1563 36.1407 44.1563H37.6251V51.2813H34.6266C34.4744 49.6787 33.746 48.1857 32.5765 47.0795C31.5408 46.0884 30.7175 44.8972 30.1564 43.5781C29.5953 42.259 29.3082 40.8397 29.3126 39.4063C29.3126 36.5718 30.4386 33.8533 32.4429 31.849C34.4471 29.8448 37.1656 28.7188 40.0001 28.7188C42.8346 28.7188 45.553 29.8448 47.5573 31.849C49.5616 33.8533 50.6876 36.5718 50.6876 39.4063C50.6919 40.8397 50.4048 42.259 49.8437 43.5781C49.2827 44.8972 48.4593 46.0884 47.4237 47.0795ZM42.3751 42.9688V41.4844C42.3751 41.1908 42.4621 40.9038 42.6252 40.6597C42.7883 40.4156 43.0202 40.2253 43.2914 40.113C43.5626 40.0006 43.8611 39.9713 44.149 40.0285C44.437 40.0858 44.7015 40.2272 44.909 40.4348C45.1166 40.6424 45.258 40.9069 45.3153 41.1948C45.3726 41.4827 45.3432 41.7812 45.2308 42.0524C45.1185 42.3237 44.9282 42.5555 44.6841 42.7186C44.44 42.8817 44.153 42.9688 43.8594 42.9688H42.3751Z" fill="#078CC8"/>
<path d="M49.1312 36.7819C48.555 34.8039 47.3543 33.0655 45.7085 31.8263C44.0627 30.587 42.0602 29.9135 40 29.9062C39.8425 29.9062 39.6915 29.9688 39.5802 30.0802C39.4688 30.1915 39.4062 30.3425 39.4062 30.5C39.4062 30.6575 39.4688 30.8085 39.5802 30.9198C39.6915 31.0312 39.8425 31.0937 40 31.0937C41.8027 31.1001 43.555 31.6894 44.9951 32.7738C46.4352 33.8582 47.4858 35.3793 47.9901 37.1101C48.0354 37.2594 48.1375 37.3849 48.2746 37.4594C48.4116 37.5339 48.5725 37.5516 48.7224 37.5085C48.8723 37.4653 48.9993 37.365 49.0758 37.229C49.1523 37.0931 49.1722 36.9325 49.1312 36.7819V36.7819Z" fill="#078CC8"/>
</g>
<defs>
<clipPath id="clip0">
<rect width="38" height="38" fill="white" transform="translate(21 21)"/>
</clipPath>
</defs>
</svg>
