<svg width="79" height="73" viewBox="0 0 79 73" fill="none" xmlns="http://www.w3.org/2000/svg">
<path d="M2.20311 36.4956H34.5388C35.2829 36.4956 35.8856 37.1076 35.8856 37.8622V70.6599C35.8856 71.4146 35.2829 72.0265 34.5388 72.0265H2.20311C1.45906 72.0265 0.855713 71.4146 0.855713 70.6599V37.8622C0.855713 37.1076 1.45906 36.4956 2.20311 36.4956Z" fill="#EFB868"/>
<path d="M57.4428 10.5312V26.9298C54.9412 26.9279 52.5409 27.9354 50.772 29.7296C49.0031 31.5243 48.0098 33.9583 48.0116 36.4957H31.8441C31.8459 33.9583 30.8526 31.5243 29.0837 29.7296C27.3148 27.9354 24.9145 26.9279 22.4129 26.9298V10.5312C24.9145 10.533 27.3148 9.5256 29.0837 7.73143C30.8526 5.93726 31.8459 3.50269 31.8441 0.965332H48.0116C48.0098 3.50269 49.0031 5.93726 50.772 7.73143C52.5409 9.5256 54.9412 10.533 57.4428 10.5312Z" fill="#E66E81"/>
<path d="M45.3169 36.4956H77.6526C78.3966 36.4956 79 37.1076 79 37.8622V70.6599C79 71.4146 78.3966 72.0265 77.6526 72.0265H45.3169C44.5728 72.0265 43.9701 71.4146 43.9701 70.6599V37.8622C43.9701 37.1076 44.5728 36.4956 45.3169 36.4956Z" fill="#7C59E0"/>
<path d="M10.2869 36.4956C10.2887 39.0336 9.29542 41.4675 7.52651 43.2623C5.75761 45.0565 3.35734 46.0639 0.855713 46.0615V37.8622C0.858098 37.1088 1.45966 36.498 2.20311 36.4956H10.2869Z" fill="#E29526"/>
<path d="M35.8854 37.8622V46.0615C33.3838 46.0639 30.9841 45.0565 29.2146 43.2623C27.4457 41.4675 26.4525 39.0336 26.4543 36.4956H34.5386C35.2815 36.498 35.8836 37.1088 35.8854 37.8622Z" fill="#E29526"/>
<path d="M10.2869 72.0266H2.20311C1.45966 72.0242 0.858098 71.414 0.855713 70.6599V62.4607C3.35734 62.4589 5.75761 63.4657 7.52651 65.2605C9.29542 67.0547 10.2887 69.4886 10.2869 72.0266Z" fill="#E29526"/>
<path d="M35.8854 62.4607V70.6599C35.8836 71.414 35.2815 72.0242 34.5386 72.0266H26.4543C26.4525 69.4886 27.4457 67.0547 29.2146 65.2605C30.9841 63.4657 33.3838 62.4589 35.8854 62.4607Z" fill="#E29526"/>
<path d="M19.0443 62.4607H14.3291C13.585 62.4607 12.9817 61.8487 12.9817 61.094V47.4282C12.9817 46.6735 13.585 46.0615 14.3291 46.0615H17.6969C19.4629 46.0603 21.0809 47.0605 21.89 48.6521C22.6984 50.2443 22.5625 52.1612 21.537 53.6186C23.3238 54.747 24.1573 56.9403 23.5784 58.9932C22.9995 61.0462 21.1495 62.4607 19.0443 62.4607ZM15.6759 59.7274H19.0443C20.1604 59.7274 21.0654 58.8094 21.0654 57.6774C21.0654 56.5454 20.1604 55.6274 19.0443 55.6274H15.6759V59.7274ZM15.6759 52.8947H17.6969C18.813 52.8947 19.718 51.9768 19.718 50.8448C19.718 49.7128 18.813 48.7948 17.6969 48.7948H15.6759V52.8947Z" fill="#E66E81"/>
<path d="M31.8441 0.965332C31.8459 3.50269 30.8526 5.93725 29.0837 7.73143C27.3148 9.5256 24.9145 10.533 22.4129 10.5312V2.33198C22.4147 1.5779 23.0168 0.967751 23.7603 0.965332H31.8441Z" fill="#D24661"/>
<path d="M57.4426 2.33198V10.5312C54.941 10.533 52.5407 9.5256 50.7718 7.73143C49.0029 5.93725 48.0096 3.50269 48.0114 0.965332H56.0952C56.8387 0.967751 57.4408 1.5779 57.4426 2.33198Z" fill="#D24661"/>
<path d="M31.8441 36.4956H23.7603C23.0168 36.4938 22.4147 35.883 22.4129 35.1296V26.9297C24.9145 26.9279 27.3148 27.9353 29.0837 29.7295C30.8526 31.5243 31.8459 33.9582 31.8441 36.4956Z" fill="#D24661"/>
<path d="M57.4426 26.9297V35.1296C57.4408 35.883 56.8387 36.4938 56.0952 36.4956H48.0114C48.0096 33.9582 49.0029 31.5243 50.7718 29.7295C52.5407 27.9353 54.941 26.9279 57.4426 26.9297Z" fill="#D24661"/>
<path d="M53.4013 36.4956C53.4031 39.0336 52.4098 41.4675 50.6409 43.2623C48.8714 45.0565 46.4717 46.0639 43.9701 46.0615V37.8622C43.9719 37.1088 44.574 36.498 45.3169 36.4956H53.4013Z" fill="#6D40EC"/>
<path d="M78.9998 37.8622V46.0615C76.4982 46.0639 74.0979 45.0565 72.329 43.2623C70.5601 41.4675 69.5668 39.0336 69.5686 36.4956H77.6524C78.3958 36.498 78.9974 37.1088 78.9998 37.8622Z" fill="#6D40EC"/>
<path d="M53.4013 72.0266H45.3169C44.574 72.0242 43.9719 71.414 43.9701 70.6599V62.4607C46.4717 62.4589 48.8714 63.4657 50.6409 65.2605C52.4098 67.0547 53.4031 69.4886 53.4013 72.0266Z" fill="#6D40EC"/>
<path d="M78.9998 62.4607V70.6599C78.9974 71.414 78.3958 72.0242 77.6524 72.0266H69.5686C69.5668 69.4886 70.5601 67.0547 72.329 65.2605C74.0979 63.4657 76.4982 62.4589 78.9998 62.4607Z" fill="#6D40EC"/>
<path d="M65.5264 62.4606H62.8322C59.1131 62.4558 56.1 59.3996 56.0952 55.6274V52.8947C56.1 49.1226 59.1131 46.0664 62.8322 46.0615H65.5264C66.2704 46.0615 66.8738 46.6735 66.8738 47.4282C66.8738 48.1828 66.2704 48.7948 65.5264 48.7948H62.8322C60.6006 48.7972 58.7924 50.6313 58.79 52.8947V55.6274C58.7924 57.8909 60.6006 59.7249 62.8322 59.7274H65.5264C66.2704 59.7274 66.8738 60.3393 66.8738 61.094C66.8738 61.8487 66.2704 62.4606 65.5264 62.4606Z" fill="#EFB868"/>
<path d="M43.968 26.9309C43.361 26.9297 42.8292 26.5173 42.6695 25.9229L39.9276 15.725L37.1857 25.9229C36.9895 26.6515 36.2491 27.0809 35.5307 26.8819C34.8128 26.6836 34.3895 25.9319 34.5851 25.2039L38.6273 10.1714C38.7865 9.57635 39.3195 9.16333 39.9276 9.16333C40.5351 9.16333 41.0681 9.57635 41.2273 10.1714L45.2695 25.2039C45.3792 25.6151 45.2939 26.0541 45.0387 26.3927C44.7842 26.7314 44.3883 26.9303 43.968 26.9309Z" fill="#EFB868"/>
<path d="M42.8645 22.8305H36.9908C36.2462 22.8305 35.6434 22.2185 35.6434 21.4638C35.6434 20.7091 36.2462 20.0972 36.9908 20.0972H42.8645C43.6092 20.0972 44.2119 20.7091 44.2119 21.4638C44.2119 22.2185 43.6092 22.8305 42.8645 22.8305Z" fill="#EFB868"/>
</svg>
