<svg width="55" height="74" viewBox="0 0 55 74" fill="none" xmlns="http://www.w3.org/2000/svg">
<path d="M49.3344 29.7194C48.6601 29.7194 48.1138 29.1653 48.1138 28.4814V24.7662C48.1045 16.5634 41.5504 9.91573 33.4631 9.90626H21.2547C13.1668 9.91573 6.61332 16.5634 6.60398 24.7662V28.4814C6.60398 29.1653 6.05717 29.7194 5.38286 29.7194C4.70855 29.7194 4.16229 29.1653 4.16229 28.4814V24.7662C4.17273 15.1961 11.8187 7.44084 21.2547 7.42969H33.4631C42.8985 7.44084 50.545 15.1961 50.5555 24.7662V28.4814C50.5555 29.1653 50.0087 29.7194 49.3344 29.7194Z" fill="#E57E25"/>
<path d="M27.3588 9.90628H18.8126C16.1159 9.90628 13.9292 7.68891 13.9292 4.95314C13.9292 2.21793 16.1159 0 18.8126 0C24.3868 0 28.2875 7.78311 28.4507 8.11421C28.6403 8.49827 28.62 8.95423 28.3974 9.31933C28.1749 9.68444 27.7819 9.90684 27.3588 9.90628ZM18.8126 2.47657C17.4645 2.47657 16.3709 3.58526 16.3709 4.95314C16.3709 6.32103 17.4645 7.42971 18.8126 7.42971H25.2199C23.7883 5.26027 21.3642 2.47657 18.8126 2.47657Z" fill="#F18D46"/>
<path d="M35.9049 9.90628H27.3587C26.9356 9.90684 26.5426 9.68444 26.32 9.31933C26.0975 8.95423 26.0777 8.49827 26.2667 8.11421C26.43 7.78311 30.3313 0 35.9049 0C38.6021 0 40.7883 2.21793 40.7883 4.95314C40.7883 7.68891 38.6021 9.90628 35.9049 9.90628ZM29.4943 7.42971H35.9049C37.2535 7.42971 38.3466 6.32103 38.3466 4.95314C38.3466 3.58526 37.2535 2.47657 35.9049 2.47657C33.344 2.47657 30.9226 5.26083 29.4943 7.42971Z" fill="#F18D46"/>
<path d="M18.8126 19.8131C18.1383 19.8131 17.592 19.2584 17.592 18.5745C17.592 17.8906 18.1383 17.3365 18.8126 17.3365C23.824 17.3365 26.1525 8.45752 26.1745 8.36778C26.2756 7.933 26.5993 7.58685 27.0219 7.46255C27.4451 7.33769 27.9012 7.45307 28.2161 7.76522C28.531 8.07737 28.6563 8.53723 28.5431 8.96867C28.4343 9.41125 25.7898 19.8131 18.8126 19.8131Z" fill="#F18D46"/>
<path d="M35.9047 19.8133C28.9275 19.8133 26.283 9.4115 26.1742 8.96892C26.017 8.30839 26.4144 7.64228 27.0645 7.47729C27.7146 7.3123 28.3747 7.70917 28.5428 8.36747C28.5653 8.45666 30.8295 17.3368 35.9047 17.3368C36.579 17.3368 37.1258 17.8908 37.1258 18.5748C37.1258 19.2587 36.579 19.8133 35.9047 19.8133Z" fill="#F18D46"/>
<path d="M2.94114 28.4814H51.776C53.1246 28.4814 54.2183 29.5901 54.2183 30.958V45.818C54.2183 53.0431 51.388 59.9723 46.3513 65.0815C41.3141 70.1907 34.4825 73.0608 27.3586 73.0608C12.5249 73.0608 0.499451 60.8636 0.499451 45.818V30.958C0.499451 29.5901 1.59252 28.4814 2.94114 28.4814Z" fill="#EFB868"/>
<path d="M27.3586 43.8096L27.5663 43.5927C28.4709 42.6407 29.7179 42.1028 31.0214 42.1028C32.325 42.1028 33.5719 42.6407 34.4765 43.5927C36.3813 45.6072 36.3813 48.7867 34.4765 50.8012L34.2567 51.0308L27.5663 58.0101C27.5037 58.0804 27.4339 58.1445 27.3586 58.2008C27.2833 58.1445 27.2141 58.0804 27.1514 58.0101L20.4605 51.0308L20.2413 50.8017C18.3365 48.7872 18.3365 45.6078 20.2413 43.5933C21.1453 42.6412 22.3928 42.1033 23.6963 42.1033C24.9993 42.1033 26.2468 42.6412 27.1514 43.5933L27.3586 43.8096Z" fill="#FF4E70"/>
<path d="M54.2184 30.958V45.818C54.2184 53.0431 51.3882 59.9723 46.3515 65.0815C41.3142 70.1907 34.4826 73.0608 27.3587 73.0608V58.2008C27.434 58.1462 27.5032 58.0838 27.5664 58.0152L34.2568 51.0309L34.4766 50.7957C36.3814 48.7817 36.3814 45.6028 34.4766 43.5889C33.5709 42.6391 32.324 42.1029 31.0215 42.1029C29.7191 42.1029 28.4721 42.6391 27.5664 43.5889L27.3587 43.8119V28.4814H51.7762C53.1231 28.4853 54.214 29.5918 54.2184 30.958Z" fill="#E29526"/>
<path d="M34.4766 50.7956L34.2568 51.0308L27.5664 58.0152C27.5032 58.0837 27.434 58.1462 27.3587 58.2008V43.8118L27.5664 43.5888C28.4721 42.639 29.7191 42.1028 31.0215 42.1028C32.324 42.1028 33.5709 42.639 34.4766 43.5888C36.3814 45.6028 36.3814 48.7817 34.4766 50.7956Z" fill="#D24661"/>
<path d="M5.38292 35.9114C4.70861 35.9114 4.16235 35.3573 4.16235 34.6733V33.4348C4.16235 32.7508 4.70861 32.1968 5.38292 32.1968H6.60404C7.27835 32.1968 7.82461 32.7508 7.82461 33.4348C7.82461 34.1187 7.27835 34.6733 6.60404 34.6733C6.60404 35.3573 6.05723 35.9114 5.38292 35.9114Z" fill="#E57E25"/>
<path d="M43.2305 34.6731H40.7882C40.1145 34.6731 39.5677 34.1185 39.5677 33.4345C39.5677 32.7506 40.1145 32.1965 40.7882 32.1965H43.2305C43.9048 32.1965 44.4511 32.7506 44.4511 33.4345C44.4511 34.1185 43.9048 34.6731 43.2305 34.6731ZM35.9049 34.6731H33.4632C32.7889 34.6731 32.2426 34.1185 32.2426 33.4345C32.2426 32.7506 32.7889 32.1965 33.4632 32.1965H35.9049C36.5792 32.1965 37.126 32.7506 37.126 33.4345C37.126 34.1185 36.5792 34.6731 35.9049 34.6731ZM28.5798 34.6731H26.1381C25.4638 34.6731 24.917 34.1185 24.917 33.4345C24.917 32.7506 25.4638 32.1965 26.1381 32.1965H28.5798C29.2541 32.1965 29.8004 32.7506 29.8004 33.4345C29.8004 34.1185 29.2541 34.6731 28.5798 34.6731ZM21.2547 34.6731H18.8125C18.1382 34.6731 17.5919 34.1185 17.5919 33.4345C17.5919 32.7506 18.1382 32.1965 18.8125 32.1965H21.2547C21.9285 32.1965 22.4753 32.7506 22.4753 33.4345C22.4753 34.1185 21.9285 34.6731 21.2547 34.6731ZM13.9291 34.6731H11.4874C10.8131 34.6731 10.2663 34.1185 10.2663 33.4345C10.2663 32.7506 10.8131 32.1965 11.4874 32.1965H13.9291C14.6034 32.1965 15.1502 32.7506 15.1502 33.4345C15.1502 34.1185 14.6034 34.6731 13.9291 34.6731Z" fill="#E57E25"/>
<path d="M49.3343 35.9111C48.66 35.9111 48.1138 35.357 48.1138 34.6731C47.4395 34.6731 46.8926 34.1185 46.8926 33.4345C46.8926 32.7506 47.4395 32.1965 48.1138 32.1965H49.3343C50.0086 32.1965 50.5554 32.7506 50.5554 33.4345V34.6731C50.5554 35.357 50.0086 35.9111 49.3343 35.9111Z" fill="#E57E25"/>
<path d="M24.9939 69.2175C24.9499 69.2175 24.9059 69.2152 24.862 69.2102C24.0244 69.1194 23.1919 68.9817 22.3686 68.7983C21.9383 68.7069 21.5893 68.3886 21.4553 67.9644C21.3212 67.5397 21.4217 67.0748 21.7196 66.747C22.0169 66.4193 22.4653 66.2788 22.8935 66.3797C23.6293 66.5436 24.3734 66.6668 25.1225 66.7481C25.7671 66.8189 26.2447 67.388 26.2106 68.0447C26.1765 68.7007 25.6423 69.2158 24.9944 69.2175H24.9939ZM29.7673 69.213C29.1189 69.213 28.5836 68.698 28.5484 68.0413C28.5138 67.3841 28.9914 66.8139 29.6365 66.7431C30.3856 66.6601 31.1291 66.5352 31.865 66.3697C32.2937 66.2649 32.7454 66.4031 33.046 66.7314C33.3461 67.0592 33.4483 67.5263 33.3131 67.9527C33.1779 68.3786 32.8267 68.698 32.3942 68.7871C31.5715 68.9728 30.7401 69.1121 29.9025 69.2058C29.8575 69.2102 29.8129 69.213 29.7679 69.213H29.7673ZM18.1046 67.2721C17.9265 67.2721 17.7501 67.2325 17.5891 67.1556C16.8252 66.7944 16.0811 66.3908 15.3607 65.9471C14.9776 65.7225 14.744 65.305 14.7512 64.8563C14.7578 64.4076 15.0029 63.9979 15.3925 63.785C15.7822 63.572 16.2548 63.5899 16.6279 63.8307C17.2726 64.2275 17.9381 64.5882 18.6212 64.9115C19.1405 65.1567 19.4213 65.7353 19.2971 66.3022C19.1729 66.8691 18.6772 67.2721 18.1046 67.2721ZM36.6522 67.2532C36.0807 67.2532 35.5855 66.8507 35.4608 66.2844C35.3366 65.718 35.6163 65.14 36.134 64.8936C36.816 64.5692 37.4804 64.2075 38.1239 63.8095C38.4965 63.5793 38.9614 63.5681 39.3445 63.7799C39.7275 63.9923 39.9699 64.3953 39.9798 64.8379C39.9902 65.2799 39.7671 65.6941 39.3951 65.9248C38.6757 66.3691 37.9327 66.7732 37.1699 67.1355C37.0083 67.213 36.8314 67.2532 36.6522 67.2532ZM12.2018 63.1807C11.8874 63.1813 11.5852 63.0586 11.3588 62.8379C10.7499 62.2487 10.1728 61.6267 9.62985 60.975C9.2023 60.4522 9.27044 59.6774 9.78153 59.2393C10.2932 58.8006 11.0576 58.8619 11.4945 59.3764C11.982 59.9606 12.4996 60.5185 13.0454 61.047C13.4059 61.3965 13.5207 61.9332 13.3355 62.4031C13.1498 62.8725 12.7013 63.1807 12.2029 63.1807H12.2018ZM42.5457 63.1523C42.0472 63.1523 41.5988 62.8446 41.413 62.3753C41.2273 61.9065 41.3416 61.3697 41.7015 61.0196C42.2462 60.4907 42.7622 59.9321 43.248 59.3469C43.6871 58.8435 44.4417 58.7872 44.9483 59.2198C45.455 59.6523 45.5298 60.416 45.116 60.9405C44.5741 61.5943 43.9976 62.2181 43.3898 62.8084C43.1628 63.0291 42.8606 63.1528 42.5468 63.1523H42.5457ZM7.89435 57.3948C7.44041 57.3954 7.02384 57.1406 6.81226 56.7332C6.42098 55.9768 6.07036 55.1997 5.76151 54.4049C5.5884 53.9907 5.6505 53.5141 5.92363 53.1596C6.19676 52.8051 6.63805 52.6284 7.07605 52.6986C7.51405 52.7689 7.88006 53.0743 8.03228 53.4968C8.30926 54.2081 8.62361 54.9032 8.97368 55.5804C9.17262 55.9639 9.15888 56.4255 8.93851 56.7961C8.71758 57.1674 8.32135 57.3942 7.89435 57.3948ZM46.8421 57.3569C46.4151 57.3563 46.0194 57.13 45.7985 56.7594C45.5776 56.3892 45.5633 55.9283 45.7611 55.5448C46.1112 54.867 46.4239 54.1702 46.6992 53.4578C46.952 52.833 47.6527 52.5292 48.2732 52.7756C48.8936 53.0214 49.2052 53.727 48.9728 54.3603C48.6656 55.1562 48.316 55.9349 47.9253 56.6925C47.7143 57.1011 47.2972 57.3575 46.8421 57.3569ZM5.645 50.513C5.04433 50.5119 4.53324 50.0682 4.44037 49.4662C4.30957 48.6217 4.22549 47.7706 4.18702 46.9166C4.17273 46.5883 4.28704 46.2678 4.50577 46.0253C4.72394 45.7828 5.0284 45.6385 5.35209 45.624C6.0198 45.6095 6.58035 46.1296 6.62651 46.8051C6.66114 47.5682 6.73643 48.3285 6.85238 49.0827C6.90734 49.4406 6.80512 49.8051 6.57321 50.0799C6.34074 50.3547 6.00167 50.513 5.645 50.513ZM49.0794 50.4668C49.0167 50.4668 48.9541 50.4623 48.8925 50.4523C48.2259 50.3486 47.7687 49.7165 47.8709 49.0409C47.9852 48.2851 48.0594 47.5236 48.0929 46.7594C48.1402 46.085 48.7002 45.5655 49.3668 45.5772C50.0406 45.6078 50.5621 46.1864 50.5324 46.8692C50.495 47.7226 50.4121 48.5727 50.284 49.4166C50.1928 50.0203 49.6811 50.4662 49.0794 50.4668ZM5.38286 43.2422C4.70855 43.2422 4.16229 42.6876 4.16229 42.0036V39.5766C4.16229 38.8927 4.70855 38.3381 5.38286 38.3381C6.05717 38.3381 6.60398 38.8927 6.60398 39.5766V42.0036C6.60398 42.6876 6.05717 43.2422 5.38286 43.2422ZM49.3344 43.1954C48.6601 43.1954 48.1138 42.6413 48.1138 41.9573V39.5293C48.1138 38.8453 48.6601 38.2913 49.3344 38.2913C50.0087 38.2913 50.5555 38.8453 50.5555 39.5293V41.9579C50.5555 42.6418 50.0087 43.1959 49.3344 43.1959V43.1954Z" fill="#E57E25"/>
</svg>
