<svg width="69" height="67" viewBox="0 0 69 67" fill="none" xmlns="http://www.w3.org/2000/svg">
<path d="M12.7394 33.8809L10.0449 21.9576L12.7515 21.0242L18.4705 33.0536V33.0657L18.8606 33.8809H12.7394Z" fill="#E29526"/>
<path d="M0.816175 16.1317C0.840752 16.2567 0.876308 16.3796 0.922325 16.4983C2.34097 20.6109 6.70514 22.9201 10.9041 21.7796C15.1025 20.6386 17.6977 16.4386 16.8401 12.1728L14.3349 11.5233C13.413 11.2891 12.4404 11.6284 11.8652 12.3856L11.1917 13.2719C10.6123 14.0317 9.63289 14.3674 8.70996 14.1227L7.64637 13.8508C6.72292 13.6045 5.74247 13.9407 5.16466 14.7021L4.49116 15.5879C3.91073 16.3456 2.93499 16.6849 2.00945 16.4507L0.816175 16.1317Z" fill="#EFB868"/>
<path d="M0.816362 16.132L2.00963 16.451C2.93518 16.6852 3.91092 16.3459 4.49135 15.5882L5.16485 14.7024C5.74266 13.941 6.72311 13.6048 7.64656 13.8511L8.71016 14.123C9.63308 14.3677 10.6125 14.032 11.1919 13.2722L11.8654 12.3859C12.4406 11.6287 13.4132 11.2894 14.3351 11.5236L16.8403 12.1731C16.7749 11.8039 16.6798 11.4405 16.5564 11.086C15.087 6.84206 10.498 4.54703 6.22112 5.91809C1.94375 7.28967 -0.455868 11.8243 0.816362 16.132Z" fill="#E66E81"/>
<path d="M59.5818 25.3727C63.5878 23.8955 67.4401 24.4864 68.409 26.7673C69.3424 28.9771 67.2158 32.0377 63.5643 33.8809H59.7053L59.5818 25.3727Z" fill="#AF8066"/>
<path d="M39.2688 20.1615L40.2378 33.8454L60.9527 33.881C61.2063 30.9752 60.7357 28.0521 59.5822 25.3728C59.1487 24.3745 58.6054 23.4276 57.9633 22.5486C57.6673 22.1328 57.3478 21.7339 57.0058 21.3553L43.074 17.9993C42.6092 18.1771 42.1553 18.382 41.715 18.6137C40.8485 19.0446 40.0291 19.5633 39.2688 20.1615Z" fill="#7F5B53"/>
<path d="M41.7149 18.6137C43.2512 21.3982 45.9044 23.393 49.0058 24.0964C52.0758 24.8781 55.3335 24.3149 57.9632 22.5486C57.6672 22.1328 57.3477 21.7339 57.0057 21.3553L43.074 17.9993C42.6091 18.1771 42.1552 18.382 41.7149 18.6137Z" fill="#59474E"/>
<path d="M60.5584 8.15646C62.0053 6.3059 64.5926 5.80077 66.6294 6.97156C68.6661 8.14235 69.532 10.6319 68.6609 12.814C67.7902 14.9956 65.4481 16.205 63.1651 15.6518C62.7766 15.5619 62.4017 15.4186 62.0524 15.2256L60.5584 8.15646Z" fill="#7F5B53"/>
<path d="M41.3735 10.2439C40.9745 10.2565 40.5756 10.2136 40.1886 10.1169C37.8978 9.57304 36.3557 7.42651 36.5732 5.08179C36.7902 2.73708 38.6999 0.910048 41.0519 0.796577C43.404 0.683106 45.4804 2.31771 45.9223 4.63053L41.3735 10.2439Z" fill="#7F5B53"/>
<path d="M41.3374 10.3934C42.56 5.31754 48.1807 2.31815 53.8908 3.6934C59.601 5.06916 63.2394 10.2993 62.0163 15.3751C60.7937 20.451 55.173 23.4504 49.4629 22.0746C43.7527 20.6994 40.1149 15.4692 41.3374 10.3934Z" fill="#AF8066"/>
<path d="M51.4018 15.2152C51.9477 15.2142 52.4219 14.8398 52.5501 14.309L52.8256 13.1602C52.9245 12.7497 52.7963 12.3178 52.4899 12.0271C52.1835 11.7363 51.7453 11.6312 51.3406 11.751C50.9358 11.8713 50.6252 12.1981 50.5269 12.6086L50.2514 13.7574C50.1672 14.1098 50.2487 14.4811 50.4731 14.765C50.6974 15.0495 51.0394 15.2152 51.4018 15.2152Z" fill="#50415B"/>
<path d="M54.4952 11.4169C54.4952 12.0695 55.0243 12.5986 55.6769 12.5986C56.3295 12.5986 56.8587 12.0695 56.8587 11.4169C56.8587 10.7643 56.3295 10.2351 55.6769 10.2351C55.0243 10.2351 54.4952 10.7643 54.4952 11.4169Z" fill="#50415B"/>
<path d="M47.6023 9.75647C47.6023 10.4091 48.131 10.9377 48.7841 10.9377C49.4367 10.9377 49.9653 10.4091 49.9653 9.75647C49.9653 9.10389 49.4367 8.57471 48.7841 8.57471C48.131 8.57471 47.6023 9.10389 47.6023 9.75647Z" fill="#50415B"/>
<path d="M31.5878 27.4287H31.5993C32.2508 27.4255 32.7769 26.8958 32.7753 26.2443C32.7737 25.5928 32.2451 25.0657 31.5935 25.0657C30.942 25.0657 30.4133 25.5928 30.4118 26.2443C30.4102 26.8958 30.9362 27.4255 31.5878 27.4287Z" fill="black"/>
<path d="M18.7304 26.6136C24.1666 24.7938 28.3733 25.0067 31.5991 26.247C32.3835 26.5451 33.136 26.921 33.8445 27.3697C36.3325 28.9818 38.3436 31.2298 39.6702 33.8809H43.6882C44.0223 32.7289 44.1891 31.5351 44.1844 30.3361C44.1923 26.3704 42.3804 22.6201 39.2686 20.1614C38.6155 19.6343 37.9111 19.1752 37.165 18.7909C35.3186 17.8303 33.2672 17.332 31.1855 17.3372H30.855C25.2317 17.4794 20.3384 21.2229 18.7304 26.6136Z" fill="#EFB868"/>
<path d="M18.1872 30.3361C18.1856 31.2491 18.2802 32.1605 18.4706 33.0536V33.0656C18.5297 33.3376 18.6008 33.6089 18.6834 33.8809H39.6702C38.3436 31.2297 36.3325 28.9817 33.8445 27.3696C33.136 26.921 32.3835 26.545 31.5992 26.2469C28.3734 25.0066 24.1666 24.7938 18.7305 26.6135C18.3686 27.8209 18.1851 29.0753 18.1872 30.3361Z" fill="#E66E81"/>
<path d="M66.6365 33.8809H2.82521C1.52004 33.8809 0.461678 34.9392 0.461678 36.2444V55.1516C0.461678 61.678 5.75244 66.9683 12.2788 66.9683H57.1829C63.7093 66.9683 69 61.678 69 55.1516V36.2444C69 34.9392 67.9417 33.8809 66.6365 33.8809Z" fill="white"/>
<path d="M2.82507 36.2444V55.1516C2.82716 61.677 8.11635 66.9662 14.6417 66.9683H54.8197C61.3451 66.9662 66.6343 61.677 66.6364 55.1516V36.2444C66.6327 34.9408 65.5769 33.8845 64.2733 33.8809H5.18808C3.88447 33.8845 2.82872 34.9408 2.82507 36.2444Z" fill="#7C59E0"/>
<path d="M2.82515 38.6079H0.461614V43.3345H2.82515V38.6079Z" fill="#E29526"/>
<path d="M69 38.6079H66.6365V43.3345H69V38.6079Z" fill="#E29526"/>
<path d="M66.6364 38.6079H2.82507V43.3345H66.6364V38.6079Z" fill="#EFB868"/>
<path d="M34.1959 49.201L32.6737 52.4435C32.5901 52.6223 32.4233 52.7473 32.2282 52.7766L28.7776 53.3042C28.559 53.3377 28.377 53.4904 28.3064 53.7006C28.2364 53.9108 28.2892 54.1424 28.444 54.3009L30.978 56.8976C31.1092 57.032 31.1683 57.2208 31.138 57.4059L30.545 61.0411C30.5089 61.2644 30.603 61.4887 30.7881 61.6195C30.9727 61.7497 31.2159 61.7627 31.4141 61.6535L34.4454 59.9775C34.6231 59.8792 34.8391 59.8792 35.0169 59.9775L38.0482 61.6535C38.2464 61.7627 38.4895 61.7497 38.6746 61.6195C38.8592 61.4887 38.9538 61.2644 38.9172 61.0411L38.3243 57.4059C38.2939 57.2208 38.3535 57.032 38.4843 56.8976L41.0172 54.3009C41.172 54.1419 41.2253 53.9103 41.1548 53.7006C41.0847 53.4904 40.9027 53.3372 40.6836 53.3037L37.233 52.7766C37.0384 52.7468 36.8711 52.6218 36.7874 52.4435L35.2653 49.2005C35.168 48.9934 34.9599 48.8611 34.7309 48.8611C34.5018 48.8611 34.2932 48.9934 34.1959 49.201Z" fill="#EFB868"/>
<path d="M53.1031 49.201L51.581 52.4435C51.4973 52.6223 51.33 52.7473 51.1354 52.7766L47.6848 53.3042C47.4657 53.3377 47.2842 53.4904 47.2136 53.7006C47.1436 53.9108 47.1964 54.1424 47.3512 54.3009L49.8852 56.8976C50.0159 57.032 50.0755 57.2208 50.0452 57.4059L49.4522 61.0411C49.4161 61.2644 49.5102 61.4887 49.6954 61.6195C49.8799 61.7497 50.1231 61.7627 50.3213 61.6535L53.3526 59.9775C53.5303 59.8792 53.7463 59.8792 53.9241 59.9775L56.9554 61.6535C57.1536 61.7627 57.3967 61.7497 57.5813 61.6195C57.7664 61.4887 57.8605 61.2644 57.8245 61.0411L57.2315 57.4059C57.2011 57.2208 57.2608 57.032 57.3915 56.8976L59.9244 54.3009C60.0792 54.1419 60.1326 53.9103 60.062 53.7006C59.9919 53.4904 59.8099 53.3372 59.5908 53.3037L56.1402 52.7766C55.9457 52.7468 55.7783 52.6218 55.6947 52.4435L54.1725 49.2005C54.0752 48.9934 53.8666 48.8611 53.6375 48.8611C53.409 48.8611 53.2004 48.9934 53.1031 49.201Z" fill="#EFB868"/>
<path d="M15.2886 49.201L13.7664 52.4435C13.6828 52.6223 13.516 52.7473 13.3209 52.7766L9.87025 53.3042C9.65168 53.3377 9.4697 53.4904 9.39911 53.7006C9.32904 53.9108 9.38186 54.1424 9.53664 54.3009L12.0706 56.8976C12.2019 57.032 12.2615 57.2208 12.2312 57.4059L11.6382 61.0411C11.6016 61.2644 11.6957 61.4887 11.8808 61.6195C12.0659 61.7497 12.3091 61.7627 12.5067 61.6535L15.538 59.9775C15.7158 59.8792 15.9318 59.8792 16.1101 59.9775L19.1414 61.6535C19.339 61.7627 19.5822 61.7497 19.7673 61.6195C19.9524 61.4887 20.0465 61.2644 20.0099 61.0411L19.4169 57.4059C19.3866 57.2208 19.4462 57.032 19.5775 56.8976L22.1104 54.3009C22.2652 54.1419 22.318 53.9103 22.2474 53.7006C22.1774 53.4904 21.9954 53.3372 21.7763 53.3037L18.3262 52.7766C18.1311 52.7468 17.9643 52.6218 17.8801 52.4435L16.3585 49.2005C16.2607 48.9934 16.0526 48.8611 15.8235 48.8611C15.5945 48.8611 15.3864 48.9934 15.2886 49.201Z" fill="#EFB868"/>
</svg>
