<svg width="80" height="80" viewBox="0 0 80 80" fill="none" xmlns="http://www.w3.org/2000/svg">
<circle cx="40" cy="40" r="40" fill="#32BA9C" fill-opacity="0.4"/>
<g clip-path="url(#clip0)">
<path d="M56.9075 27.0445L59.5544 24.3977C59.9911 23.9609 60.1206 23.3101 59.8843 22.7394C59.6479 22.1687 59.0961 21.8 58.4784 21.8H57.4852L56.202 20.5169V19.5236C56.202 18.6835 55.5164 18 54.6736 18C54.2727 18 53.893 18.159 53.6044 18.4476L50.9576 21.0945C50.6702 21.3818 50.5118 21.764 50.5118 22.1705V24.8791C47.1763 22.1425 43.0016 20.6418 38.6811 20.6418C34.0759 20.6418 29.6486 22.3398 26.2148 25.4229C25.974 25.6391 25.9541 26.0095 26.1702 26.2503C26.3865 26.4912 26.7569 26.511 26.9977 26.2948C30.2161 23.4052 34.3654 21.8137 38.6811 21.8137C42.7284 21.8137 46.6402 23.2183 49.7658 25.7812L47.8737 27.6734C45.2598 25.6076 42.017 24.4751 38.6811 24.4751C30.4951 24.4751 23.8353 31.1349 23.8353 39.3209C23.8353 47.5068 30.4951 54.1667 38.6811 54.1667C46.8671 54.1667 53.5269 47.5069 53.5269 39.3209C53.5269 35.985 52.3944 32.7422 50.3287 30.1283L52.2208 28.2362C54.7837 31.3616 56.1884 35.2736 56.1884 39.3209C56.1883 48.9745 48.3346 56.8281 38.6811 56.8281C29.0276 56.8281 21.1738 48.9745 21.1738 39.3209C21.1738 35.14 22.6783 31.0895 25.4102 27.9155C25.6212 27.6702 25.5936 27.3002 25.3483 27.0891C25.103 26.878 24.733 26.9058 24.522 27.151C21.6072 30.5376 20.002 34.8596 20.002 39.3209C20.002 49.6206 28.3814 58 38.6811 58C48.9808 58 57.3602 49.6206 57.3602 39.3209C57.3602 35.0005 55.8595 30.8256 53.123 27.4902H55.8316C56.238 27.4902 56.6202 27.332 56.9075 27.0445ZM51.7862 21.9231C51.7862 21.9231 54.4277 19.2815 54.433 19.2763C54.643 19.0663 55.0302 19.2088 55.0302 19.5236V20.5169L51.6837 23.8634V22.1705H51.6837C51.6837 22.077 51.7201 21.9892 51.7862 21.9231ZM52.3549 39.3209C52.355 46.8607 46.2209 52.9948 38.6811 52.9948C31.1412 52.9948 25.0072 46.8607 25.0072 39.3209C25.0072 31.7812 31.1412 25.647 38.6811 25.647C41.7074 25.647 44.651 26.6585 47.0395 28.5075L45.1396 30.4074C43.2687 29.0507 40.9956 28.3084 38.6812 28.3084C32.6088 28.3084 27.6687 33.2485 27.6687 39.3209C27.6687 45.3932 32.6088 50.3334 38.6812 50.3334C41.3368 50.3334 43.9035 49.3709 45.9086 47.6233C46.1526 47.4106 46.178 47.0405 45.9653 46.7966C45.7527 46.5526 45.3826 46.5272 45.1386 46.7398C43.3469 48.3015 41.0536 49.1615 38.6811 49.1615C33.2549 49.1615 28.8405 44.747 28.8405 39.3209C28.8405 33.8947 33.2549 29.4802 38.6811 29.4802C40.718 29.4802 42.6475 30.0889 44.3002 31.2467L42.3766 33.1704C41.2606 32.4965 39.9932 32.1417 38.6811 32.1417C34.7225 32.1417 31.5019 35.3623 31.5019 39.3209C31.5019 43.2795 34.7225 46.5002 38.6811 46.5002C42.6397 46.5002 45.8603 43.2795 45.8603 39.3209C45.8603 38.0088 45.5055 36.7414 44.8316 35.6255L46.7552 33.7018C47.913 35.3545 48.5216 37.2839 48.5216 39.3209C48.5216 41.4145 47.8695 43.4151 46.6357 45.1065C46.445 45.368 46.5023 45.7345 46.7638 45.9252C47.0252 46.1159 47.3917 46.0585 47.5824 45.7971C48.9635 43.9038 49.6935 41.6644 49.6935 39.3209C49.6935 37.0064 48.9512 34.7333 47.5945 32.8624L49.4944 30.9625C51.3434 33.3509 52.3549 36.2946 52.3549 39.3209ZM38.3995 39.8453C38.7002 40.0932 39.0827 40.2437 39.4943 40.2437C39.9508 40.2437 40.3991 40.0579 40.7217 39.7352L40.8342 39.6227C40.6869 40.6792 39.7775 41.4949 38.681 41.4949C37.4823 41.4949 36.507 40.5197 36.507 39.3209C36.507 38.2245 37.3227 37.315 38.3791 37.1677C38.0078 37.539 37.7582 37.9678 37.7582 38.5077C37.7583 39.0404 38.0103 39.5245 38.3995 39.8453ZM35.3352 39.3209C35.3352 41.1659 36.8361 42.6669 38.6811 42.6669C40.5261 42.6669 42.027 41.1659 42.027 39.3209C42.027 39.0512 41.9943 38.7852 41.9309 38.5261L43.9736 36.4835C44.443 37.3534 44.6884 38.3219 44.6884 39.3209C44.6884 42.6334 41.9935 45.3283 38.6811 45.3283C35.3687 45.3283 32.6737 42.6334 32.6737 39.3209C32.6737 36.0085 35.3687 33.3136 38.6811 33.3136C39.6802 33.3136 40.6486 33.5591 41.5185 34.0285L39.4759 36.0711C39.2169 36.0077 38.9509 35.975 38.6811 35.975C36.8362 35.975 35.3352 37.4759 35.3352 39.3209ZM39.8931 38.9066C39.6787 39.1211 39.3102 39.1214 39.0955 38.9066C38.8785 38.6897 38.8789 38.3255 39.0955 38.1089L55.6161 21.5882L56.4137 22.3859L39.8931 38.9066ZM57.4852 22.9719C57.4852 22.9719 58.4784 22.9719 58.4785 22.9719C58.7871 22.972 58.9425 23.3522 58.7258 23.569L56.0789 26.2159C56.0138 26.2809 55.9236 26.3184 55.8316 26.3184H54.1387L57.4852 22.9719Z" fill="#1CB190"/>
</g>
<defs>
<clipPath id="clip0">
<rect width="40" height="40" fill="white" transform="translate(20 18)"/>
</clipPath>
</defs>
</svg>
