<svg width="25" height="22" viewBox="0 0 25 22" fill="none" xmlns="http://www.w3.org/2000/svg">
<g clip-path="url(#clip0)">
<path d="M12.1695 6.37047L4.16732 12.8953V19.9374C4.16732 20.1198 4.24048 20.2946 4.37071 20.4236C4.50095 20.5525 4.67758 20.6249 4.86176 20.6249L9.72548 20.6125C9.90905 20.6116 10.0848 20.5387 10.2143 20.4099C10.3438 20.2811 10.4164 20.1067 10.4164 19.925V15.8124C10.4164 15.6301 10.4896 15.4552 10.6198 15.3263C10.7501 15.1974 10.9267 15.1249 11.1109 15.1249H13.8887C14.0728 15.1249 14.2495 15.1974 14.3797 15.3263C14.5099 15.4552 14.5831 15.6301 14.5831 15.8124V19.922C14.5828 20.0124 14.6006 20.1021 14.6354 20.1857C14.6701 20.2694 14.7212 20.3454 14.7857 20.4095C14.8503 20.4736 14.9269 20.5244 15.0113 20.5591C15.0957 20.5938 15.1862 20.6116 15.2776 20.6116L20.1395 20.6249C20.3237 20.6249 20.5004 20.5525 20.6306 20.4236C20.7608 20.2946 20.834 20.1198 20.834 19.9374V12.8906L12.8335 6.37047C12.7395 6.29542 12.6223 6.25449 12.5015 6.25449C12.3807 6.25449 12.2635 6.29542 12.1695 6.37047ZM24.8097 10.8053L21.1812 7.8443V1.8927C21.1812 1.75595 21.1263 1.6248 21.0287 1.5281C20.931 1.4314 20.7985 1.37708 20.6604 1.37708H18.2298C18.0917 1.37708 17.9592 1.4314 17.8615 1.5281C17.7639 1.6248 17.709 1.75595 17.709 1.8927V5.01266L13.8231 1.84758C13.4502 1.54378 12.9823 1.37768 12.4993 1.37768C12.0164 1.37768 11.5485 1.54378 11.1756 1.84758L0.189019 10.8053C0.136279 10.8484 0.0926449 10.9015 0.0606102 10.9613C0.0285755 11.0212 0.00876769 11.0867 0.00231864 11.1541C-0.0041304 11.2216 0.00290567 11.2896 0.0230248 11.3543C0.043144 11.4191 0.0759519 11.4793 0.119574 11.5315L1.22634 12.8635C1.26985 12.9159 1.32336 12.9592 1.38381 12.9911C1.44426 13.023 1.51047 13.0427 1.57864 13.0492C1.64681 13.0557 1.71561 13.0488 1.7811 13.029C1.84659 13.0091 1.90748 12.9767 1.96029 12.9335L12.1695 4.60876C12.2635 4.5337 12.3807 4.49277 12.5015 4.49277C12.6223 4.49277 12.7395 4.5337 12.8335 4.60876L23.0432 12.9335C23.0959 12.9767 23.1567 13.0092 23.2221 13.0291C23.2875 13.049 23.3562 13.056 23.4243 13.0496C23.4924 13.0432 23.5586 13.0236 23.6191 12.9919C23.6795 12.9602 23.7331 12.917 23.7767 12.8648L24.8835 11.5327C24.927 11.4803 24.9597 11.4198 24.9796 11.3547C24.9995 11.2897 25.0062 11.2214 24.9993 11.1538C24.9925 11.0862 24.9722 11.0206 24.9396 10.9608C24.9071 10.901 24.8629 10.8481 24.8097 10.8053Z" fill="white"/>
</g>
<defs>
<clipPath id="clip0">
<rect width="25" height="22" fill="white"/>
</clipPath>
</defs>
</svg>
