<svg width="23" height="20" viewBox="0 0 23 20" fill="none" xmlns="http://www.w3.org/2000/svg">
<path d="M11.5 11.25C12.1778 11.25 12.8278 10.9866 13.307 10.5178C13.7863 10.0489 14.0555 9.41304 14.0555 8.75C14.0555 8.08696 13.7863 7.45107 13.307 6.98223C12.8278 6.51339 12.1778 6.25 11.5 6.25C11.46 6.25 11.4249 6.25937 11.3862 6.26133C11.5093 6.59309 11.5332 6.95234 11.455 7.2969C11.3767 7.64147 11.1997 7.95706 10.9445 8.20664C10.6894 8.45622 10.3668 8.62944 10.0146 8.70596C9.66237 8.78248 9.29514 8.75914 8.956 8.63867C8.956 8.67773 8.94442 8.71211 8.94442 8.75C8.94442 9.0783 9.01052 9.40339 9.13895 9.70671C9.26738 10.01 9.45562 10.2856 9.69293 10.5178C10.1722 10.9866 10.8222 11.25 11.5 11.25ZM22.861 9.42969C20.6956 5.29648 16.4086 2.5 11.5 2.5C6.59132 2.5 2.30317 5.29844 0.138937 9.43008C0.0475921 9.60684 0 9.80213 0 10.0002C0 10.1983 0.0475921 10.3936 0.138937 10.5703C2.30437 14.7035 6.59132 17.5 11.5 17.5C16.4086 17.5 20.6968 14.7016 22.861 10.5699C22.9524 10.3932 23 10.1979 23 9.9998C23 9.80174 22.9524 9.60645 22.861 9.42969ZM11.5 3.75C12.5109 3.75 13.499 4.04324 14.3396 4.59265C15.1801 5.14206 15.8352 5.92295 16.222 6.83658C16.6089 7.75021 16.7101 8.75555 16.5129 9.72545C16.3157 10.6954 15.8289 11.5863 15.1141 12.2855C14.3993 12.9848 13.4886 13.461 12.4971 13.6539C11.5056 13.8469 10.478 13.7478 9.54404 13.3694C8.61011 12.991 7.81186 12.3501 7.25025 11.5279C6.68863 10.7056 6.38887 9.73891 6.38887 8.75C6.39035 7.42436 6.92931 6.15343 7.88751 5.21606C8.84571 4.2787 10.1449 3.75145 11.5 3.75ZM11.5 16.25C7.21303 16.25 3.29585 13.8551 1.27776 10C2.41275 7.82028 4.22785 6.05079 6.45994 4.94805C5.62659 6.00352 5.11109 7.31133 5.11109 8.75C5.11109 10.4076 5.7842 11.9973 6.98235 13.1694C8.1805 14.3415 9.80554 15 11.5 15C13.1944 15 14.8195 14.3415 16.0176 13.1694C17.2158 11.9973 17.8889 10.4076 17.8889 8.75C17.8889 7.31133 17.3734 6.00352 16.54 4.94805C18.7721 6.05079 20.5872 7.82028 21.7222 10C19.7045 13.8551 15.7869 16.25 11.5 16.25Z" fill="white"/>
</svg>
