<svg width="18" height="18" viewBox="0 0 18 18" fill="none" xmlns="http://www.w3.org/2000/svg">
<path d="M9 0.28125C4.02968 0.28125 0 4.18465 0 9C0 13.8154 4.02968 17.7188 9 17.7188C13.9703 17.7188 18 13.8154 18 9C18 4.18465 13.9703 0.28125 9 0.28125ZM9 1.40625C9.68516 1.40625 10.346 1.50047 10.9796 1.66113L9.09508 3.20027C8.83669 3.36621 8.68899 3.6552 8.70714 3.95402C8.72637 4.25391 8.91109 4.5232 9.18798 4.65785L9.58028 4.84805V7.10473C9.51677 7.08539 9.45109 7.07379 9.38286 7.07168C9.12448 7.07168 8.85774 7.19684 8.72056 7.42008L8.07895 8.4375C7.76939 8.4375 7.47689 8.55457 7.25806 8.76727L7.05266 8.96625C6.88827 9.12551 6.79754 9.3375 6.79754 9.56285C6.79754 9.7882 6.88827 10.0002 7.05266 10.1595L7.25806 10.3584V10.6875H6.45532L5.63552 9.09738C5.57365 8.97768 5.48326 8.87396 5.37182 8.79479C5.26038 8.71563 5.13109 8.66329 4.99464 8.64211C4.72681 8.59887 4.43649 8.68711 4.24052 8.87836L3.53395 9.5625H1.19069C1.17653 9.37617 1.16129 9.18984 1.16129 9C1.16129 4.81289 4.67782 1.40625 9 1.40625ZM1.36306 10.6875H3.53359C3.84315 10.6875 4.13564 10.5704 4.35448 10.3577L4.77617 9.94957L5.4156 11.1909C5.61411 11.5745 6.01222 11.8121 6.45423 11.8121H7.25806C7.89895 11.8121 8.41935 11.3073 8.41935 10.6871V10.3574C8.41935 10.0642 8.29815 9.77625 8.08476 9.56742L8.09056 9.5618C8.49665 9.5618 8.87879 9.35191 9.08637 9.01582L9.47976 8.3809C9.59444 8.41711 9.72472 8.4368 9.87097 8.4368C10.3507 8.4368 10.7419 8.05816 10.7419 7.59305V4.84699C10.7419 4.41949 10.4981 4.03523 10.1047 3.84293L12.2483 2.09672C14.952 3.29625 16.8387 5.93578 16.8387 9C16.8387 9.7984 16.7092 10.5673 16.4725 11.2908C16.4246 11.2286 16.3862 11.1607 16.3288 11.1048L16.1517 10.9332V10.8281C16.1517 10.1303 15.5656 9.5625 14.8453 9.5625H14.625C14.4254 9.5625 14.2334 9.60715 14.0607 9.68801C13.8719 9.60513 13.667 9.56233 13.4597 9.5625H13.021C12.7172 9.5625 12.4262 9.65285 12.1787 9.82336L11.3179 10.4175L9.92976 10.9498C9.37524 11.1646 9.01742 11.6771 9.01742 12.2555V12.6144C9.01742 12.9899 9.16839 13.3432 9.44238 13.6086L9.87496 14.0273C10.2037 14.3459 10.6414 14.5216 11.1067 14.5216H11.4819C11.6242 14.5216 11.7664 14.5048 11.9043 14.4714L12.5717 14.3096L12.9676 14.6932C13.1629 14.8823 13.3991 15.0142 13.6546 15.0957C12.351 16.0323 10.7441 16.5938 9 16.5938C5.27698 16.5938 2.15819 14.0643 1.36306 10.6875ZM14.8427 14.0446C14.8112 14.0495 14.7818 14.0625 14.7495 14.0625H14.1993C14.0454 14.0625 13.8977 14.0031 13.7889 13.8976L13.3167 13.4402C13.1981 13.3254 13.0508 13.2422 12.8891 13.1988C12.7275 13.1555 12.557 13.1534 12.3942 13.1927L11.6223 13.3798C11.5763 13.391 11.5291 13.3966 11.4815 13.3966H11.1063C10.9524 13.3966 10.8047 13.3372 10.6958 13.2318L10.2636 12.813C10.2092 12.7602 10.1787 12.6887 10.1787 12.6141V12.2555C10.1787 12.1405 10.2509 12.0371 10.3612 11.9943L11.7889 11.4409C11.8608 11.4131 11.929 11.3769 11.9918 11.3337L12.8522 10.7399C12.9015 10.7061 12.9603 10.6879 13.0206 10.6879H13.4594C13.5766 10.6879 13.6825 10.7561 13.7275 10.8612L13.9217 11.3129C13.9327 11.3385 13.9513 11.3604 13.9751 11.3758C13.999 11.3912 14.027 11.3994 14.0556 11.3994H14.1935C14.2581 11.3994 14.3151 11.3583 14.3329 11.2982L14.4853 10.7895C14.5034 10.7293 14.56 10.6882 14.6246 10.6882H14.8446C14.9248 10.6882 14.9897 10.7511 14.9897 10.8288V11.2834C14.9897 11.3579 15.0202 11.4296 15.0746 11.4824L15.5069 11.9011C15.6157 12.0066 15.6771 12.1496 15.6771 12.2987V12.9579C15.4328 13.3434 15.1536 13.7071 14.8427 14.0446Z" fill="white"/>
</svg>
