<svg width="18" height="16" viewBox="0 0 18 16" fill="none" xmlns="http://www.w3.org/2000/svg">
<path d="M16.5 4H14.2719C14.5688 3.58125 14.75 3.06562 14.75 2.5C14.75 1.12188 13.7063 0 12.4219 0C11.1 0 10.3344 0.79375 9 2.99375C7.66563 0.79375 6.9 0 5.57812 0C4.29375 0 3.25 1.12188 3.25 2.5C3.25 3.06562 3.43125 3.58125 3.72813 4H1.5C0.671562 4 0 4.67156 0 5.5V14.5C0 15.3284 0.671562 16 1.5 16H16.5C17.3284 16 18 15.3284 18 14.5V5.5C18 4.67156 17.3284 4 16.5 4ZM9.63125 3.8875C11.1781 1.28437 11.6938 1 12.4219 1C13.1531 1 13.75 1.67188 13.75 2.5C13.75 3.32812 13.1531 4 12.4219 4H9.5625L9.63125 3.8875ZM5.57812 1C6.30937 1 6.82187 1.28437 8.36875 3.8875L8.43437 4H5.575C4.84375 4 4.24687 3.32812 4.24687 2.5C4.25 1.67188 4.84688 1 5.57812 1ZM17 14.5C17 14.7756 16.7756 15 16.5 15H1.5C1.22438 15 1 14.7756 1 14.5V13.5H17V14.5ZM17 12.5H1V10.5H17V12.5ZM17 9.5H1V5.5C1 5.22375 1.22375 5 1.5 5H7.79313L5.32344 7.46969C5.22594 7.56719 5.22594 7.72563 5.32344 7.82312L5.67688 8.17656C5.77437 8.27406 5.93281 8.27406 6.03031 8.17656L9 5.20687L11.9697 8.17656C12.0672 8.27406 12.2256 8.27406 12.3231 8.17656L12.6766 7.82312C12.7741 7.72563 12.7741 7.56719 12.6766 7.46969L10.2069 5H16.5C16.7763 5 17 5.22375 17 5.5V9.5Z" fill="white"/>
</svg>
