<svg width="80" height="80" viewBox="0 0 80 80" fill="none" xmlns="http://www.w3.org/2000/svg">
<circle cx="40" cy="40" r="40" fill="#FBEC6C" fill-opacity="0.48"/>
<path d="M33.125 34.5149C33.125 35.5038 33.4182 36.4705 33.9677 37.2927C34.5171 38.115 35.298 38.7559 36.2116 39.1343C37.1252 39.5127 38.1305 39.6117 39.1005 39.4188C40.0704 39.2259 40.9613 38.7497 41.6605 38.0504C42.3598 37.3512 42.836 36.4602 43.0289 35.4903C43.2219 34.5204 43.1228 33.5151 42.7444 32.6015C42.366 31.6878 41.7251 30.907 40.9029 30.3575C40.0806 29.8081 39.1139 29.5149 38.125 29.5149C36.7994 29.5164 35.5285 30.0437 34.5911 30.981C33.6538 31.9184 33.1265 33.1893 33.125 34.5149ZM41.875 34.5149C41.875 35.2566 41.6551 35.9816 41.243 36.5983C40.831 37.215 40.2453 37.6956 39.5601 37.9794C38.8748 38.2633 38.1208 38.3375 37.3934 38.1928C36.666 38.0481 35.9978 37.691 35.4733 37.1665C34.9489 36.6421 34.5917 35.9739 34.4471 35.2465C34.3024 34.5191 34.3766 33.7651 34.6605 33.0798C34.9443 32.3946 35.4249 31.8089 36.0416 31.3969C36.6583 30.9848 37.3833 30.7649 38.125 30.7649C39.1192 30.766 40.0724 31.1614 40.7754 31.8644C41.4785 32.5675 41.8739 33.5207 41.875 34.5149Z" fill="#DFCA0F"/>
<path d="M38.125 25.7649C38.2908 25.7649 38.4497 25.699 38.5669 25.5818C38.6842 25.4646 38.75 25.3057 38.75 25.1399C38.75 24.9741 38.6842 24.8152 38.5669 24.698C38.4497 24.5807 38.2908 24.5149 38.125 24.5149C35.4738 24.5179 32.932 25.5725 31.0573 27.4472C29.1826 29.3219 28.128 31.8637 28.125 34.5149C28.125 34.6807 28.1908 34.8396 28.3081 34.9568C28.4253 35.074 28.5842 35.1399 28.75 35.1399C28.9158 35.1399 29.0747 35.074 29.1919 34.9568C29.3092 34.8396 29.375 34.6807 29.375 34.5149C29.3776 32.1951 30.3003 29.971 31.9407 28.3306C33.5811 26.6902 35.8052 25.7675 38.125 25.7649Z" fill="#DFCA0F"/>
<path d="M60 33.265C60.0005 32.5421 59.7919 31.8344 59.3996 31.2273C59.0072 30.6201 58.4477 30.1393 57.7884 29.8427C57.1292 29.5462 56.3982 29.4465 55.6836 29.5557C54.969 29.6649 54.3012 29.9783 53.7605 30.4582C53.2199 30.9381 52.8295 31.564 52.6363 32.2607C52.4432 32.9573 52.4555 33.6949 52.6718 34.3847C52.8881 35.0745 53.2992 35.687 53.8555 36.1486C54.4119 36.6102 55.0898 36.9012 55.8076 36.9865C56.3928 39.0368 56.393 41.21 55.8082 43.2605C55.2234 45.311 54.0769 47.1571 52.4982 48.5903L51.0387 49.9185C50.8833 49.6102 50.6457 49.3509 50.352 49.1694C50.0584 48.9879 49.7202 48.8911 49.375 48.89H46.875V43.4268C48.6482 41.6887 49.8635 39.462 50.3662 37.0305C50.8688 34.599 50.636 32.0729 49.6973 29.7743C48.7586 27.4756 47.1566 25.5086 45.0956 24.124C43.0346 22.7394 40.6079 22 38.125 22C35.6421 22 33.2154 22.7394 31.1544 24.124C29.0934 25.5086 27.4914 27.4756 26.5527 29.7743C25.614 32.0729 25.3812 34.599 25.8838 37.0305C26.3865 39.462 27.6018 41.6887 29.375 43.4268V48.89H26.875C26.3779 48.8905 25.9013 49.0882 25.5498 49.4397C25.1983 49.7913 25.0005 50.2679 25 50.765V53.89C25 54.0557 25.0658 54.2147 25.1831 54.3319C25.3003 54.4491 25.4592 54.515 25.625 54.515H51.3C51.4547 54.5151 51.604 54.4576 51.7188 54.3538L55.0188 51.3729L55.0199 51.3717C57.1812 49.4105 58.7317 46.8682 59.486 44.0489C60.2403 41.2297 60.1664 38.2528 59.2731 35.4744C59.745 34.8344 59.9997 34.0602 60 33.265ZM26.875 34.515C26.875 32.2899 27.5348 30.1149 28.771 28.2648C30.0071 26.4148 31.7641 24.9728 33.8198 24.1213C35.8755 23.2698 38.1375 23.0471 40.3198 23.4811C42.5021 23.9152 44.5066 24.9867 46.08 26.56C47.6533 28.1334 48.7248 30.1379 49.1588 32.3202C49.5929 34.5025 49.3701 36.7645 48.5186 38.8202C47.6672 40.8758 46.2252 42.6328 44.3752 43.869C42.5251 45.1052 40.35 45.765 38.125 45.765C35.1424 45.7615 32.2829 44.5751 30.1739 42.4661C28.0648 40.3571 26.8785 37.4976 26.875 34.515ZM45.625 44.5101V48.89H30.625V44.5101C32.7874 46.1359 35.4196 47.015 38.125 47.015C40.8304 47.015 43.4626 46.1359 45.625 44.5101ZM50 53.265H26.25V50.765C26.2501 50.5992 26.316 50.4403 26.4332 50.3231C26.5504 50.2059 26.7093 50.1401 26.875 50.14H49.375C49.5407 50.1401 49.6996 50.2059 49.8168 50.3231C49.934 50.4403 49.9999 50.5992 50 50.765V53.265ZM53.75 33.265C53.75 32.7705 53.8966 32.2872 54.1713 31.876C54.446 31.4649 54.8365 31.1445 55.2933 30.9553C55.7501 30.7661 56.2528 30.7165 56.7377 30.813C57.2227 30.9095 57.6681 31.1476 58.0178 31.4972C58.3674 31.8468 58.6055 32.2923 58.702 32.7772C58.7984 33.2622 58.7489 33.7649 58.5597 34.2217C58.3705 34.6785 58.0501 35.0689 57.6389 35.3436C57.2278 35.6183 56.7445 35.765 56.25 35.765C55.5872 35.7643 54.9517 35.5007 54.4829 35.032C54.0142 34.5633 53.7506 33.9278 53.75 33.265ZM54.1813 50.4452L51.25 53.0928V51.4162L53.338 49.5162C55.0544 47.9594 56.3118 45.9622 56.9736 43.7414C57.6354 41.5206 57.6765 39.161 57.0923 36.9185C57.5058 36.8183 57.9007 36.6531 58.2623 36.429C58.9436 38.9143 58.923 41.5397 58.2026 44.0138C57.4822 46.488 56.0902 48.7142 54.1813 50.4452Z" fill="#D0BD11"/>
<path d="M58.125 33.2649C58.125 32.8941 58.015 32.5315 57.809 32.2232C57.603 31.9149 57.3101 31.6745 56.9675 31.5326C56.6249 31.3907 56.2479 31.3536 55.8842 31.4259C55.5205 31.4983 55.1864 31.6768 54.9242 31.9391C54.662 32.2013 54.4834 32.5354 54.411 32.8991C54.3387 33.2628 54.3758 33.6398 54.5177 33.9824C54.6596 34.325 54.9 34.6179 55.2083 34.8239C55.5167 35.0299 55.8792 35.1399 56.25 35.1399C56.7471 35.1393 57.2237 34.9416 57.5752 34.5901C57.9267 34.2386 58.1245 33.762 58.125 33.2649ZM55.625 33.2649C55.625 33.1413 55.6617 33.0204 55.7303 32.9177C55.799 32.8149 55.8966 32.7348 56.0108 32.6875C56.125 32.6402 56.2507 32.6278 56.3719 32.6519C56.4932 32.676 56.6045 32.7355 56.6919 32.823C56.7794 32.9104 56.8389 33.0217 56.863 33.143C56.8871 33.2642 56.8747 33.3899 56.8274 33.5041C56.7801 33.6183 56.7 33.7159 56.5972 33.7846C56.4945 33.8532 56.3736 33.8899 56.25 33.8899C56.0843 33.8898 55.9254 33.8239 55.8082 33.7067C55.691 33.5895 55.6251 33.4306 55.625 33.2649Z" fill="#DFCA0F"/>
</svg>
