<svg width="12" height="8" viewBox="0 0 12 8" fill="none" xmlns="http://www.w3.org/2000/svg">
<path fill-rule="evenodd" clip-rule="evenodd" d="M10.9089 3.81889C10.9089 3.96355 10.8515 4.10229 10.7492 4.20458C10.6469 4.30687 10.5081 4.36434 10.3635 4.36434L0.545402 4.36434C0.40074 4.36434 0.262003 4.30687 0.159711 4.20458C0.0574194 4.10229 -4.70594e-05 3.96355 -4.7054e-05 3.81889C-4.70486e-05 3.67422 0.0574195 3.53549 0.159712 3.4332C0.262003 3.3309 0.40074 3.27344 0.545402 3.27344L10.3635 3.27344C10.5081 3.27344 10.6469 3.3309 10.7492 3.4332C10.8515 3.53549 10.9089 3.67422 10.9089 3.81889Z" fill="black" fill-opacity="0.5"/>
<path fill-rule="evenodd" clip-rule="evenodd" d="M11.8406 3.43265C11.8914 3.48332 11.9317 3.54351 11.9592 3.60978C11.9867 3.67605 12.0009 3.74709 12.0009 3.81883C12.0009 3.89058 11.9867 3.96162 11.9592 4.02788C11.9317 4.09415 11.8914 4.15434 11.8406 4.20501L8.56791 7.4777C8.46549 7.58013 8.32658 7.63766 8.18174 7.63766C8.03689 7.63766 7.89798 7.58013 7.79556 7.4777C7.69314 7.37528 7.6356 7.23637 7.6356 7.09153C7.6356 6.94668 7.69314 6.80777 7.79556 6.70535L10.6832 3.81883L7.79556 0.932316C7.69314 0.829895 7.6356 0.690983 7.6356 0.546138C7.6356 0.401293 7.69314 0.262381 7.79556 0.15996C7.89798 0.0575393 8.03689 -2.0149e-07 8.18174 -1.94128e-07C8.32658 -1.86765e-07 8.46549 0.0575393 8.56791 0.15996L11.8406 3.43265Z" fill="black" fill-opacity="0.5"/>
</svg>
