<svg width="135" height="74" viewBox="0 0 135 74" fill="none" xmlns="http://www.w3.org/2000/svg">
<g clip-path="url(#clip0)">
<path fill-rule="evenodd" clip-rule="evenodd" d="M67.8367 49.2867C67.209 49.2867 66.6934 48.7776 66.6934 48.158C66.6934 47.5383 67.209 47.0293 67.8367 47.0293H85.0984C86.2641 47.0293 87.3177 46.5645 88.0799 45.812C88.8421 45.0596 89.3129 44.0194 89.3129 42.8685C89.3129 41.7177 88.8421 40.6775 88.0799 39.9251C87.3177 39.1726 86.2641 38.7078 85.0984 38.7078C83.9327 38.7078 82.879 39.1726 82.1168 39.9251C81.3546 40.6775 80.8838 41.7177 80.8838 42.8685C80.8838 43.4882 80.3682 43.9973 79.7405 43.9973C79.1128 43.9973 78.5972 43.4882 78.5972 42.8685C78.5972 41.098 79.3146 39.4824 80.5027 38.3316C81.6909 37.1586 83.305 36.4504 85.0984 36.4504C86.8918 36.4504 88.5283 37.1586 89.694 38.3316C90.8822 39.5046 91.5995 41.098 91.5995 42.8685C91.5995 44.6391 90.8822 46.2547 89.694 47.4055C88.5059 48.5785 86.8918 49.2867 85.0984 49.2867H67.8367Z" fill="#FC5D5D"/>
<path fill-rule="evenodd" clip-rule="evenodd" d="M55.9773 32.2898C55.9773 31.6701 56.4929 31.1611 57.1206 31.1611C57.7483 31.1611 58.2639 31.6701 58.2639 32.2898V47.0293H66.6706V39.5489L63.0389 41.6292C62.5009 41.9391 61.7835 41.762 61.4697 41.2087C61.1558 40.6776 61.3352 39.9694 61.8956 39.6595L67.1414 36.6718C67.2086 36.6275 67.2759 36.5833 67.3431 36.5611L76.4672 31.3603C77.476 30.7848 78.1485 29.8553 78.4175 28.8373C78.6865 27.7971 78.5745 26.6684 77.9916 25.6725C77.4087 24.6766 76.4672 24.0126 75.436 23.7471C74.4047 23.4815 73.239 23.5921 72.2302 24.1675C71.2214 24.743 70.5489 25.6725 70.2575 26.6905C69.9884 27.7307 70.1005 28.8594 70.6834 29.8553C70.9972 30.3865 70.8179 31.0947 70.2575 31.4045C69.7194 31.7144 69.0021 31.5373 68.6882 30.984C67.7915 29.457 67.6122 27.7086 68.0381 26.1151C68.464 24.5216 69.5177 23.1052 71.0645 22.22C72.6113 21.3347 74.3823 21.1577 75.9964 21.5782C77.5657 21.9987 78.978 22.9946 79.8747 24.4774C79.9195 24.5438 79.9644 24.6102 79.9868 24.6766C80.8386 26.1815 80.9956 27.8856 80.5696 29.4348C80.1437 30.984 79.1349 32.3783 77.6329 33.2636C77.5881 33.3078 77.5208 33.33 77.4536 33.3742L68.8676 38.2653V48.1801C68.8676 48.7998 68.3519 49.3088 67.7242 49.3088H57.0085C56.3808 49.3088 55.8652 48.7998 55.8652 48.1801V32.2898H55.9773Z" fill="#FFCB59"/>
<path fill-rule="evenodd" clip-rule="evenodd" d="M46.4045 38.7521C45.7768 38.7521 45.2612 38.2431 45.2612 37.6234C45.2612 37.0037 45.7768 36.4947 46.4045 36.4947C48.1979 36.4947 49.8344 37.2029 51.0001 38.3759C52.1659 39.5267 52.9056 41.1423 52.9056 42.9128C52.9056 44.6833 52.1883 46.2989 51.0001 47.4497C49.812 48.6006 48.1979 49.3309 46.4045 49.3309C44.6111 49.3309 42.9746 48.6227 41.8088 47.4497C40.6207 46.2989 39.9033 44.6833 39.9033 42.9128V32.2897C39.9033 31.67 40.4189 31.161 41.0466 31.161C41.6743 31.161 42.1899 31.67 42.1899 32.2897V42.9128C42.1899 44.0636 42.6607 45.1038 43.4229 45.8563C44.1851 46.6087 45.2388 47.0735 46.4045 47.0735C47.5702 47.0735 48.6238 46.6087 49.3861 45.8563C50.1483 45.1038 50.619 44.0636 50.619 42.9128C50.619 41.762 50.1483 40.7218 49.3861 39.9693C48.6238 39.2168 47.5702 38.7521 46.4045 38.7521Z" fill="#69D9E2"/>
<path fill-rule="evenodd" clip-rule="evenodd" d="M30.3313 38.7521C29.7036 38.7521 29.188 38.2431 29.188 37.6234C29.188 37.0037 29.7036 36.4947 30.3313 36.4947C32.1247 36.4947 33.7612 37.2029 34.9269 38.3759C36.0926 39.5267 36.8324 41.1423 36.8324 42.9128C36.8324 44.6833 36.1151 46.2989 34.9269 47.4498C33.7388 48.6006 32.1247 49.3309 30.3313 49.3309C28.5379 49.3309 26.9014 48.6227 25.7356 47.4498C24.5475 46.2989 23.8301 44.6833 23.8301 42.9128V27.7528C23.8301 26.602 23.3593 25.5618 22.5971 24.8093C21.8349 24.0568 20.7813 23.5921 19.6156 23.5921C18.4498 23.5921 17.3962 24.0568 16.634 24.8093C15.8718 25.5618 15.401 26.602 15.401 27.7528C15.401 28.9036 15.8718 29.9438 16.634 30.6963C17.3962 31.4487 18.4498 31.9135 19.6156 31.9135C20.2433 31.9135 20.7589 32.4225 20.7589 33.0422V48.158C20.7589 48.7777 20.2433 49.2867 19.6156 49.2867H1.14331C0.515609 49.2867 0 48.7777 0 48.158C0 47.5383 0.515609 47.0293 1.14331 47.0293H18.4723V34.0824C17.1272 33.8389 15.9391 33.2193 15.0199 32.3119C13.8318 31.1389 13.1144 29.5454 13.1144 27.7749C13.1144 26.0044 13.8318 24.3888 15.0199 23.238C16.2081 22.065 17.8221 21.3568 19.6156 21.3568C21.409 21.3568 23.0455 22.065 24.2112 23.238C25.3994 24.4109 26.1167 26.0044 26.1167 27.7749V42.935C26.1167 44.0858 26.5875 45.126 27.3497 45.8784C28.1119 46.6309 29.1656 47.0957 30.3313 47.0957C31.497 47.0957 32.5506 46.6309 33.3128 45.8784C34.0751 45.126 34.5458 44.0858 34.5458 42.935C34.5458 41.7841 34.0751 40.7439 33.3128 39.9915C32.5506 39.2169 31.497 38.7521 30.3313 38.7521Z" fill="#A9DE68"/>
<path fill-rule="evenodd" clip-rule="evenodd" d="M14.5715 41.4963C15.3561 41.4963 16.0062 42.1381 16.0062 42.9128C16.0062 43.6874 15.3561 44.3292 14.5715 44.3292C13.7868 44.3292 13.1367 43.6874 13.1367 42.9128C13.1367 42.1381 13.7644 41.4963 14.5715 41.4963Z" fill="#69D9E2"/>
<path fill-rule="evenodd" clip-rule="evenodd" d="M33.0217 31.161C33.8063 31.161 34.4564 31.8028 34.4564 32.5774C34.4564 33.352 33.8063 33.9938 33.0217 33.9938C32.237 33.9938 31.5869 33.352 31.5869 32.5774C31.5869 31.7807 32.2146 31.161 33.0217 31.161Z" fill="#FFCB59"/>
<path fill-rule="evenodd" clip-rule="evenodd" d="M33.0217 25.4733C33.8063 25.4733 34.4564 26.1151 34.4564 26.8897C34.4564 27.6643 33.8063 28.3061 33.0217 28.3061C32.237 28.3061 31.5869 27.6643 31.5869 26.8897C31.5869 26.1151 32.2146 25.4733 33.0217 25.4733Z" fill="#FFCB59"/>
<path fill-rule="evenodd" clip-rule="evenodd" d="M8.81072 41.4963C9.59534 41.4963 10.2455 42.1381 10.2455 42.9128C10.2455 43.6874 9.59534 44.3292 8.81072 44.3292C8.02609 44.3292 7.37598 43.6874 7.37598 42.9128C7.37598 42.1381 8.02609 41.4963 8.81072 41.4963Z" fill="#69D9E2"/>
<path d="M49.2746 54.399C50.067 54.399 50.7093 53.7648 50.7093 52.9826C50.7093 52.2003 50.067 51.5662 49.2746 51.5662C48.4822 51.5662 47.8398 52.2003 47.8398 52.9826C47.8398 53.7648 48.4822 54.399 49.2746 54.399Z" fill="#FC5D5D"/>
<path d="M43.5353 54.399C44.3277 54.399 44.9701 53.7648 44.9701 52.9826C44.9701 52.2003 44.3277 51.5662 43.5353 51.5662C42.7429 51.5662 42.1006 52.2003 42.1006 52.9826C42.1006 53.7648 42.7429 54.399 43.5353 54.399Z" fill="#FC5D5D"/>
<path fill-rule="evenodd" clip-rule="evenodd" d="M124.755 63.3622C126.459 65.1106 129.889 64.159 129.508 60.5737C129.284 58.4491 127.961 57.94 126.907 57.8515C126.19 57.763 125.204 57.9622 123.903 58.5819C123.926 58.781 123.948 58.9581 123.948 59.1351C123.971 60.7729 122.895 60.972 122.895 60.972C122.895 60.972 123.343 62.1007 124.755 63.3622Z" fill="#4D4D4D"/>
<path fill-rule="evenodd" clip-rule="evenodd" d="M82.8559 12.7477C82.4747 12.5042 82.0936 12.2387 81.7574 12.0173C81.4659 11.8182 81.1745 11.619 80.9055 11.4198C80.8158 11.8624 80.7934 12.3272 80.8607 12.7698C80.9279 13.2346 81.1073 13.6993 81.3763 14.1198L82.8559 12.7477ZM81.7125 6.50661C81.9143 6.21891 82.0264 5.8648 82.0488 5.53283C82.0712 5.06807 81.8919 4.60331 81.5556 4.22708C81.2193 3.87297 80.7486 3.67379 80.2778 3.65166C79.807 3.62953 79.3363 3.80658 78.9552 4.13855C78.5965 4.47052 78.3947 4.93528 78.3723 5.40004C78.3499 5.8648 78.5292 6.32956 78.8655 6.7058C79.2017 7.0599 79.6725 7.25908 80.1433 7.28121C80.502 7.28121 80.8382 7.21482 81.1521 7.01564L85.5011 11.5968L84.582 12.4378L84.2458 12.7477C84.044 12.637 83.8646 12.5042 83.6853 12.3936C83.6629 12.3714 83.6629 12.3714 83.6405 12.3714C83.1249 12.0395 82.6317 11.7075 82.1833 11.3977C81.735 11.0878 81.309 10.778 80.9055 10.4903C80.9055 10.4903 80.8831 10.4903 80.8831 10.4681C80.0536 9.84846 79.3587 9.27304 78.7982 8.74189C77.6325 7.61318 77.0496 6.66153 76.8255 5.70988C76.4444 4.11642 76.0184 1.90328 75.8391 0.885232C76.8703 1.15081 79.0672 1.7041 80.6589 2.16885C81.6004 2.45656 82.542 3.07624 83.5956 4.3156C84.1112 4.89102 84.6269 5.59923 85.2097 6.48448C85.2097 6.48448 85.2097 6.50661 85.2321 6.50661C85.5012 6.90498 85.7702 7.34761 86.0616 7.81237C86.353 8.27713 86.6445 8.78615 86.9583 9.3173C86.9583 9.33944 86.9807 9.36157 86.9807 9.36157C87.0928 9.53862 87.2049 9.7378 87.2946 9.93698L86.9583 10.2468L86.0392 11.0878L81.7125 6.50661ZM80.233 4.40413C79.9639 4.40413 79.6725 4.49265 79.4708 4.69184C79.2466 4.89102 79.1345 5.1566 79.1345 5.42217C79.1345 5.68775 79.2242 5.97546 79.4259 6.17464C79.6277 6.39596 79.8967 6.50661 80.1657 6.50661C80.4347 6.50661 80.7262 6.41809 80.9279 6.21891C81.1521 6.01972 81.2642 5.75415 81.2642 5.48857C81.2642 5.22299 81.1745 4.93528 80.9728 4.7361C80.771 4.53692 80.502 4.42626 80.233 4.40413ZM85.7029 5.84267C86.353 5.68775 87.048 5.68775 87.6981 5.84267C88.4155 5.99759 89.1104 6.35169 89.6933 6.88285C89.8502 7.01564 89.8502 7.25908 89.7157 7.414L89.6933 7.43613L87.7654 9.22878C87.8774 9.42796 87.9895 9.62714 88.1016 9.82633C88.1913 9.98125 88.1465 10.1583 88.0344 10.2911L87.7205 10.5788C87.7878 10.6673 87.8774 10.8001 87.9447 10.9108C88.124 11.1763 88.3258 11.4641 88.4379 11.6632C88.5276 11.8182 88.4827 11.9952 88.3706 12.128L87.3618 13.0575L86.353 13.987C86.2185 14.1198 85.9943 14.1198 85.8598 14.0092C85.6581 13.8764 85.4115 13.6772 85.1649 13.5001C85.0528 13.4116 84.9407 13.3231 84.851 13.2567L84.5372 13.5444C84.4027 13.6772 84.2009 13.6772 84.044 13.5665C83.8422 13.4559 83.6629 13.3231 83.4835 13.2124L81.5556 15.0051L81.5332 15.0272C81.3763 15.16 81.1297 15.1379 80.9952 14.9829C80.502 14.3854 80.1881 13.6772 80.076 12.9469C79.964 12.305 80.0088 11.619 80.2105 10.9993C79.4259 10.4017 78.7982 9.87059 78.2602 9.36157C76.9824 8.12221 76.3323 7.0599 76.0857 5.97546C75.5701 3.82871 74.9872 0.553261 74.9872 0.531129C74.9424 0.331947 75.0993 0.132764 75.301 0.088501C75.3683 0.088501 75.4131 0.088501 75.458 0.088501C75.6149 0.132764 78.7982 0.907364 80.8831 1.52704C81.9591 1.85901 83.0128 2.54509 84.1785 3.89511C84.6717 4.382 85.1649 5.04594 85.7029 5.84267ZM86.7117 7.414C86.9359 7.7681 87.1601 8.14434 87.3842 8.5427L88.8638 7.17056C88.4603 6.88285 88.0119 6.68367 87.5412 6.57301C87.0928 6.46235 86.622 6.46235 86.1737 6.52875C86.3306 6.79432 86.5324 7.10416 86.7117 7.414ZM85.4339 12.6813C85.5012 12.7477 85.5908 12.7919 85.6581 12.8583C85.7926 12.969 85.9495 13.0796 86.084 13.1682L86.8462 12.46L87.6084 11.7518C87.5188 11.619 87.4067 11.4641 87.317 11.3313C87.2722 11.2427 87.2049 11.1763 87.1601 11.0878L86.3082 11.8845L85.4339 12.6813Z" fill="#B8F073"/>
<path fill-rule="evenodd" clip-rule="evenodd" d="M117.962 42.4702C117.962 42.4702 117.715 44.285 116.213 44.4621C114.711 44.6391 114.666 43.3997 114.622 43.0678L111.685 42.426L108.277 46.6973C108.277 46.6973 110.945 48.2023 112.021 48.4236L113.097 47.3834C113.097 47.3834 112.335 50.172 111.887 51.7433C111.887 51.7433 121.907 56.0368 128.364 50.5925C128.364 50.5925 128.431 42.1825 121.616 39.3718C120.831 40.5227 119.531 41.5407 117.962 42.4702Z" fill="#69D9E2"/>
<path fill-rule="evenodd" clip-rule="evenodd" d="M121.369 60.4188L122.916 60.9721C122.916 60.9721 124.216 60.7286 123.925 58.5819L122.086 58.3827L121.369 60.4188Z" fill="#FFCB59"/>
<path fill-rule="evenodd" clip-rule="evenodd" d="M122.065 54.8416C122.311 55.417 122.446 56.1916 122.491 56.8113C122.603 58.4712 122.199 60.0868 121.37 61.5253C121.347 61.5696 121.303 61.5917 121.258 61.5917C120.54 61.4589 119.823 61.3261 119.128 61.1712C117.536 60.8392 115.945 60.4409 114.376 59.9982C113.344 59.7105 112.313 59.3786 111.327 59.0023C110.565 58.7146 109.78 58.3384 109.085 57.8958C107.762 57.0548 106.597 55.7933 106.753 54.1334C106.821 53.3367 107.179 52.6727 107.919 52.2965C109.175 51.6768 111.17 51.9867 112.492 52.2965C114.667 52.8055 116.841 53.3588 119.016 53.9342C120.002 54.1998 121.011 54.4875 121.998 54.7752C122.042 54.7752 122.065 54.7974 122.065 54.8416Z" fill="#A9DE68"/>
<path fill-rule="evenodd" clip-rule="evenodd" d="M125.764 47.4497C125.607 48.667 124.912 49.8178 123.298 50.7473C123.432 50.8358 123.567 50.9244 123.701 50.9908C123.746 50.9686 123.813 50.9686 123.858 50.9465C124.15 50.8801 124.419 50.8137 124.665 50.7473C125.831 49.6629 126.257 48.5342 126.212 47.4055C126.19 46.6087 126.055 45.6128 125.764 44.639C125.898 45.6571 125.853 46.653 125.764 47.4497Z" fill="#2AB7C7"/>
<path fill-rule="evenodd" clip-rule="evenodd" d="M112.649 56.7006C112.649 56.7006 109.69 56.2137 107.829 56.9441C105.969 57.6965 105.789 59.8433 106.484 61.481C107.134 62.9859 109.735 64.1368 112.851 61.4367H112.829C113.905 60.5957 113.837 60.1531 113.837 60.1531C113.748 60.1752 113.658 60.1974 113.546 60.1974C112.515 60.2859 111.618 59.5334 111.528 58.5375C111.483 57.7408 111.954 57.0105 112.649 56.7006ZM112.851 61.4367L112.784 61.481L112.716 61.5253H112.694L112.649 61.5695L112.604 61.6138H112.582L112.515 61.658L112.447 61.7023L112.425 61.7244L112.358 61.7687C112.291 61.813 112.246 61.8351 112.178 61.8794C112.111 61.9236 112.066 61.9458 111.999 61.99C112.066 61.9458 112.134 61.9236 112.178 61.8794L112.851 61.4367Z" fill="#4D4D4D"/>
<path fill-rule="evenodd" clip-rule="evenodd" d="M113.254 56.5458C114.285 56.4572 115.182 57.2097 115.272 58.2056C115.361 59.2237 114.599 60.1089 113.59 60.1975C112.559 60.286 111.662 59.5335 111.573 58.5376C111.483 57.5417 112.223 56.6343 113.254 56.5458Z" fill="#FFCB59"/>
<path fill-rule="evenodd" clip-rule="evenodd" d="M114.286 61.5254C113.3 59.9319 112.762 58.0729 112.829 56.1917C112.851 55.4835 112.963 54.5761 113.232 53.9122C113.255 53.89 113.277 53.8458 113.3 53.8458C114.421 53.4695 115.541 53.1154 116.685 52.7835C119.128 52.031 121.572 51.3228 124.038 50.6588C125.54 50.2605 127.804 49.8179 129.261 50.4818C130.135 50.8802 130.539 51.6105 130.673 52.5179C130.763 53.1154 130.673 53.7351 130.449 54.2884C129.709 56.1696 127.468 57.4753 125.674 58.2278C124.553 58.7147 123.388 59.1131 122.222 59.4893C120.451 60.0647 118.658 60.5516 116.842 60.9942C116.035 61.1934 115.228 61.3926 114.421 61.5696C114.376 61.5696 114.308 61.5475 114.286 61.5254Z" fill="#A9DE68"/>
<path fill-rule="evenodd" clip-rule="evenodd" d="M107.403 47.5162C109.399 47.8703 111.551 48.2908 113.389 49.1539C115.967 49.1096 118.612 49.6851 121.034 50.5261C121.885 50.8138 122.737 51.1679 123.589 51.5441C123.858 51.6769 124.15 51.7875 124.419 51.9203C124.463 51.9425 124.486 51.9646 124.486 52.0089C124.486 52.0531 124.463 52.0753 124.441 52.1195L116.102 57.9843C116.057 58.0065 116.034 58.0065 115.99 58.0065C114.667 57.4311 113.299 56.9442 111.932 56.4794C110.116 55.8597 108.3 55.2622 106.462 54.6868C106.215 54.9302 105.834 55.1073 105.498 55.0187C105.184 54.9302 104.96 54.6425 104.938 54.3327C104.198 53.9564 103.391 53.6687 102.584 53.4474C101.127 53.0269 99.6021 52.7835 98.0777 52.6285C97.5397 52.5843 97.0016 52.5179 96.4412 52.4958C96.3964 52.4958 96.3515 52.4515 96.3291 52.4072C96.3291 52.363 96.3515 52.2966 96.3964 52.2744L107.359 47.5162C107.359 47.5162 107.381 47.4941 107.403 47.5162Z" fill="#4D4D4D"/>
<path fill-rule="evenodd" clip-rule="evenodd" d="M105.587 54.2884C104.915 53.7572 103.973 53.2924 103.166 52.9826C101.059 52.1195 98.7724 51.7654 96.5082 51.7875C96.4634 51.7875 96.4185 51.7432 96.3961 51.699C96.3737 51.6547 96.3961 51.5883 96.4634 51.5662L105.834 46.7858C105.856 46.7858 105.856 46.7858 105.879 46.7637C106.619 46.6751 107.515 46.7637 108.255 46.8743C110.093 47.1842 111.797 47.9366 113.299 49.0432C113.322 49.0653 113.344 49.1096 113.344 49.1317C113.344 49.176 113.322 49.1981 113.299 49.2203L105.744 54.2662C105.677 54.3105 105.632 54.3105 105.587 54.2884Z" fill="#E6E6E6"/>
<path fill-rule="evenodd" clip-rule="evenodd" d="M113.433 49.1318C116.191 48.7113 119.083 48.8441 121.683 49.9064C122.401 50.1941 123.118 50.5703 123.768 51.013C123.97 51.1679 124.194 51.3007 124.373 51.4777C124.396 51.4999 124.418 51.5441 124.418 51.5662C124.418 51.6105 124.396 51.6326 124.373 51.6548L115.967 57.5417C115.922 57.5639 115.877 57.5639 115.832 57.5417C113.725 55.9925 111.281 54.7753 108.681 54.3548C107.896 54.222 106.551 54.1778 105.744 54.2663C106.753 53.6023 112.268 49.9064 113.411 49.1318C113.389 49.1539 113.411 49.1539 113.433 49.1318Z" fill="white"/>
<path fill-rule="evenodd" clip-rule="evenodd" d="M117.873 42.8906C116.774 43.1562 115.676 43.289 114.645 43.289C114.712 43.7537 114.936 44.639 116.214 44.4841C117.267 44.3513 117.693 43.4218 117.873 42.8906Z" fill="#FFCB59"/>
<path fill-rule="evenodd" clip-rule="evenodd" d="M105.588 54.2662C105.408 54.0891 105.206 53.9342 105.005 53.7793C104.422 53.3367 103.817 52.9162 103.166 52.5399C101.238 51.3891 99.0864 50.5924 96.867 50.2161C96.8222 50.2161 96.7773 50.1719 96.7773 50.1276C96.7773 50.0833 96.7998 50.0391 96.8446 50.0169L105.274 45.6349C105.296 45.6349 105.319 45.6128 105.341 45.6128C106.282 45.6792 107.291 45.9226 108.188 46.1882C108.973 46.4317 113.367 48.3792 113.434 49.1538C113.434 49.176 106.417 53.8457 105.744 54.2883C105.677 54.3104 105.632 54.3104 105.588 54.2662Z" fill="white"/>
<path fill-rule="evenodd" clip-rule="evenodd" d="M125.786 44.6613C125.898 45.6572 125.876 46.6531 125.763 47.4498C125.539 49.3089 123.992 51.0351 119.957 51.9868L118.522 49.8843C118.522 49.8843 120.518 48.667 121.818 47.5826L121.325 44.9047L125.786 44.6613Z" fill="#69D9E2"/>
<path fill-rule="evenodd" clip-rule="evenodd" d="M121.348 44.9047V47.9809C121.527 47.8481 121.684 47.7153 121.841 47.6047L121.348 44.9047Z" fill="#2AB7C7"/>
<path fill-rule="evenodd" clip-rule="evenodd" d="M109.13 53.3589C109.13 53.3589 113.479 53.8901 115.967 55.9704L116.999 55.3286C116.999 55.3286 115.228 53.3146 110.453 52.54L109.13 53.3589Z" fill="#F5F5F5"/>
<path fill-rule="evenodd" clip-rule="evenodd" d="M111.125 52.0973C111.125 52.0973 115.474 52.6285 117.962 54.7088L120.316 53.3146C120.316 53.3146 118.545 51.3006 113.77 50.526L111.125 52.0973Z" fill="#F5F5F5"/>
<path fill-rule="evenodd" clip-rule="evenodd" d="M114.308 50.1719C114.308 50.1719 118.657 50.703 121.145 52.7834L122.176 52.1416C122.176 52.1416 119.89 50.4374 115.115 49.6628L114.308 50.1719Z" fill="#F5F5F5"/>
<path fill-rule="evenodd" clip-rule="evenodd" d="M118.522 49.9063C118.545 49.8842 119.06 50.703 119.06 50.703L119.935 52.0088C121.123 51.7211 122.087 51.3891 122.872 50.9907C123.006 50.9243 123.163 50.8358 123.297 50.7694C122.468 50.2604 121.213 49.6629 119.509 49.2866C119.173 49.5079 118.881 49.685 118.702 49.7956C118.59 49.862 118.522 49.9063 118.522 49.9063Z" fill="#69D9E2"/>
<path fill-rule="evenodd" clip-rule="evenodd" d="M118.522 49.9063C118.522 49.9063 117.2 49.8399 116.684 49.7735C116.168 49.7072 115.989 50.3932 117.11 50.6145C117.11 50.6145 116.168 51.1236 115.608 51.4334C115.047 51.7432 115.541 52.4072 116.908 51.7654C116.908 51.7654 116.841 51.876 116.37 52.3851C115.922 52.8941 116.527 53.6023 117.827 52.2744L117.536 53.0269C117.536 53.0269 116.796 54.6867 119.935 51.9867L119.06 50.6809C119.06 50.6809 118.545 49.8842 118.522 49.9063Z" fill="#FFCB59"/>
<path fill-rule="evenodd" clip-rule="evenodd" d="M99.4004 49.7736C99.4004 49.7736 102.987 50.3047 105.812 52.7613L106.484 52.4072C106.484 52.4072 104.579 50.3047 100.521 49.2424L99.4004 49.7736Z" fill="#F5F5F5"/>
<path fill-rule="evenodd" clip-rule="evenodd" d="M101.015 48.9326C101.015 48.9326 104.377 49.3752 107.135 51.9204L108.659 50.9244C108.659 50.9244 106.843 49.2203 102.808 48.0474L101.015 48.9326Z" fill="#F5F5F5"/>
<path fill-rule="evenodd" clip-rule="evenodd" d="M103.256 47.7596C103.256 47.7596 106.417 48.0252 109.152 50.5482L111.461 49.0211C111.461 49.0211 109.735 47.6932 105.699 46.5203L103.256 47.7596Z" fill="#F5F5F5"/>
<path fill-rule="evenodd" clip-rule="evenodd" d="M100.297 42.4923C100.297 42.2931 100.454 42.1382 100.633 42.1161C100.835 42.1161 100.992 42.271 101.014 42.4481C101.014 42.6694 101.037 42.8686 101.037 43.112C101.037 43.3333 101.037 43.5546 101.059 43.7759C101.059 43.9751 100.902 44.1301 100.7 44.1301C100.499 44.1301 100.342 43.9751 100.342 43.7759C100.342 43.5546 100.342 43.3333 100.319 43.112C100.319 42.935 100.319 42.7136 100.297 42.4923Z" fill="#B8F073"/>
<path fill-rule="evenodd" clip-rule="evenodd" d="M99.2657 34.6799C99.2208 34.4808 99.3329 34.3037 99.5347 34.2594C99.7364 34.2152 99.9158 34.3258 99.9606 34.525C100.162 35.4103 100.342 36.3398 100.499 37.3136C100.656 38.221 100.768 39.1726 100.857 40.1464C100.88 40.3456 100.723 40.5226 100.543 40.5226C100.342 40.5448 100.162 40.3898 100.162 40.2128C100.073 39.2611 99.9606 38.3316 99.8037 37.4242C99.6468 36.4726 99.4674 35.5652 99.2657 34.6799Z" fill="#B8F073"/>
<path fill-rule="evenodd" clip-rule="evenodd" d="M88.0342 14.5846C87.8772 14.4518 87.8772 14.2305 87.9893 14.0755C88.1238 13.9206 88.348 13.9206 88.5049 14.0313C88.5273 14.0534 95.8131 20.2059 99.2655 31.8692C99.3103 32.0463 99.2206 32.2454 99.0189 32.3118C98.8395 32.3561 98.6378 32.2676 98.5705 32.0684C95.1854 20.6264 88.0566 14.6067 88.0342 14.5846Z" fill="#B8F073"/>
<path fill-rule="evenodd" clip-rule="evenodd" d="M111.618 42.8243C115.384 44.2186 122.356 42.4038 125.36 38.5308C125.786 37.9776 126.145 37.38 126.391 36.7382C126.391 36.7382 126.616 35.8751 126.347 34.1267C126.347 34.1267 127.647 33.2193 128.006 32.1791C128.319 31.2939 127.086 28.461 125.383 29.3242V29.302C123.208 22.8839 119.711 21.6224 117.043 21.9101C114.375 22.1978 108.569 23.238 106.417 26.2479C104.243 29.2578 105.543 33.0201 105.543 33.0201C105.543 33.0201 106.036 34.3259 106.26 35.9636C106.44 37.5792 107.314 41.2309 111.618 42.8243Z" fill="#FFCB59"/>
<path fill-rule="evenodd" clip-rule="evenodd" d="M121.28 27.3324C121.684 28.3061 121.796 29.2357 121.572 30.2758C121.572 30.3201 121.549 30.3422 121.527 30.3422C121.504 30.3644 121.46 30.3644 121.437 30.3422C120.832 30.143 119.554 30.1652 118.904 30.1873C117.38 30.1873 115.855 30.2094 114.353 30.0988C112.313 29.966 109.332 29.5455 108.009 27.8192C107.785 27.5315 107.605 27.1996 107.493 26.8455C107.112 27.9078 106.754 28.9922 106.395 30.0767C106.216 30.6299 106.036 31.2054 105.857 31.7808C105.767 32.1127 105.655 32.4447 105.588 32.7767C105.565 32.821 105.543 32.8652 105.498 32.8652C105.453 32.8652 105.408 32.8431 105.386 32.7988C105.274 32.5775 105.184 32.2898 105.117 32.0464C104.915 31.3603 104.826 30.6299 104.826 29.9217C104.803 27.6865 105.677 25.7168 107.247 24.1233C106.91 23.9462 106.462 23.8356 106.059 23.8135C106.014 23.8135 105.969 23.7692 105.947 23.7249C105.924 23.6807 105.947 23.6364 105.991 23.5921C106.664 23.061 107.404 22.5741 108.143 22.1093C109.847 21.047 111.73 20.1175 113.681 19.5642C115.026 19.188 116.438 18.9667 117.85 19.1437C117.85 18.679 117.693 18.1478 117.492 17.7273C117.469 17.6831 117.492 17.6388 117.514 17.5945C117.559 17.5724 117.604 17.5503 117.649 17.5945C118.344 18.0372 119.128 18.7011 119.577 19.4093C119.711 19.1437 119.98 18.8339 120.227 18.6568C120.81 18.1699 121.527 17.8822 122.289 17.7273C122.334 17.7273 122.379 17.7494 122.401 17.7937C122.424 17.838 122.424 17.8822 122.379 17.9265C122.244 18.0593 122.132 18.2142 122.02 18.3691C121.617 18.9667 121.415 19.6527 121.415 20.361C122.132 20.5159 122.939 20.9142 123.567 21.2683C125.271 22.2643 126.661 23.7471 127.692 25.4069C128.947 27.4651 129.014 29.8775 128.476 32.1791C128.252 33.1529 127.894 34.1046 127.468 35.012C127.243 35.4767 126.997 35.9636 126.705 36.3841C126.683 36.4284 126.616 36.4505 126.571 36.4284C126.526 36.4062 126.481 36.362 126.504 36.3177C126.571 35.6538 126.481 34.8792 126.392 34.2374C126.392 34.1931 126.392 34.171 126.414 34.1488C126.862 33.7062 127.266 33.0201 127.468 32.4447C127.669 31.8693 127.737 31.1168 127.199 30.6963C126.548 30.1873 125.585 30.5193 125.024 30.984C124.262 31.5816 123.903 32.489 123.791 33.4406C123.791 33.507 123.746 33.5292 123.679 33.5513C123.612 33.5513 123.567 33.507 123.567 33.4628C123.231 32.1127 122.267 28.0406 121.28 27.3324Z" fill="#4D4D4D"/>
<path fill-rule="evenodd" clip-rule="evenodd" d="M110.43 33.2192C111.417 33.2192 112.224 34.1266 112.224 35.2553C112.224 36.384 111.417 37.2914 110.43 37.2914C109.444 37.2914 108.637 36.384 108.637 35.2553C108.637 34.1488 109.444 33.2192 110.43 33.2192Z" fill="white"/>
<path fill-rule="evenodd" clip-rule="evenodd" d="M118.411 33.4626C119.397 33.4626 120.204 34.37 120.204 35.4987C120.204 36.6274 119.397 37.5348 118.411 37.5348C117.424 37.5348 116.617 36.6274 116.617 35.4987C116.617 34.37 117.402 33.4626 118.411 33.4626Z" fill="white"/>
<path fill-rule="evenodd" clip-rule="evenodd" d="M110.519 35.5209C110.923 35.5209 111.237 35.8307 111.237 36.2291C111.237 36.6274 110.923 36.9373 110.519 36.9373C110.116 36.9373 109.802 36.6274 109.802 36.2291C109.802 35.8307 110.116 35.5209 110.519 35.5209Z" fill="#333333"/>
<path fill-rule="evenodd" clip-rule="evenodd" d="M118.321 35.7201C118.724 35.7201 119.038 36.0299 119.038 36.4283C119.038 36.8267 118.724 37.1365 118.321 37.1365C117.917 37.1365 117.604 36.8267 117.604 36.4283C117.604 36.0299 117.917 35.7201 118.321 35.7201Z" fill="#333333"/>
<path fill-rule="evenodd" clip-rule="evenodd" d="M114.151 35.8971C114.151 35.8307 114.24 35.7643 114.308 35.7864C114.375 35.7864 114.442 35.875 114.42 35.9414C114.42 35.9414 114.33 36.6717 113.792 37.0479C113.68 37.1365 113.568 37.2471 113.523 37.3799C113.478 37.4684 113.478 37.557 113.5 37.6455C113.523 37.734 113.59 37.8004 113.68 37.8889C113.837 37.9996 114.061 38.066 114.42 38.0881C114.487 38.0881 114.554 38.1545 114.554 38.243C114.554 38.3094 114.487 38.3758 114.397 38.3758C113.994 38.3316 113.702 38.243 113.523 38.1102C113.366 37.9996 113.276 37.8668 113.231 37.7119C113.187 37.5791 113.209 37.4242 113.254 37.2914C113.321 37.1143 113.456 36.9594 113.613 36.8488C114.083 36.4947 114.151 35.8971 114.151 35.8971Z" fill="#C2932D"/>
<path fill-rule="evenodd" clip-rule="evenodd" d="M112.425 39.4161C112.38 39.3497 112.38 39.2833 112.447 39.2169C112.514 39.1726 112.582 39.1726 112.649 39.239C112.649 39.239 114.442 41.3858 117.424 39.1948C117.491 39.1505 117.581 39.1726 117.626 39.2169C117.671 39.2833 117.648 39.3718 117.603 39.4161C114.398 41.762 112.425 39.4382 112.425 39.4161Z" fill="#C2932D"/>
<path fill-rule="evenodd" clip-rule="evenodd" d="M117.693 43.3111C117.761 43.1562 117.805 43.0234 117.85 42.8906C116.752 43.1562 115.653 43.289 114.622 43.289C114.622 43.3333 114.644 43.3996 114.644 43.466C115.608 43.5324 116.64 43.466 117.693 43.3111Z" fill="#C2932D"/>
<path fill-rule="evenodd" clip-rule="evenodd" d="M134.439 56.745C131.659 55.8597 131.323 47.9366 128.924 44.7054C126.548 41.4742 123.454 40.3677 123.454 40.3677C127.713 43.3112 128.252 48.7555 128.341 50.2162C128.677 50.2604 128.991 50.349 129.26 50.4818C130.135 50.8801 130.538 51.6105 130.673 52.5178C130.762 53.1154 130.673 53.7351 130.448 54.2884C129.91 55.6605 128.588 56.7228 127.198 57.4974C129.664 57.4974 137.107 57.6081 134.439 56.745Z" fill="#FC5D5D"/>
<path fill-rule="evenodd" clip-rule="evenodd" d="M120.428 42.0496C119.598 42.4037 118.724 42.6693 117.872 42.8685C117.693 43.4218 117.267 44.3291 116.236 44.4619C114.958 44.6169 114.734 43.7537 114.667 43.2668C113.658 43.2668 112.716 43.1562 111.909 42.8906C112.111 42.957 112.918 43.289 113.434 44.2185C114.016 45.2808 115.115 45.812 116.191 45.7013C118.993 45.3915 120.361 40.6775 125.27 41.939C126.615 42.2931 128.028 43.2447 129.305 45.2144C129.193 45.0152 129.081 44.8382 128.947 44.6611C126.57 41.4299 123.477 40.3234 123.477 40.3234C122.558 41.0316 121.504 41.607 120.428 42.0496Z" fill="#FC5D5D"/>
<path fill-rule="evenodd" clip-rule="evenodd" d="M117.693 43.3112C119.89 42.9571 122.199 42.0939 124.038 40.8103C124.082 40.766 124.15 40.7439 124.195 40.6996C123.724 40.4562 123.432 40.3677 123.432 40.3677C121.841 41.5628 119.823 42.4259 117.828 42.8907C117.828 43.0013 117.761 43.1562 117.693 43.3112Z" fill="#ED4040"/>
<path fill-rule="evenodd" clip-rule="evenodd" d="M121.84 60.5959C121.997 60.2196 122.132 59.8655 122.222 59.4672C122.02 59.5336 121.818 59.6 121.616 59.6663C120.271 60.0868 118.926 60.4631 117.581 60.795C118.097 60.9057 118.612 61.0164 119.128 61.127C119.419 61.1934 119.733 61.2598 120.025 61.3262C120.63 61.1049 121.213 60.8614 121.818 60.6401C121.818 60.618 121.84 60.618 121.84 60.5959Z" fill="#91CC4A"/>
<path fill-rule="evenodd" clip-rule="evenodd" d="M123.903 59.7548C123.948 59.5114 123.971 59.2237 123.948 58.8917C123.388 59.0909 122.805 59.2901 122.222 59.4671C122.11 59.8434 121.998 60.2196 121.841 60.5958L121.886 60.618C122.222 60.4852 122.558 60.3524 122.894 60.1975C123.231 60.0647 123.567 59.9098 123.903 59.7548Z" fill="#C2932D"/>
<path fill-rule="evenodd" clip-rule="evenodd" d="M123.902 59.7548C124.687 59.4007 125.449 59.0466 126.211 58.6261C126.615 58.4048 127.018 58.1835 127.444 57.8958C127.265 57.8515 127.108 57.8294 126.929 57.8294C126.817 57.8072 126.682 57.8073 126.548 57.8073C126.256 57.94 125.965 58.0728 125.696 58.2056C125.135 58.4491 124.552 58.6704 123.97 58.8696C123.97 59.2458 123.947 59.5335 123.902 59.7548Z" fill="#333333"/>
<path d="M20.32 67H18.676V63.268H15.496V67H13.852V58.12H15.496V61.732H18.676V58.12H20.32V67ZM26.0283 59.584H24.4323V58.12H26.0283V59.584ZM26.0283 67H24.4323V60.34H26.0283V67ZM36.1711 67H34.1551L31.8991 63.88H31.8751V67H30.2791V58.12H31.8751V63.472H31.8991L34.0231 60.34H35.8591L33.4591 63.604L36.1711 67ZM45.9127 67H44.4487V66.172C44.1847 66.484 43.8327 66.736 43.3927 66.928C42.9607 67.12 42.5367 67.216 42.1207 67.216C41.1527 67.216 40.3687 66.864 39.7687 66.16C39.1767 65.456 38.8807 64.612 38.8807 63.628C38.8807 62.652 39.1927 61.824 39.8167 61.144C40.4487 60.456 41.2487 60.112 42.2167 60.112C42.9527 60.112 43.6087 60.376 44.1847 60.904C44.3047 61.024 44.3847 61.116 44.4247 61.18H44.4487V60.34H45.9127V67ZM43.8607 65.14C44.2207 64.732 44.4007 64.236 44.4007 63.652C44.4007 63.068 44.2207 62.576 43.8607 62.176C43.5007 61.776 43.0327 61.576 42.4567 61.576C41.8807 61.576 41.4047 61.784 41.0287 62.2C40.6607 62.616 40.4767 63.116 40.4767 63.7C40.4767 64.268 40.6647 64.752 41.0407 65.152C41.4247 65.552 41.8967 65.752 42.4567 65.752C43.0327 65.752 43.5007 65.548 43.8607 65.14ZM55.9706 60.34L52.1426 69.22H50.4266L51.6506 66.376L49.2146 60.34H51.0386L52.5506 64.612L54.1586 60.34H55.9706ZM66.0755 67H64.6115V66.172C64.3475 66.484 63.9955 66.736 63.5555 66.928C63.1235 67.12 62.6995 67.216 62.2835 67.216C61.3155 67.216 60.5315 66.864 59.9315 66.16C59.3395 65.456 59.0435 64.612 59.0435 63.628C59.0435 62.652 59.3555 61.824 59.9795 61.144C60.6115 60.456 61.4115 60.112 62.3795 60.112C63.1155 60.112 63.7715 60.376 64.3475 60.904C64.4675 61.024 64.5475 61.116 64.5875 61.18H64.6115V60.34H66.0755V67ZM64.0235 65.14C64.3835 64.732 64.5635 64.236 64.5635 63.652C64.5635 63.068 64.3835 62.576 64.0235 62.176C63.6635 61.776 63.1955 61.576 62.6195 61.576C62.0435 61.576 61.5675 61.784 61.1915 62.2C60.8235 62.616 60.6395 63.116 60.6395 63.7C60.6395 64.268 60.8275 64.752 61.2035 65.152C61.5875 65.552 62.0595 65.752 62.6195 65.752C63.1955 65.752 63.6635 65.548 64.0235 65.14ZM72.8694 61.756H71.9094V67H70.3134V61.756H69.5334V60.34H70.3134V58.12H71.9094V60.34H72.8694V61.756ZM77.7511 59.584H76.1551V58.12H77.7511V59.584ZM77.7511 67H76.1551V60.34H77.7511V67Z" fill="#333333"/>
</g>
<defs>
<clipPath id="clip0">
<rect width="135" height="74" fill="white"/>
</clipPath>
</defs>
</svg>
