<svg width="112" height="112" viewBox="0 0 112 112" fill="none" xmlns="http://www.w3.org/2000/svg">
<path d="M56 112C86.9279 112 112 86.9279 112 56C112 25.0721 86.9279 0 56 0C25.0721 0 0 25.0721 0 56C0 86.9279 25.0721 112 56 112Z" fill="#6483F6"/>
<path fill-rule="evenodd" clip-rule="evenodd" d="M41.9272 41.3622C41.1589 41.3622 40.4437 41.1551 39.8067 40.8212C38.3134 40.0433 37.2845 38.4919 37.2844 36.6809C37.2844 34.0954 39.3628 32 41.9271 32C44.4918 32 46.5708 34.0954 46.5708 36.6809C46.5708 38.4909 45.5429 40.0417 44.0516 40.8206C43.4127 41.1551 42.6975 41.3622 41.9272 41.3622ZM52.9482 32.362H78.4644C79.3125 32.362 79.9999 33.0564 80 33.911V57.2339C80 58.0885 79.3126 58.782 78.4645 58.782H70.2764L74.4862 78.0532C74.6764 78.9175 74.1348 79.7721 73.277 79.9628C73.1624 79.9882 73.0467 79.9998 72.9335 79.9998C72.2044 80.0007 71.5469 79.4907 71.3835 78.7434L67.023 58.7821H64.4882L60.1277 78.7434C59.9408 79.6067 59.0861 80.1511 58.236 79.9628C57.3781 79.7721 56.8364 78.9174 57.025 78.0532L61.2352 58.782H52.9482C52.0993 58.782 51.4127 58.0885 51.4127 57.2339V54.3538C52.3351 54.2669 53.1881 53.8258 53.7924 53.1148L54.4839 52.2996V55.6854H76.9287V35.4594H54.4838V42.3618C53.7451 42.5221 53.0501 42.9058 52.5229 43.528L51.4127 44.8367V33.911C51.4127 33.0564 52.0993 32.362 52.9482 32.362ZM65.4981 41.0696C65.803 40.9479 66.1461 41.0989 66.2671 41.4064C66.3751 41.684 66.264 41.9955 66.0132 42.1413L58.7598 46.4199L56.0037 48.0456L52.5863 52.0746C51.8836 52.9055 50.6265 53.0176 49.7861 52.292L48.37 51.0686V46.2932C48.37 46.1736 48.3543 46.0581 48.3386 45.9427L48.3386 45.9427L48.3386 45.9427L48.3386 45.9426C48.3298 45.8782 48.3211 45.8137 48.3151 45.7486L50.8604 47.9484L53.731 44.5685C54.4234 43.7566 55.6213 43.6409 56.4515 44.289L65.4981 41.0696ZM42.7821 42.2628H41.0773C39.772 42.2628 38.6243 42.9024 37.8947 43.8774L32.6618 48.7348C31.8464 49.4671 31.7725 50.7356 32.5067 51.5626L36.7761 56.3671C37.504 57.1888 38.7639 57.2615 39.5792 56.523C40.3966 55.7844 40.4657 54.5193 39.7332 53.6961L36.7904 50.3829L40.9703 46.6119L38.5359 49.9465L40.9173 52.6271C42.2331 54.1097 42.1091 56.3876 40.6393 57.7153C39.6358 58.6223 38.2664 58.8351 37.0792 58.4168C37.0792 58.4168 37.0976 67.6787 37.0976 77.5975C37.0976 78.9242 38.1642 79.9997 39.4801 79.9997C40.7948 79.9997 41.8627 78.9242 41.8627 77.5975V63.2812H43.4519V77.5975C43.4519 78.2902 43.2604 78.9316 42.9549 79.4993C43.3547 79.8093 43.8522 79.9997 44.3944 79.9997C45.7111 79.9997 46.7776 78.9242 46.7776 77.5975C46.7776 73.7917 46.7781 72.0589 46.7786 69.9242V69.9233V69.9211C46.7795 66.4943 46.7807 62.029 46.7807 46.2931C46.7809 44.0672 44.9911 42.2628 42.7821 42.2628Z" fill="white"/>
</svg>
