<svg width="15" height="14" viewBox="0 0 15 14" fill="none" xmlns="http://www.w3.org/2000/svg">
<path d="M6.07746 13.0623L6.77113 13.774C7.06485 14.0753 7.5398 14.0753 7.83039 13.774L13.9047 7.545C14.1984 7.24365 14.1984 6.75636 13.9047 6.45821L7.83039 0.226013C7.53667 -0.0753378 7.06173 -0.0753378 6.77113 0.226013L6.07746 0.937715C5.78062 1.24227 5.78687 1.73918 6.08996 2.03733L9.85516 5.71766H0.874916C0.459338 5.71766 0.125 6.06068 0.125 6.48706V7.51294C0.125 7.93932 0.459338 8.28235 0.874916 8.28235H9.85516L6.08996 11.9627C5.78374 12.2608 5.77749 12.7577 6.07746 13.0623Z" fill="#95C45C"/>
</svg>
