<svg width="15" height="14" viewBox="0 0 15 14" fill="none" xmlns="http://www.w3.org/2000/svg">
<path d="M8.17254 0.937713L7.47887 0.226012C7.18515 -0.0753387 6.7102 -0.0753387 6.41961 0.226012L0.345289 6.455C0.0515713 6.75635 0.0515713 7.24364 0.345288 7.54179L6.41961 13.774C6.71333 14.0753 7.18827 14.0753 7.47887 13.774L8.17254 13.0623C8.46938 12.7577 8.46313 12.2608 8.16004 11.9627L4.39484 8.28234L13.3751 8.28235C13.7907 8.28235 14.125 7.93932 14.125 7.51294L14.125 6.48706C14.125 6.06068 13.7907 5.71765 13.3751 5.71765L4.39484 5.71765L8.16004 2.03732C8.46626 1.73918 8.47251 1.24227 8.17254 0.937713Z" fill="#95C45C"/>
</svg>
