<svg width="80" height="80" viewBox="0 0 80 80" fill="none" xmlns="http://www.w3.org/2000/svg">
<circle cx="40" cy="40" r="40" fill="#3247BA" fill-opacity="0.22"/>
<g clip-path="url(#clip0)">
<path d="M54.625 26.5H51.25C51.1008 26.5 50.9577 26.5593 50.8523 26.6648C50.7468 26.7702 50.6875 26.9133 50.6875 27.0625C50.6875 27.2117 50.7468 27.3548 50.8523 27.4602C50.9577 27.5657 51.1008 27.625 51.25 27.625H54.625C55.0724 27.6255 55.5013 27.8034 55.8177 28.1198C56.1341 28.4362 56.312 28.8651 56.3125 29.3125V48.4375H23.6875V29.3125C23.688 28.8651 23.8659 28.4362 24.1823 28.1198C24.4987 27.8034 24.9276 27.6255 25.375 27.625H28.75C28.8992 27.625 29.0423 27.5657 29.1477 27.4602C29.2532 27.3548 29.3125 27.2117 29.3125 27.0625C29.3125 26.9133 29.2532 26.7702 29.1477 26.6648C29.0423 26.5593 28.8992 26.5 28.75 26.5H25.375C24.6293 26.5009 23.9145 26.7975 23.3872 27.3247C22.86 27.852 22.5634 28.5668 22.5625 29.3125V50.6875C22.5625 52.0965 23.6139 52.9375 25.375 52.9375H36.0625V54.625C36.0619 55.2215 35.8246 55.7935 35.4028 56.2153C34.981 56.6371 34.409 56.8744 33.8125 56.875C33.6633 56.875 33.5202 56.9343 33.4148 57.0398C33.3093 57.1452 33.25 57.2883 33.25 57.4375C33.25 57.5867 33.3093 57.7298 33.4148 57.8352C33.5202 57.9407 33.6633 58 33.8125 58H46.1875C46.3367 58 46.4798 57.9407 46.5852 57.8352C46.6907 57.7298 46.75 57.5867 46.75 57.4375C46.75 57.2883 46.6907 57.1452 46.5852 57.0398C46.4798 56.9343 46.3367 56.875 46.1875 56.875C45.5909 56.8744 45.019 56.6372 44.5972 56.2153C44.1753 55.7935 43.9381 55.2216 43.9375 54.625V52.9375H54.625C56.3861 52.9375 57.4375 52.0965 57.4375 50.6875V29.3125C57.4366 28.5668 57.14 27.852 56.6128 27.3247C56.0855 26.7975 55.3707 26.5009 54.625 26.5ZM43.6739 56.875H36.3259C36.8813 56.2572 37.1882 55.4557 37.1875 54.625V52.9375H42.8125V54.625C42.812 55.4556 43.1188 56.2571 43.6739 56.875ZM56.3125 50.6875C56.3125 50.966 56.3125 51.8125 54.625 51.8125H25.375C23.6875 51.8125 23.6875 50.966 23.6875 50.6875V49.5625H56.3125V50.6875Z" fill="#334CD1"/>
<path d="M38.875 51.25C40.9787 51.25 41.6875 51.4151 41.6875 50.6875C41.6875 50.5383 41.6282 50.3952 41.5227 50.2898C41.4173 50.1843 41.2742 50.125 41.125 50.125H38.875C38.7258 50.125 38.5827 50.1843 38.4773 50.2898C38.3718 50.3952 38.3125 50.5383 38.3125 50.6875C38.3125 50.8367 38.3718 50.9798 38.4773 51.0852C38.5827 51.1907 38.7258 51.25 38.875 51.25Z" fill="#334CD1"/>
<path d="M25.9375 46.1875V29.875H28.75C28.8992 29.875 29.0423 29.8157 29.1477 29.7102C29.2532 29.6048 29.3125 29.4617 29.3125 29.3125C29.3125 29.1633 29.2532 29.0202 29.1477 28.9148C29.0423 28.8093 28.8992 28.75 28.75 28.75H25.375C25.2258 28.75 25.0827 28.8093 24.9773 28.9148C24.8718 29.0202 24.8125 29.1633 24.8125 29.3125V46.75C24.8125 46.8992 24.8718 47.0423 24.9773 47.1477C25.0827 47.2532 25.2258 47.3125 25.375 47.3125H54.625C54.7742 47.3125 54.9173 47.2532 55.0227 47.1477C55.1282 47.0423 55.1875 46.8992 55.1875 46.75V29.3125C55.1875 29.1633 55.1282 29.0202 55.0227 28.9148C54.9173 28.8093 54.7742 28.75 54.625 28.75H51.25C51.1008 28.75 50.9577 28.8093 50.8523 28.9148C50.7468 29.0202 50.6875 29.1633 50.6875 29.3125C50.6875 29.4617 50.7468 29.6048 50.8523 29.7102C50.9577 29.8157 51.1008 29.875 51.25 29.875H54.0625V46.1875H49.5625V22.5625C49.5625 22.4133 49.5032 22.2702 49.3977 22.1648C49.2923 22.0593 49.1492 22 49 22H33.25C32.5043 22.0009 31.7895 22.2975 31.2622 22.8247C30.735 23.352 30.4384 24.0668 30.4375 24.8125V46.1875H25.9375ZM48.4375 46.1875H34.9375V23.125H41.6875V29.875C41.6875 29.9862 41.7205 30.095 41.7823 30.1874C41.8441 30.2799 41.932 30.352 42.0348 30.3946C42.1375 30.4371 42.2506 30.4483 42.3597 30.4266C42.4688 30.4049 42.569 30.3513 42.6477 30.2727L43.9375 28.9829L45.2273 30.2727C45.306 30.3513 45.4062 30.4049 45.5153 30.4266C45.6244 30.4483 45.7375 30.4371 45.8402 30.3946C45.943 30.352 46.0309 30.2799 46.0927 30.1874C46.1545 30.095 46.1875 29.9862 46.1875 29.875V23.125H48.4375V46.1875ZM45.0625 23.125V28.5171L44.3352 27.7898C44.283 27.7376 44.221 27.6961 44.1527 27.6678C44.0845 27.6396 44.0114 27.625 43.9375 27.625C43.8636 27.625 43.7905 27.6396 43.7223 27.6678C43.654 27.6961 43.592 27.7376 43.5398 27.7898L42.8125 28.5171V23.125H45.0625ZM31.5625 24.8125C31.563 24.3651 31.7409 23.9362 32.0573 23.6198C32.3737 23.3034 32.8026 23.1255 33.25 23.125H33.8125V46.1875H31.5625V24.8125Z" fill="#334CD1"/>
</g>
<defs>
<clipPath id="clip0">
<rect width="36" height="36" fill="white" transform="translate(22 22)"/>
</clipPath>
</defs>
</svg>
