<svg width="112" height="112" viewBox="0 0 112 112" fill="none" xmlns="http://www.w3.org/2000/svg">
<path d="M56 112C86.9279 112 112 86.9279 112 56C112 25.0721 86.9279 0 56 0C25.0721 0 0 25.0721 0 56C0 86.9279 25.0721 112 56 112Z" fill="#6483F6"/>
<path fill-rule="evenodd" clip-rule="evenodd" d="M79.9805 61.977C79.8807 61.3435 79.4111 60.8317 78.7887 60.6777C78.6843 60.652 70.2481 58.533 64.0499 54.7187L57.2821 47.9493C53.4719 41.7541 51.3479 33.3154 51.3221 33.2114C51.1683 32.5889 50.6563 32.1193 50.0228 32.0195C49.3895 31.9197 48.7579 32.2091 48.42 32.7541L46.3766 36.0496C45.2181 35.0051 43.4756 34.5094 42.0519 34.8855L41.9355 34.9165C36.89 36.462 33.686 39.666 32.1405 44.7113L32.1096 44.8278C31.7553 46.4004 32.2762 48.1661 33.4365 49.3266C33.5238 49.4138 33.6153 49.4981 33.7084 49.5769L33.7436 49.6057C37.5814 52.6725 41.3186 55.9161 44.9021 59.287C41.6909 61.067 38.8995 61.9519 36.7663 61.857C36.4111 61.8411 36.0868 62.0584 35.9661 62.3929C35.8454 62.7275 35.956 63.1016 36.2396 63.3165L38.6486 65.1424L35.9152 67.7647C35.6806 67.9898 35.6028 68.3331 35.7175 68.6373C35.7591 68.7478 35.823 68.8451 35.9032 68.9253C36.044 69.0662 36.2348 69.1533 36.4417 69.1624C38.8558 69.2697 41.5117 68.7517 44.3794 67.6202C43.2478 70.4879 42.7299 73.1437 42.8372 75.5577C42.8464 75.7646 42.9336 75.9556 43.0745 76.0964C43.1546 76.1766 43.2521 76.2405 43.3626 76.2821C43.6667 76.3967 44.0101 76.3192 44.2352 76.0846L46.8576 73.351L48.6832 75.7603C48.8981 76.0435 49.2721 76.1546 49.6067 76.0335C49.9411 75.9128 50.1583 75.5884 50.1425 75.2333C50.0477 73.1001 50.9327 70.3085 52.7127 67.0971C56.0854 70.6823 59.3292 74.4195 62.3942 78.2561L62.4233 78.292C62.5019 78.3846 62.5859 78.4758 62.6728 78.5631C63.8332 79.7235 65.5992 80.2446 67.1719 79.8905L67.2889 79.8595C72.3346 78.3133 75.5385 75.1094 77.0836 70.0643C77.0836 70.0643 77.9254 67.5257 75.9505 65.6235L79.246 63.5803C79.7909 63.2419 80.0803 62.6105 79.9805 61.977ZM49.2407 37.4805C49.5573 38.4732 49.9476 39.6232 50.4099 40.8589C49.7786 40.117 49.153 39.3706 48.5344 38.6194L49.2407 37.4805ZM35.7554 47.1323C39.8694 50.4208 43.8698 53.9089 47.6933 57.538L54.7621 50.4694C51.585 47.1222 48.5174 43.6395 45.5971 40.0642L45.1128 39.4702C44.8598 39.1577 44.6075 38.8447 44.3568 38.531C43.9045 37.9591 43.2539 37.8345 42.8013 37.9855C38.7994 39.2298 36.454 41.5753 35.2099 45.5767C35.0603 46.0704 35.3158 46.6969 35.6909 47.072C35.712 47.0931 35.7336 47.1133 35.7554 47.1323ZM74.0144 69.1987C72.7706 73.1999 70.4253 75.5457 66.4236 76.79C65.9335 76.8964 65.3029 76.6839 64.9278 76.3089C64.9069 76.2877 64.8865 76.2666 64.8679 76.2449C61.5816 72.1324 58.0936 68.1317 54.4624 64.3067L61.5309 57.2384C64.8786 60.4164 68.3615 63.4839 71.9367 66.404L72.53 66.8875C72.8422 67.1406 73.1556 67.393 73.4697 67.6437C73.4914 67.6625 73.5128 67.6826 73.5337 67.7036C73.9083 68.0784 74.152 68.7189 74.0144 69.1987ZM71.1406 61.5898C71.8828 62.2216 72.6295 62.847 73.3804 63.4656L74.5196 62.7592C73.5268 62.4425 72.3766 62.0522 71.1406 61.5898Z" fill="white"/>
</svg>
