<svg width="29" height="34" viewBox="0 0 29 34" fill="none" xmlns="http://www.w3.org/2000/svg">
<path d="M25.8929 2.125H3.10714C1.39109 2.125 0 3.55207 0 5.3125V28.6875C0 30.4479 1.39109 31.875 3.10714 31.875H25.8929C27.6089 31.875 29 30.4479 29 28.6875V5.3125C29 3.55207 27.6089 2.125 25.8929 2.125ZM26.9286 28.6875C26.9286 29.2733 26.4639 29.75 25.8929 29.75H3.10714C2.53608 29.75 2.07143 29.2733 2.07143 28.6875V5.3125C2.07143 4.72666 2.53608 4.25 3.10714 4.25H25.8929C26.4639 4.25 26.9286 4.72666 26.9286 5.3125V28.6875ZM12.1696 23.375H12.9464V15.4062H12.1696C11.7407 15.4062 11.3929 15.0494 11.3929 14.6094V14.0781C11.3929 13.6381 11.7407 13.2812 12.1696 13.2812H15.2768C15.7058 13.2812 16.0536 13.6381 16.0536 14.0781V23.375H16.8304C17.2593 23.375 17.6071 23.7318 17.6071 24.1719V24.7031C17.6071 25.1432 17.2593 25.5 16.8304 25.5H12.1696C11.7407 25.5 11.3929 25.1432 11.3929 24.7031V24.1719C11.3929 23.7318 11.7407 23.375 12.1696 23.375ZM14.5 7.4375C13.356 7.4375 12.4286 8.3889 12.4286 9.5625C12.4286 10.7361 13.356 11.6875 14.5 11.6875C15.644 11.6875 16.5714 10.7361 16.5714 9.5625C16.5714 8.3889 15.644 7.4375 14.5 7.4375Z" fill="white"/>
</svg>
