<svg width="29" height="29" viewBox="0 0 29 29" fill="none" xmlns="http://www.w3.org/2000/svg">
<g clip-path="url(#clip0)">
<path d="M12.1599 22.8165C10.7535 22.8165 9.60938 23.9607 9.60938 25.367C9.60938 26.7733 10.7535 27.9175 12.1599 27.9175C13.5662 27.9175 14.7103 26.7733 14.7103 25.367C14.7103 23.9607 13.5661 22.8165 12.1599 22.8165ZM12.1599 26.4933C11.5387 26.4933 11.0334 25.988 11.0334 25.3669C11.0334 24.7458 11.5388 24.2405 12.1599 24.2405C12.7809 24.2405 13.2863 24.7458 13.2863 25.3669C13.2863 25.9881 12.7809 26.4933 12.1599 26.4933Z" fill="white"/>
<path d="M21.1052 22.8165C19.6988 22.8165 18.5547 23.9607 18.5547 25.367C18.5547 26.7733 19.6988 27.9175 21.1052 27.9175C22.5115 27.9175 23.6556 26.7733 23.6556 25.367C23.6556 23.9607 22.5114 22.8165 21.1052 22.8165ZM21.1052 26.4933C20.484 26.4933 19.9787 25.988 19.9787 25.3669C19.9787 24.7458 20.4841 24.2405 21.1052 24.2405C21.7263 24.2405 22.2316 24.7458 22.2316 25.3669C22.2316 25.9881 21.7262 26.4933 21.1052 26.4933Z" fill="white"/>
<path d="M21.7342 9.38843H11.5304C11.1371 9.38843 10.8184 9.7072 10.8184 10.1005C10.8184 10.4937 11.1372 10.8125 11.5304 10.8125H21.7342C22.1274 10.8125 22.4462 10.4937 22.4462 10.1005C22.4462 9.70715 22.1274 9.38843 21.7342 9.38843Z" fill="white"/>
<path d="M21.1781 13.0859H12.0851C11.6918 13.0859 11.373 13.4047 11.373 13.798C11.373 14.1912 11.6918 14.51 12.0851 14.51H21.178C21.5713 14.51 21.89 14.1912 21.89 13.798C21.89 13.4048 21.5713 13.0859 21.1781 13.0859Z" fill="white"/>
<path d="M28.6796 6.21599C28.408 5.88272 28.0056 5.69161 27.5757 5.69161H5.39664L4.94873 3.51723C4.85521 3.06365 4.54584 2.6828 4.12098 2.49832L0.995713 1.14178C0.634912 0.985051 0.2156 1.15061 0.0591018 1.5113C-0.0975665 1.8721 0.0679944 2.29147 0.428626 2.44797L3.55395 3.80457L6.99918 20.5284C7.13489 21.187 7.72146 21.665 8.39396 21.665H25.4522C25.8455 21.665 26.1643 21.3463 26.1643 20.953C26.1643 20.5597 25.8455 20.241 25.4522 20.241H8.39402L7.97493 18.2067H25.5841C26.2565 18.2067 26.8432 17.7286 26.9788 17.07L28.9705 7.40284C29.0572 6.98189 28.9512 6.54921 28.6796 6.21599ZM25.5841 16.7827H7.68159L5.69004 7.11562L27.5756 7.11567L25.5841 16.7827Z" fill="white"/>
</g>
<defs>
<clipPath id="clip0">
<rect width="29" height="29" fill="white"/>
</clipPath>
</defs>
</svg>
