<svg width="60" height="45" viewBox="0 0 60 45" fill="none" xmlns="http://www.w3.org/2000/svg">
<path fill-rule="evenodd" clip-rule="evenodd" d="M2.5 45C17.77 41.985 27.5 28.54 27.5 15.6875C27.5 5.7625 20.535 0 12.9975 0C6.46 0 0 4.4925 0 12.4475C0 18.9525 4.7625 24.34 10.99 25.32C10.4475 30.33 5.5775 37.5975 0.04 39.685L2.5 45ZM35 45C50.27 41.985 60 28.54 60 15.6875C60 5.7625 53.035 0 45.4975 0C38.96 0 32.5 4.4925 32.5 12.4475C32.5 18.9525 37.2625 24.34 43.49 25.32C42.9475 30.33 38.0775 37.5975 32.54 39.685L35 45Z" fill="#298FFD"/>
</svg>
