<svg width="188" height="52" viewBox="0 0 188 52" fill="none" xmlns="http://www.w3.org/2000/svg">
<path fill-rule="evenodd" clip-rule="evenodd" d="M108 2C108 3.10457 107.105 4 106 4C104.895 4 104 3.10457 104 2C104 0.89543 104.895 0 106 0C107.105 0 108 0.89543 108 2ZM106 20C107.105 20 108 19.1046 108 18C108 16.8954 107.105 16 106 16C104.895 16 104 16.8954 104 18C104 19.1046 104.895 20 106 20ZM122 20C123.105 20 124 19.1046 124 18C124 16.8954 123.105 16 122 16C120.895 16 120 16.8954 120 18C120 19.1046 120.895 20 122 20ZM140 18C140 19.1046 139.105 20 138 20C136.895 20 136 19.1046 136 18C136 16.8954 136.895 16 138 16C139.105 16 140 16.8954 140 18ZM154 20C155.105 20 156 19.1046 156 18C156 16.8954 155.105 16 154 16C152.895 16 152 16.8954 152 18C152 19.1046 152.895 20 154 20ZM172 18C172 19.1046 171.105 20 170 20C168.895 20 168 19.1046 168 18C168 16.8954 168.895 16 170 16C171.105 16 172 16.8954 172 18ZM186 20C187.105 20 188 19.1046 188 18C188 16.8954 187.105 16 186 16C184.895 16 184 16.8954 184 18C184 19.1046 184.895 20 186 20ZM122 4C123.105 4 124 3.10457 124 2C124 0.89543 123.105 0 122 0C120.895 0 120 0.89543 120 2C120 3.10457 120.895 4 122 4ZM140 2C140 3.10457 139.105 4 138 4C136.895 4 136 3.10457 136 2C136 0.89543 136.895 0 138 0C139.105 0 140 0.89543 140 2ZM154 4C155.105 4 156 3.10457 156 2C156 0.89543 155.105 0 154 0C152.895 0 152 0.89543 152 2C152 3.10457 152.895 4 154 4ZM172 2C172 3.10457 171.105 4 170 4C168.895 4 168 3.10457 168 2C168 0.89543 168.895 0 170 0C171.105 0 172 0.89543 172 2ZM186 4C187.105 4 188 3.10457 188 2C188 0.89543 187.105 0 186 0C184.895 0 184 0.89543 184 2C184 3.10457 184.895 4 186 4ZM2 20C3.10457 20 4 19.1046 4 18C4 16.8954 3.10457 16 2 16C0.89543 16 0 16.8954 0 18C0 19.1046 0.89543 20 2 20ZM18 20C19.1046 20 20 19.1046 20 18C20 16.8954 19.1046 16 18 16C16.8954 16 16 16.8954 16 18C16 19.1046 16.8954 20 18 20ZM36 18C36 19.1046 35.1046 20 34 20C32.8954 20 32 19.1046 32 18C32 16.8954 32.8954 16 34 16C35.1046 16 36 16.8954 36 18ZM50 20C51.1046 20 52 19.1046 52 18C52 16.8954 51.1046 16 50 16C48.8954 16 48 16.8954 48 18C48 19.1046 48.8954 20 50 20ZM68 18C68 19.1046 67.1046 20 66 20C64.8954 20 64 19.1046 64 18C64 16.8954 64.8954 16 66 16C67.1046 16 68 16.8954 68 18ZM82 20C83.1046 20 84 19.1046 84 18C84 16.8954 83.1046 16 82 16C80.8954 16 80 16.8954 80 18C80 19.1046 80.8954 20 82 20ZM2 4C3.10457 4 4 3.10457 4 2C4 0.89543 3.10457 0 2 0C0.89543 0 0 0.89543 0 2C0 3.10457 0.89543 4 2 4ZM12 34C12 35.1046 11.1046 36 10 36C8.89543 36 8 35.1046 8 34C8 32.8954 8.89543 32 10 32C11.1046 32 12 32.8954 12 34ZM10 52C11.1046 52 12 51.1046 12 50C12 48.8954 11.1046 48 10 48C8.89543 48 8 48.8954 8 50C8 51.1046 8.89543 52 10 52ZM26 52C27.1046 52 28 51.1046 28 50C28 48.8954 27.1046 48 26 48C24.8954 48 24 48.8954 24 50C24 51.1046 24.8954 52 26 52ZM44 50C44 51.1046 43.1046 52 42 52C40.8954 52 40 51.1046 40 50C40 48.8954 40.8954 48 42 48C43.1046 48 44 48.8954 44 50ZM58 52C59.1046 52 60 51.1046 60 50C60 48.8954 59.1046 48 58 48C56.8954 48 56 48.8954 56 50C56 51.1046 56.8954 52 58 52ZM76 50C76 51.1046 75.1046 52 74 52C72.8954 52 72 51.1046 72 50C72 48.8954 72.8954 48 74 48C75.1046 48 76 48.8954 76 50ZM90 52C91.1046 52 92 51.1046 92 50C92 48.8954 91.1046 48 90 48C88.8954 48 88 48.8954 88 50C88 51.1046 88.8954 52 90 52ZM26 36C27.1046 36 28 35.1046 28 34C28 32.8954 27.1046 32 26 32C24.8954 32 24 32.8954 24 34C24 35.1046 24.8954 36 26 36ZM44 34C44 35.1046 43.1046 36 42 36C40.8954 36 40 35.1046 40 34C40 32.8954 40.8954 32 42 32C43.1046 32 44 32.8954 44 34ZM58 36C59.1046 36 60 35.1046 60 34C60 32.8954 59.1046 32 58 32C56.8954 32 56 32.8954 56 34C56 35.1046 56.8954 36 58 36ZM76 34C76 35.1046 75.1046 36 74 36C72.8954 36 72 35.1046 72 34C72 32.8954 72.8954 32 74 32C75.1046 32 76 32.8954 76 34ZM90 36C91.1046 36 92 35.1046 92 34C92 32.8954 91.1046 32 90 32C88.8954 32 88 32.8954 88 34C88 35.1046 88.8954 36 90 36ZM18 4C19.1046 4 20 3.10457 20 2C20 0.89543 19.1046 0 18 0C16.8954 0 16 0.89543 16 2C16 3.10457 16.8954 4 18 4ZM108 34C108 35.1046 107.105 36 106 36C104.895 36 104 35.1046 104 34C104 32.8954 104.895 32 106 32C107.105 32 108 32.8954 108 34ZM106 52C107.105 52 108 51.1046 108 50C108 48.8954 107.105 48 106 48C104.895 48 104 48.8954 104 50C104 51.1046 104.895 52 106 52ZM122 52C123.105 52 124 51.1046 124 50C124 48.8954 123.105 48 122 48C120.895 48 120 48.8954 120 50C120 51.1046 120.895 52 122 52ZM140 50C140 51.1046 139.105 52 138 52C136.895 52 136 51.1046 136 50C136 48.8954 136.895 48 138 48C139.105 48 140 48.8954 140 50ZM154 52C155.105 52 156 51.1046 156 50C156 48.8954 155.105 48 154 48C152.895 48 152 48.8954 152 50C152 51.1046 152.895 52 154 52ZM172 50C172 51.1046 171.105 52 170 52C168.895 52 168 51.1046 168 50C168 48.8954 168.895 48 170 48C171.105 48 172 48.8954 172 50ZM186 52C187.105 52 188 51.1046 188 50C188 48.8954 187.105 48 186 48C184.895 48 184 48.8954 184 50C184 51.1046 184.895 52 186 52ZM122 36C123.105 36 124 35.1046 124 34C124 32.8954 123.105 32 122 32C120.895 32 120 32.8954 120 34C120 35.1046 120.895 36 122 36ZM140 34C140 35.1046 139.105 36 138 36C136.895 36 136 35.1046 136 34C136 32.8954 136.895 32 138 32C139.105 32 140 32.8954 140 34ZM154 36C155.105 36 156 35.1046 156 34C156 32.8954 155.105 32 154 32C152.895 32 152 32.8954 152 34C152 35.1046 152.895 36 154 36ZM172 34C172 35.1046 171.105 36 170 36C168.895 36 168 35.1046 168 34C168 32.8954 168.895 32 170 32C171.105 32 172 32.8954 172 34ZM186 36C187.105 36 188 35.1046 188 34C188 32.8954 187.105 32 186 32C184.895 32 184 32.8954 184 34C184 35.1046 184.895 36 186 36ZM34 4C35.1046 4 36 3.10457 36 2C36 0.89543 35.1046 0 34 0C32.8954 0 32 0.89543 32 2C32 3.10457 32.8954 4 34 4ZM52 2C52 3.10457 51.1046 4 50 4C48.8954 4 48 3.10457 48 2C48 0.89543 48.8954 0 50 0C51.1046 0 52 0.89543 52 2ZM66 4C67.1046 4 68 3.10457 68 2C68 0.89543 67.1046 0 66 0C64.8954 0 64 0.89543 64 2C64 3.10457 64.8954 4 66 4ZM84 2C84 3.10457 83.1046 4 82 4C80.8954 4 80 3.10457 80 2C80 0.89543 80.8954 0 82 0C83.1046 0 84 0.89543 84 2Z" fill="#333333"/>
</svg>
