<svg width="22" height="22" viewBox="0 0 22 22" fill="none" xmlns="http://www.w3.org/2000/svg">
<path d="M9.54791 19.8683L10.5627 20.9094C10.9923 21.3502 11.6871 21.3502 12.1122 20.9094L20.9981 11.7973C21.4277 11.3564 21.4277 10.6436 20.9981 10.2074L12.1122 1.09063C11.6825 0.649801 10.9878 0.649801 10.5627 1.09063L9.54791 2.13175C9.11368 2.57728 9.12282 3.30418 9.5662 3.74033L15.0742 9.12412H1.93733C1.3294 9.12412 0.840313 9.62592 0.840313 10.2497V11.7504C0.840313 12.3741 1.3294 12.8759 1.93733 12.8759H15.0742L9.5662 18.2597C9.11825 18.6958 9.1091 19.4227 9.54791 19.8683Z" fill="white"/>
</svg>
