<svg width="22" height="22" viewBox="0 0 22 22" fill="none" xmlns="http://www.w3.org/2000/svg">
<path d="M12.5322 2.13173L11.5174 1.09062C11.0878 0.649783 10.393 0.649783 9.96788 1.09062L1.08202 10.2027C0.65235 10.6436 0.65235 11.3564 1.08202 11.7926L9.96788 20.9094C10.3975 21.3502 11.0923 21.3502 11.5174 20.9094L12.5322 19.8682C12.9664 19.4227 12.9573 18.6958 12.5139 18.2597L7.00593 12.8759L20.1427 12.8759C20.7507 12.8759 21.2398 12.3741 21.2398 11.7503L21.2398 10.2496C21.2398 9.6259 20.7507 9.1241 20.1427 9.1241L7.00593 9.1241L12.5139 3.74031C12.9618 3.30416 12.971 2.57726 12.5322 2.13173Z" fill="white"/>
</svg>
